<?xml version="1.0" encoding="UTF-8" standalone="no"?>
<!DOCTYPE svg PUBLIC "-//W3C//DTD SVG 1.1//EN"
 "http://www.w3.org/Graphics/SVG/1.1/DTD/svg11.dtd">
<!-- Generated by graphviz version 12.1.0 (20240811.2233)
 -->
<!-- Title: pastafarianism Pages: 1 -->
<svg width="2689pt" height="560pt"
 viewBox="0.00 0.00 2688.53 560.03" xmlns="http://www.w3.org/2000/svg" xmlns:xlink="http://www.w3.org/1999/xlink">
<g id="graph0" class="graph" transform="scale(1 1) rotate(0) translate(4 556.03)">
<title>pastafarianism</title>
<polygon fill="white" stroke="none" points="-4,4 -4,-556.03 2684.53,-556.03 2684.53,4 -4,4"/>
<!-- 64608983&#45;9067&#45;4714&#45;9be1&#45;5ac68ab9a9f3 -->
<g id="node1" class="node">
<title>64608983&#45;9067&#45;4714&#45;9be1&#45;5ac68ab9a9f3</title>
<polygon fill="#b0ffff" stroke="black" points="1485.4,-552.03 1449.9,-552.03 1449.9,-521.53 1485.4,-521.53 1485.4,-552.03"/>
<text text-anchor="middle" x="1467.65" y="-529.03" font-family="Times New Roman,serif" font-size="20.00"> ? </text>
</g>
<!-- 4f1b2ce0&#45;2d5b&#45;4131&#45;a2b9&#45;0d2a12b0bd5b -->
<g id="node2" class="node">
<title>4f1b2ce0&#45;2d5b&#45;4131&#45;a2b9&#45;0d2a12b0bd5b</title>
<polygon fill="#ff8080" stroke="black" points="1089.78,-485.53 1053.53,-485.53 1053.53,-455.03 1089.78,-455.03 1089.78,-485.53"/>
<text text-anchor="middle" x="1071.65" y="-462.53" font-family="Times New Roman,serif" font-size="20.00">→</text>
</g>
<!-- 64608983&#45;9067&#45;4714&#45;9be1&#45;5ac68ab9a9f3&#45;&gt;4f1b2ce0&#45;2d5b&#45;4131&#45;a2b9&#45;0d2a12b0bd5b -->
<g id="edge1" class="edge">
<title>64608983&#45;9067&#45;4714&#45;9be1&#45;5ac68ab9a9f3&#45;&gt;4f1b2ce0&#45;2d5b&#45;4131&#45;a2b9&#45;0d2a12b0bd5b</title>
<path fill="none" stroke="black" d="M1449.61,-532.85C1387.13,-522.67 1179.61,-488.87 1101.62,-476.17"/>
<polygon fill="black" stroke="black" points="1102.19,-472.71 1091.76,-474.56 1101.06,-479.62 1102.19,-472.71"/>
</g>
<!-- 81332dc5&#45;3e2d&#45;4fe4&#45;ab8f&#45;9c572be34564 -->
<g id="node5" class="node">
<title>81332dc5&#45;3e2d&#45;4fe4&#45;ab8f&#45;9c572be34564</title>
<polygon fill="#ff8080" stroke="black" points="1485.78,-485.53 1449.53,-485.53 1449.53,-455.03 1485.78,-455.03 1485.78,-485.53"/>
<text text-anchor="middle" x="1467.65" y="-462.53" font-family="Times New Roman,serif" font-size="20.00">→</text>
</g>
<!-- 64608983&#45;9067&#45;4714&#45;9be1&#45;5ac68ab9a9f3&#45;&gt;81332dc5&#45;3e2d&#45;4fe4&#45;ab8f&#45;9c572be34564 -->
<g id="edge4" class="edge">
<title>64608983&#45;9067&#45;4714&#45;9be1&#45;5ac68ab9a9f3&#45;&gt;81332dc5&#45;3e2d&#45;4fe4&#45;ab8f&#45;9c572be34564</title>
<path fill="none" stroke="black" d="M1467.65,-521.15C1467.65,-514.06 1467.65,-505.32 1467.65,-497.16"/>
<polygon fill="black" stroke="black" points="1471.15,-497.38 1467.65,-487.38 1464.15,-497.38 1471.15,-497.38"/>
</g>
<!-- bda4945e&#45;95d7&#45;4e7b&#45;9ec2&#45;e9d8475ece60 -->
<g id="node27" class="node">
<title>bda4945e&#45;95d7&#45;4e7b&#45;9ec2&#45;e9d8475ece60</title>
<polygon fill="#ff8080" stroke="black" points="1763.78,-485.53 1727.53,-485.53 1727.53,-455.03 1763.78,-455.03 1763.78,-485.53"/>
<text text-anchor="middle" x="1745.65" y="-462.53" font-family="Times New Roman,serif" font-size="20.00">→</text>
</g>
<!-- 64608983&#45;9067&#45;4714&#45;9be1&#45;5ac68ab9a9f3&#45;&gt;bda4945e&#45;95d7&#45;4e7b&#45;9ec2&#45;e9d8475ece60 -->
<g id="edge26" class="edge">
<title>64608983&#45;9067&#45;4714&#45;9be1&#45;5ac68ab9a9f3&#45;&gt;bda4945e&#45;95d7&#45;4e7b&#45;9ec2&#45;e9d8475ece60</title>
<path fill="none" stroke="black" d="M1485.89,-531.55C1532.92,-520.64 1658.61,-491.48 1716.15,-478.13"/>
<polygon fill="black" stroke="black" points="1716.92,-481.54 1725.87,-475.87 1715.34,-474.72 1716.92,-481.54"/>
</g>
<!-- b4f3a23c&#45;20ec&#45;480f&#45;ad72&#45;cbaf15d5b2c4 -->
<g id="node3" class="node">
<title>b4f3a23c&#45;20ec&#45;480f&#45;ad72&#45;cbaf15d5b2c4</title>
<ellipse fill="#ffff80" stroke="black" cx="761.65" cy="-397.47" rx="136.47" ry="21.57"/>
<text text-anchor="middle" x="761.65" y="-389.72" font-family="Times New Roman,serif" font-size="20.00">IsOn(book,nightstand)</text>
</g>
<!-- 4f1b2ce0&#45;2d5b&#45;4131&#45;a2b9&#45;0d2a12b0bd5b&#45;&gt;b4f3a23c&#45;20ec&#45;480f&#45;ad72&#45;cbaf15d5b2c4 -->
<g id="edge2" class="edge">
<title>4f1b2ce0&#45;2d5b&#45;4131&#45;a2b9&#45;0d2a12b0bd5b&#45;&gt;b4f3a23c&#45;20ec&#45;480f&#45;ad72&#45;cbaf15d5b2c4</title>
<path fill="none" stroke="black" d="M1053.19,-465.07C1013.78,-456.06 919.26,-434.47 848.46,-418.3"/>
<polygon fill="black" stroke="black" points="849.32,-414.9 838.79,-416.09 847.76,-421.73 849.32,-414.9"/>
</g>
<!-- 5196e246&#45;7235&#45;40a9&#45;bdec&#45;b224a424ca85 -->
<g id="node4" class="node">
<title>5196e246&#45;7235&#45;40a9&#45;bdec&#45;b224a424ca85</title>
<ellipse fill="#ffff80" stroke="black" cx="1071.65" cy="-397.47" rx="155.03" ry="21.57"/>
<text text-anchor="middle" x="1071.65" y="-389.72" font-family="Times New Roman,serif" font-size="20.00">IsOn(cupcake,nightstand)</text>
</g>
<!-- 4f1b2ce0&#45;2d5b&#45;4131&#45;a2b9&#45;0d2a12b0bd5b&#45;&gt;5196e246&#45;7235&#45;40a9&#45;bdec&#45;b224a424ca85 -->
<g id="edge3" class="edge">
<title>4f1b2ce0&#45;2d5b&#45;4131&#45;a2b9&#45;0d2a12b0bd5b&#45;&gt;5196e246&#45;7235&#45;40a9&#45;bdec&#45;b224a424ca85</title>
<path fill="none" stroke="black" d="M1071.65,-454.61C1071.65,-447.67 1071.65,-439.09 1071.65,-430.75"/>
<polygon fill="black" stroke="black" points="1075.15,-430.81 1071.65,-420.81 1068.15,-430.81 1075.15,-430.81"/>
</g>
<!-- aeac0f51&#45;cc43&#45;465c&#45;a28f&#45;829c28ccddb2 -->
<g id="node6" class="node">
<title>aeac0f51&#45;cc43&#45;465c&#45;a28f&#45;829c28ccddb2</title>
<ellipse fill="#ffff80" stroke="black" cx="1381.65" cy="-397.47" rx="136.47" ry="21.57"/>
<text text-anchor="middle" x="1381.65" y="-389.72" font-family="Times New Roman,serif" font-size="20.00">IsOn(book,nightstand)</text>
</g>
<!-- 81332dc5&#45;3e2d&#45;4fe4&#45;ab8f&#45;9c572be34564&#45;&gt;aeac0f51&#45;cc43&#45;465c&#45;a28f&#45;829c28ccddb2 -->
<g id="edge5" class="edge">
<title>81332dc5&#45;3e2d&#45;4fe4&#45;ab8f&#45;9c572be34564&#45;&gt;aeac0f51&#45;cc43&#45;465c&#45;a28f&#45;829c28ccddb2</title>
<path fill="none" stroke="black" d="M1449.83,-454.61C1439.88,-446.41 1427.14,-435.92 1415.37,-426.23"/>
<polygon fill="black" stroke="black" points="1417.74,-423.65 1407.79,-419.99 1413.29,-429.05 1417.74,-423.65"/>
</g>
<!-- f0198c09&#45;cc53&#45;40d0&#45;b96e&#45;cf9ccc14be96 -->
<g id="node7" class="node">
<title>f0198c09&#45;cc53&#45;40d0&#45;b96e&#45;cf9ccc14be96</title>
<polygon fill="#b0ffff" stroke="black" points="1571.4,-412.72 1535.9,-412.72 1535.9,-382.22 1571.4,-382.22 1571.4,-412.72"/>
<text text-anchor="middle" x="1553.65" y="-389.72" font-family="Times New Roman,serif" font-size="20.00"> ? </text>
</g>
<!-- 81332dc5&#45;3e2d&#45;4fe4&#45;ab8f&#45;9c572be34564&#45;&gt;f0198c09&#45;cc53&#45;40d0&#45;b96e&#45;cf9ccc14be96 -->
<g id="edge6" class="edge">
<title>81332dc5&#45;3e2d&#45;4fe4&#45;ab8f&#45;9c572be34564&#45;&gt;f0198c09&#45;cc53&#45;40d0&#45;b96e&#45;cf9ccc14be96</title>
<path fill="none" stroke="black" d="M1485.47,-454.61C1497.47,-444.74 1513.49,-431.54 1526.99,-420.42"/>
<polygon fill="black" stroke="black" points="1529.19,-423.14 1534.69,-414.08 1524.74,-417.74 1529.19,-423.14"/>
</g>
<!-- 0cb84335&#45;c1a1&#45;45d6&#45;81bd&#45;dc3a8c51aa3d -->
<g id="node8" class="node">
<title>0cb84335&#45;c1a1&#45;45d6&#45;81bd&#45;dc3a8c51aa3d</title>
<polygon fill="#b0ffff" stroke="black" points="1070.4,-339.9 1034.9,-339.9 1034.9,-309.4 1070.4,-309.4 1070.4,-339.9"/>
<text text-anchor="middle" x="1052.65" y="-316.9" font-family="Times New Roman,serif" font-size="20.00"> ? </text>
</g>
<!-- f0198c09&#45;cc53&#45;40d0&#45;b96e&#45;cf9ccc14be96&#45;&gt;0cb84335&#45;c1a1&#45;45d6&#45;81bd&#45;dc3a8c51aa3d -->
<g id="edge7" class="edge">
<title>f0198c09&#45;cc53&#45;40d0&#45;b96e&#45;cf9ccc14be96&#45;&gt;0cb84335&#45;c1a1&#45;45d6&#45;81bd&#45;dc3a8c51aa3d</title>
<path fill="none" stroke="black" d="M1537.38,-381.88C1534.03,-379.53 1530.38,-377.38 1526.65,-375.9 1444.95,-343.43 1172.33,-330.24 1082,-326.7"/>
<polygon fill="black" stroke="black" points="1082.38,-323.21 1072.25,-326.33 1082.11,-330.2 1082.38,-323.21"/>
</g>
<!-- 8d854e5a&#45;d1a1&#45;4155&#45;a79e&#45;15d7fcbfb590 -->
<g id="node23" class="node">
<title>8d854e5a&#45;d1a1&#45;4155&#45;a79e&#45;15d7fcbfb590</title>
<polygon fill="#ff8080" stroke="black" points="1571.78,-339.9 1535.53,-339.9 1535.53,-309.4 1571.78,-309.4 1571.78,-339.9"/>
<text text-anchor="middle" x="1553.65" y="-316.9" font-family="Times New Roman,serif" font-size="20.00">→</text>
</g>
<!-- f0198c09&#45;cc53&#45;40d0&#45;b96e&#45;cf9ccc14be96&#45;&gt;8d854e5a&#45;d1a1&#45;4155&#45;a79e&#45;15d7fcbfb590 -->
<g id="edge22" class="edge">
<title>f0198c09&#45;cc53&#45;40d0&#45;b96e&#45;cf9ccc14be96&#45;&gt;8d854e5a&#45;d1a1&#45;4155&#45;a79e&#45;15d7fcbfb590</title>
<path fill="none" stroke="black" d="M1553.65,-381.79C1553.65,-373.06 1553.65,-361.72 1553.65,-351.53"/>
<polygon fill="black" stroke="black" points="1557.15,-351.82 1553.65,-341.82 1550.15,-351.82 1557.15,-351.82"/>
</g>
<!-- ce54ab08&#45;5794&#45;49a1&#45;b6be&#45;623e2f91a9da -->
<g id="node9" class="node">
<title>ce54ab08&#45;5794&#45;49a1&#45;b6be&#45;623e2f91a9da</title>
<polygon fill="#ff8080" stroke="black" points="562.78,-267.08 526.53,-267.08 526.53,-236.58 562.78,-236.58 562.78,-267.08"/>
<text text-anchor="middle" x="544.65" y="-244.08" font-family="Times New Roman,serif" font-size="20.00">→</text>
</g>
<!-- 0cb84335&#45;c1a1&#45;45d6&#45;81bd&#45;dc3a8c51aa3d&#45;&gt;ce54ab08&#45;5794&#45;49a1&#45;b6be&#45;623e2f91a9da -->
<g id="edge8" class="edge">
<title>0cb84335&#45;c1a1&#45;45d6&#45;81bd&#45;dc3a8c51aa3d&#45;&gt;ce54ab08&#45;5794&#45;49a1&#45;b6be&#45;623e2f91a9da</title>
<path fill="none" stroke="black" d="M1034.57,-321.13C959.05,-310.6 668.39,-270.08 574.26,-256.96"/>
<polygon fill="black" stroke="black" points="574.93,-253.52 564.55,-255.61 573.97,-260.45 574.93,-253.52"/>
</g>
<!-- a3fc60b3&#45;41ac&#45;42f8&#45;9a86&#45;bf63b3bc1862 -->
<g id="node18" class="node">
<title>a3fc60b3&#45;41ac&#45;42f8&#45;9a86&#45;bf63b3bc1862</title>
<polygon fill="#ff8080" stroke="black" points="1070.78,-267.08 1034.53,-267.08 1034.53,-236.58 1070.78,-236.58 1070.78,-267.08"/>
<text text-anchor="middle" x="1052.65" y="-244.08" font-family="Times New Roman,serif" font-size="20.00">→</text>
</g>
<!-- 0cb84335&#45;c1a1&#45;45d6&#45;81bd&#45;dc3a8c51aa3d&#45;&gt;a3fc60b3&#45;41ac&#45;42f8&#45;9a86&#45;bf63b3bc1862 -->
<g id="edge17" class="edge">
<title>0cb84335&#45;c1a1&#45;45d6&#45;81bd&#45;dc3a8c51aa3d&#45;&gt;a3fc60b3&#45;41ac&#45;42f8&#45;9a86&#45;bf63b3bc1862</title>
<path fill="none" stroke="black" d="M1052.65,-308.98C1052.65,-300.24 1052.65,-288.91 1052.65,-278.71"/>
<polygon fill="black" stroke="black" points="1056.15,-279 1052.65,-269 1049.15,-279 1056.15,-279"/>
</g>
<!-- 78215b5d&#45;2f43&#45;4a04&#45;bd32&#45;2f87c9be9450 -->
<g id="node10" class="node">
<title>78215b5d&#45;2f43&#45;4a04&#45;bd32&#45;2f87c9be9450</title>
<ellipse fill="#ffff80" stroke="black" cx="331.65" cy="-172.7" rx="176.78" ry="21.57"/>
<text text-anchor="middle" x="331.65" y="-164.95" font-family="Times New Roman,serif" font-size="20.00">IsRightHolding(self,cupcake)</text>
</g>
<!-- ce54ab08&#45;5794&#45;49a1&#45;b6be&#45;623e2f91a9da&#45;&gt;78215b5d&#45;2f43&#45;4a04&#45;bd32&#45;2f87c9be9450 -->
<g id="edge9" class="edge">
<title>ce54ab08&#45;5794&#45;49a1&#45;b6be&#45;623e2f91a9da&#45;&gt;78215b5d&#45;2f43&#45;4a04&#45;bd32&#45;2f87c9be9450</title>
<path fill="none" stroke="black" d="M526.12,-244.12C497.7,-233.83 441.95,-213.64 397.4,-197.51"/>
<polygon fill="black" stroke="black" points="398.64,-194.24 388.05,-194.12 396.26,-200.82 398.64,-194.24"/>
</g>
<!-- a98438ed&#45;bd3c&#45;4434&#45;a2bf&#45;0a2e226bc049 -->
<g id="node11" class="node">
<title>a98438ed&#45;bd3c&#45;4434&#45;a2bf&#45;0a2e226bc049</title>
<polygon fill="#b0ffff" stroke="black" points="562.4,-187.95 526.9,-187.95 526.9,-157.45 562.4,-157.45 562.4,-187.95"/>
<text text-anchor="middle" x="544.65" y="-164.95" font-family="Times New Roman,serif" font-size="20.00"> ? </text>
</g>
<!-- ce54ab08&#45;5794&#45;49a1&#45;b6be&#45;623e2f91a9da&#45;&gt;a98438ed&#45;bd3c&#45;4434&#45;a2bf&#45;0a2e226bc049 -->
<g id="edge10" class="edge">
<title>ce54ab08&#45;5794&#45;49a1&#45;b6be&#45;623e2f91a9da&#45;&gt;a98438ed&#45;bd3c&#45;4434&#45;a2bf&#45;0a2e226bc049</title>
<path fill="none" stroke="black" d="M544.65,-236.33C544.65,-226.05 544.65,-211.98 544.65,-199.77"/>
<polygon fill="black" stroke="black" points="548.15,-199.92 544.65,-189.92 541.15,-199.92 548.15,-199.92"/>
</g>
<!-- f00abf8b&#45;e8bf&#45;4a3f&#45;bf54&#45;ea48f3d718e0 -->
<g id="node12" class="node">
<title>f00abf8b&#45;e8bf&#45;4a3f&#45;bf54&#45;ea48f3d718e0</title>
<polygon fill="#ff8080" stroke="black" points="440.78,-112.38 404.53,-112.38 404.53,-81.88 440.78,-81.88 440.78,-112.38"/>
<text text-anchor="middle" x="422.65" y="-89.38" font-family="Times New Roman,serif" font-size="20.00">→</text>
</g>
<!-- a98438ed&#45;bd3c&#45;4434&#45;a2bf&#45;0a2e226bc049&#45;&gt;f00abf8b&#45;e8bf&#45;4a3f&#45;bf54&#45;ea48f3d718e0 -->
<g id="edge11" class="edge">
<title>a98438ed&#45;bd3c&#45;4434&#45;a2bf&#45;0a2e226bc049&#45;&gt;f00abf8b&#45;e8bf&#45;4a3f&#45;bf54&#45;ea48f3d718e0</title>
<path fill="none" stroke="black" d="M526.61,-157.4C523.67,-155.23 520.61,-153.07 517.65,-151.13 496.03,-136.97 470.36,-122.8 451.17,-112.68"/>
<polygon fill="black" stroke="black" points="452.79,-109.57 442.3,-108.06 449.55,-115.78 452.79,-109.57"/>
</g>
<!-- 6766421d&#45;e275&#45;4a57&#45;91fd&#45;6b8ec5cc74b0 -->
<g id="node15" class="node">
<title>6766421d&#45;e275&#45;4a57&#45;91fd&#45;6b8ec5cc74b0</title>
<polygon fill="#ff8080" stroke="black" points="684.78,-112.38 648.53,-112.38 648.53,-81.88 684.78,-81.88 684.78,-112.38"/>
<text text-anchor="middle" x="666.65" y="-89.38" font-family="Times New Roman,serif" font-size="20.00">→</text>
</g>
<!-- a98438ed&#45;bd3c&#45;4434&#45;a2bf&#45;0a2e226bc049&#45;&gt;6766421d&#45;e275&#45;4a57&#45;91fd&#45;6b8ec5cc74b0 -->
<g id="edge14" class="edge">
<title>a98438ed&#45;bd3c&#45;4434&#45;a2bf&#45;0a2e226bc049&#45;&gt;6766421d&#45;e275&#45;4a57&#45;91fd&#45;6b8ec5cc74b0</title>
<path fill="none" stroke="black" d="M562.27,-157.14C565.02,-155.05 567.87,-152.98 570.65,-151.13 592.46,-136.63 618.54,-122.42 638.01,-112.36"/>
<polygon fill="black" stroke="black" points="639.41,-115.58 646.73,-107.92 636.23,-109.34 639.41,-115.58"/>
</g>
<!-- 7a9f963b&#45;1b9e&#45;448a&#45;850d&#45;2c43fc1820f8 -->
<g id="node13" class="node">
<title>7a9f963b&#45;1b9e&#45;448a&#45;850d&#45;2c43fc1820f8</title>
<ellipse fill="#ffff80" stroke="black" cx="139.65" cy="-21.57" rx="139.65" ry="21.57"/>
<text text-anchor="middle" x="139.65" y="-13.82" font-family="Times New Roman,serif" font-size="20.00">IsNear(self,nightstand)</text>
</g>
<!-- f00abf8b&#45;e8bf&#45;4a3f&#45;bf54&#45;ea48f3d718e0&#45;&gt;7a9f963b&#45;1b9e&#45;448a&#45;850d&#45;2c43fc1820f8 -->
<g id="edge12" class="edge">
<title>f00abf8b&#45;e8bf&#45;4a3f&#45;bf54&#45;ea48f3d718e0&#45;&gt;7a9f963b&#45;1b9e&#45;448a&#45;850d&#45;2c43fc1820f8</title>
<path fill="none" stroke="black" d="M404.09,-91.31C367.35,-81.76 283.47,-59.95 219.96,-43.44"/>
<polygon fill="black" stroke="black" points="221.18,-40.14 210.62,-41.01 219.42,-46.92 221.18,-40.14"/>
</g>
<!-- ca2e76a2&#45;c9bc&#45;46b5&#45;9f8c&#45;29f80fcee9a2 -->
<g id="node14" class="node">
<title>ca2e76a2&#45;c9bc&#45;46b5&#45;9f8c&#45;29f80fcee9a2</title>
<polygon fill="lightgreen" stroke="black" points="548.03,-39.57 297.28,-39.57 297.28,-3.57 548.03,-3.57 548.03,-39.57"/>
<text text-anchor="middle" x="422.65" y="-13.82" font-family="Times New Roman,serif" font-size="20.00">RightPut(cupcake,nightstand)</text>
</g>
<!-- f00abf8b&#45;e8bf&#45;4a3f&#45;bf54&#45;ea48f3d718e0&#45;&gt;ca2e76a2&#45;c9bc&#45;46b5&#45;9f8c&#45;29f80fcee9a2 -->
<g id="edge13" class="edge">
<title>f00abf8b&#45;e8bf&#45;4a3f&#45;bf54&#45;ea48f3d718e0&#45;&gt;ca2e76a2&#45;c9bc&#45;46b5&#45;9f8c&#45;29f80fcee9a2</title>
<path fill="none" stroke="black" d="M422.65,-81.6C422.65,-72.9 422.65,-61.54 422.65,-51.11"/>
<polygon fill="black" stroke="black" points="426.15,-51.43 422.65,-41.43 419.15,-51.43 426.15,-51.43"/>
</g>
<!-- 4e30e064&#45;8f64&#45;402a&#45;9dfd&#45;31b0bc6ee1c1 -->
<g id="node16" class="node">
<title>4e30e064&#45;8f64&#45;402a&#45;9dfd&#45;31b0bc6ee1c1</title>
<ellipse fill="#ffff80" stroke="black" cx="666.65" cy="-21.57" rx="100.41" ry="21.57"/>
<text text-anchor="middle" x="666.65" y="-13.82" font-family="Times New Roman,serif" font-size="20.00">IsStanding(self)</text>
</g>
<!-- 6766421d&#45;e275&#45;4a57&#45;91fd&#45;6b8ec5cc74b0&#45;&gt;4e30e064&#45;8f64&#45;402a&#45;9dfd&#45;31b0bc6ee1c1 -->
<g id="edge15" class="edge">
<title>6766421d&#45;e275&#45;4a57&#45;91fd&#45;6b8ec5cc74b0&#45;&gt;4e30e064&#45;8f64&#45;402a&#45;9dfd&#45;31b0bc6ee1c1</title>
<path fill="none" stroke="black" d="M666.65,-81.6C666.65,-73.94 666.65,-64.23 666.65,-54.9"/>
<polygon fill="black" stroke="black" points="670.15,-54.99 666.65,-44.99 663.15,-54.99 670.15,-54.99"/>
</g>
<!-- a5e0a3ce&#45;63b3&#45;413e&#45;9274&#45;4da8e4095be2 -->
<g id="node17" class="node">
<title>a5e0a3ce&#45;63b3&#45;413e&#45;9274&#45;4da8e4095be2</title>
<polygon fill="lightgreen" stroke="black" points="936.53,-39.57 784.78,-39.57 784.78,-3.57 936.53,-3.57 936.53,-39.57"/>
<text text-anchor="middle" x="860.65" y="-13.82" font-family="Times New Roman,serif" font-size="20.00">Walk(nightstand)</text>
</g>
<!-- 6766421d&#45;e275&#45;4a57&#45;91fd&#45;6b8ec5cc74b0&#45;&gt;a5e0a3ce&#45;63b3&#45;413e&#45;9274&#45;4da8e4095be2 -->
<g id="edge16" class="edge">
<title>6766421d&#45;e275&#45;4a57&#45;91fd&#45;6b8ec5cc74b0&#45;&gt;a5e0a3ce&#45;63b3&#45;413e&#45;9274&#45;4da8e4095be2</title>
<path fill="none" stroke="black" d="M685.26,-89.08C712.36,-78.8 763.86,-59.27 804.07,-44.02"/>
<polygon fill="black" stroke="black" points="805.29,-47.3 813.4,-40.49 802.81,-40.76 805.29,-47.3"/>
</g>
<!-- 3ccd7161&#45;78f2&#45;4550&#45;bc8b&#45;4b08a0e16639 -->
<g id="node19" class="node">
<title>3ccd7161&#45;78f2&#45;4550&#45;bc8b&#45;4b08a0e16639</title>
<ellipse fill="#ffff80" stroke="black" cx="708.65" cy="-172.7" rx="128.52" ry="21.57"/>
<text text-anchor="middle" x="708.65" y="-164.95" font-family="Times New Roman,serif" font-size="20.00">IsNear(self,cupcake)</text>
</g>
<!-- a3fc60b3&#45;41ac&#45;42f8&#45;9a86&#45;bf63b3bc1862&#45;&gt;3ccd7161&#45;78f2&#45;4550&#45;bc8b&#45;4b08a0e16639 -->
<g id="edge18" class="edge">
<title>a3fc60b3&#45;41ac&#45;42f8&#45;9a86&#45;bf63b3bc1862&#45;&gt;3ccd7161&#45;78f2&#45;4550&#45;bc8b&#45;4b08a0e16639</title>
<path fill="none" stroke="black" d="M1034.16,-246.69C989.91,-236.76 875.62,-211.14 795.02,-193.07"/>
<polygon fill="black" stroke="black" points="795.88,-189.67 785.36,-190.9 794.35,-196.5 795.88,-189.67"/>
</g>
<!-- a4064fa3&#45;cb6f&#45;4e6e&#45;9354&#45;ab0da26e895a -->
<g id="node20" class="node">
<title>a4064fa3&#45;cb6f&#45;4e6e&#45;9354&#45;ab0da26e895a</title>
<ellipse fill="#ffff80" stroke="black" cx="1004.65" cy="-172.7" rx="149.2" ry="21.57"/>
<text text-anchor="middle" x="1004.65" y="-164.95" font-family="Times New Roman,serif" font-size="20.00">IsRightHandEmpty(self)</text>
</g>
<!-- a3fc60b3&#45;41ac&#45;42f8&#45;9a86&#45;bf63b3bc1862&#45;&gt;a4064fa3&#45;cb6f&#45;4e6e&#45;9354&#45;ab0da26e895a -->
<g id="edge19" class="edge">
<title>a3fc60b3&#45;41ac&#45;42f8&#45;9a86&#45;bf63b3bc1862&#45;&gt;a4064fa3&#45;cb6f&#45;4e6e&#45;9354&#45;ab0da26e895a</title>
<path fill="none" stroke="black" d="M1043.63,-236.33C1038.01,-227.3 1030.58,-215.36 1023.71,-204.32"/>
<polygon fill="black" stroke="black" points="1026.68,-202.48 1018.43,-195.83 1020.74,-206.17 1026.68,-202.48"/>
</g>
<!-- 3f2b4754&#45;c902&#45;4fcd&#45;8c34&#45;0683ace50c3f -->
<g id="node21" class="node">
<title>3f2b4754&#45;c902&#45;4fcd&#45;8c34&#45;0683ace50c3f</title>
<ellipse fill="#ffff80" stroke="black" cx="1272.65" cy="-172.7" rx="100.41" ry="21.57"/>
<text text-anchor="middle" x="1272.65" y="-164.95" font-family="Times New Roman,serif" font-size="20.00">IsStanding(self)</text>
</g>
<!-- a3fc60b3&#45;41ac&#45;42f8&#45;9a86&#45;bf63b3bc1862&#45;&gt;3f2b4754&#45;c902&#45;4fcd&#45;8c34&#45;0683ace50c3f -->
<g id="edge20" class="edge">
<title>a3fc60b3&#45;41ac&#45;42f8&#45;9a86&#45;bf63b3bc1862&#45;&gt;3f2b4754&#45;c902&#45;4fcd&#45;8c34&#45;0683ace50c3f</title>
<path fill="none" stroke="black" d="M1071.03,-244.39C1101.4,-233.74 1163.41,-212 1210.68,-195.43"/>
<polygon fill="black" stroke="black" points="1211.73,-198.77 1220.01,-192.16 1209.42,-192.16 1211.73,-198.77"/>
</g>
<!-- 01d300d4&#45;3c57&#45;41a0&#45;8726&#45;6f94d67d58b1 -->
<g id="node22" class="node">
<title>01d300d4&#45;3c57&#45;41a0&#45;8726&#45;6f94d67d58b1</title>
<polygon fill="lightgreen" stroke="black" points="1568.65,-190.7 1390.65,-190.7 1390.65,-154.7 1568.65,-154.7 1568.65,-190.7"/>
<text text-anchor="middle" x="1479.65" y="-164.95" font-family="Times New Roman,serif" font-size="20.00">RightGrab(cupcake)</text>
</g>
<!-- a3fc60b3&#45;41ac&#45;42f8&#45;9a86&#45;bf63b3bc1862&#45;&gt;01d300d4&#45;3c57&#45;41a0&#45;8726&#45;6f94d67d58b1 -->
<g id="edge21" class="edge">
<title>a3fc60b3&#45;41ac&#45;42f8&#45;9a86&#45;bf63b3bc1862&#45;&gt;01d300d4&#45;3c57&#45;41a0&#45;8726&#45;6f94d67d58b1</title>
<path fill="none" stroke="black" d="M1070.99,-245.1C1086.08,-240.56 1108.09,-234.32 1127.65,-230.27 1239.3,-207.14 1269.35,-213.99 1381.65,-194.27 1383.54,-193.94 1385.44,-193.6 1387.36,-193.25"/>
<polygon fill="black" stroke="black" points="1387.78,-196.73 1396.96,-191.45 1386.49,-189.85 1387.78,-196.73"/>
</g>
<!-- 4a895acf&#45;b83b&#45;476c&#45;bb49&#45;5b7188f29f82 -->
<g id="node24" class="node">
<title>4a895acf&#45;b83b&#45;476c&#45;bb49&#45;5b7188f29f82</title>
<ellipse fill="#ffff80" stroke="black" cx="1285.65" cy="-251.83" rx="149.2" ry="21.57"/>
<text text-anchor="middle" x="1285.65" y="-244.08" font-family="Times New Roman,serif" font-size="20.00">IsRightHandEmpty(self)</text>
</g>
<!-- 8d854e5a&#45;d1a1&#45;4155&#45;a79e&#45;15d7fcbfb590&#45;&gt;4a895acf&#45;b83b&#45;476c&#45;bb49&#45;5b7188f29f82 -->
<g id="edge23" class="edge">
<title>8d854e5a&#45;d1a1&#45;4155&#45;a79e&#45;15d7fcbfb590&#45;&gt;4a895acf&#45;b83b&#45;476c&#45;bb49&#45;5b7188f29f82</title>
<path fill="none" stroke="black" d="M1535.23,-318.78C1500.94,-309.72 1425.45,-289.77 1366.41,-274.17"/>
<polygon fill="black" stroke="black" points="1367.62,-270.87 1357.06,-271.7 1365.83,-277.64 1367.62,-270.87"/>
</g>
<!-- 2a643109&#45;5ed6&#45;4907&#45;992a&#45;970b304386cc -->
<g id="node25" class="node">
<title>2a643109&#45;5ed6&#45;4907&#45;992a&#45;970b304386cc</title>
<ellipse fill="#ffff80" stroke="black" cx="1553.65" cy="-251.83" rx="100.41" ry="21.57"/>
<text text-anchor="middle" x="1553.65" y="-244.08" font-family="Times New Roman,serif" font-size="20.00">IsStanding(self)</text>
</g>
<!-- 8d854e5a&#45;d1a1&#45;4155&#45;a79e&#45;15d7fcbfb590&#45;&gt;2a643109&#45;5ed6&#45;4907&#45;992a&#45;970b304386cc -->
<g id="edge24" class="edge">
<title>8d854e5a&#45;d1a1&#45;4155&#45;a79e&#45;15d7fcbfb590&#45;&gt;2a643109&#45;5ed6&#45;4907&#45;992a&#45;970b304386cc</title>
<path fill="none" stroke="black" d="M1553.65,-308.98C1553.65,-302.04 1553.65,-293.46 1553.65,-285.11"/>
<polygon fill="black" stroke="black" points="1557.15,-285.18 1553.65,-275.18 1550.15,-285.18 1557.15,-285.18"/>
</g>
<!-- f6eb8fb3&#45;3f4d&#45;4647&#45;86db&#45;6b08efda4d44 -->
<g id="node26" class="node">
<title>f6eb8fb3&#45;3f4d&#45;4647&#45;86db&#45;6b08efda4d44</title>
<polygon fill="lightgreen" stroke="black" points="1807.65,-269.83 1671.65,-269.83 1671.65,-233.83 1807.65,-233.83 1807.65,-269.83"/>
<text text-anchor="middle" x="1739.65" y="-244.08" font-family="Times New Roman,serif" font-size="20.00">Walk(cupcake)</text>
</g>
<!-- 8d854e5a&#45;d1a1&#45;4155&#45;a79e&#45;15d7fcbfb590&#45;&gt;f6eb8fb3&#45;3f4d&#45;4647&#45;86db&#45;6b08efda4d44 -->
<g id="edge25" class="edge">
<title>8d854e5a&#45;d1a1&#45;4155&#45;a79e&#45;15d7fcbfb590&#45;&gt;f6eb8fb3&#45;3f4d&#45;4647&#45;86db&#45;6b08efda4d44</title>
<path fill="none" stroke="black" d="M1572.17,-316.6C1597.87,-306.82 1645.47,-288.69 1683.38,-274.26"/>
<polygon fill="black" stroke="black" points="1684.27,-277.66 1692.37,-270.84 1681.78,-271.12 1684.27,-277.66"/>
</g>
<!-- 17d3b656&#45;4030&#45;416f&#45;8648&#45;901e9b77de2b -->
<g id="node28" class="node">
<title>17d3b656&#45;4030&#45;416f&#45;8648&#45;901e9b77de2b</title>
<ellipse fill="#ffff80" stroke="black" cx="1745.65" cy="-397.47" rx="100.41" ry="21.57"/>
<text text-anchor="middle" x="1745.65" y="-389.72" font-family="Times New Roman,serif" font-size="20.00">IsStanding(self)</text>
</g>
<!-- bda4945e&#45;95d7&#45;4e7b&#45;9ec2&#45;e9d8475ece60&#45;&gt;17d3b656&#45;4030&#45;416f&#45;8648&#45;901e9b77de2b -->
<g id="edge27" class="edge">
<title>bda4945e&#45;95d7&#45;4e7b&#45;9ec2&#45;e9d8475ece60&#45;&gt;17d3b656&#45;4030&#45;416f&#45;8648&#45;901e9b77de2b</title>
<path fill="none" stroke="black" d="M1745.65,-454.61C1745.65,-447.67 1745.65,-439.09 1745.65,-430.75"/>
<polygon fill="black" stroke="black" points="1749.15,-430.81 1745.65,-420.81 1742.15,-430.81 1749.15,-430.81"/>
</g>
<!-- c1b82ce0&#45;ea81&#45;4b0b&#45;8586&#45;cec97b1d8fae -->
<g id="node29" class="node">
<title>c1b82ce0&#45;ea81&#45;4b0b&#45;8586&#45;cec97b1d8fae</title>
<polygon fill="#b0ffff" stroke="black" points="2048.4,-412.72 2012.9,-412.72 2012.9,-382.22 2048.4,-382.22 2048.4,-412.72"/>
<text text-anchor="middle" x="2030.65" y="-389.72" font-family="Times New Roman,serif" font-size="20.00"> ? </text>
</g>
<!-- bda4945e&#45;95d7&#45;4e7b&#45;9ec2&#45;e9d8475ece60&#45;&gt;c1b82ce0&#45;ea81&#45;4b0b&#45;8586&#45;cec97b1d8fae -->
<g id="edge28" class="edge">
<title>bda4945e&#45;95d7&#45;4e7b&#45;9ec2&#45;e9d8475ece60&#45;&gt;c1b82ce0&#45;ea81&#45;4b0b&#45;8586&#45;cec97b1d8fae</title>
<path fill="none" stroke="black" d="M1763.92,-464.75C1812.07,-452.78 1942.84,-420.29 2001.5,-405.71"/>
<polygon fill="black" stroke="black" points="2002.21,-409.14 2011.08,-403.33 2000.53,-402.35 2002.21,-409.14"/>
</g>
<!-- ef4b87b5&#45;51b9&#45;450c&#45;a398&#45;f1f9b77e6f8a -->
<g id="node30" class="node">
<title>ef4b87b5&#45;51b9&#45;450c&#45;a398&#45;f1f9b77e6f8a</title>
<polygon fill="#b0ffff" stroke="black" points="2048.4,-339.9 2012.9,-339.9 2012.9,-309.4 2048.4,-309.4 2048.4,-339.9"/>
<text text-anchor="middle" x="2030.65" y="-316.9" font-family="Times New Roman,serif" font-size="20.00"> ? </text>
</g>
<!-- c1b82ce0&#45;ea81&#45;4b0b&#45;8586&#45;cec97b1d8fae&#45;&gt;ef4b87b5&#45;51b9&#45;450c&#45;a398&#45;f1f9b77e6f8a -->
<g id="edge29" class="edge">
<title>c1b82ce0&#45;ea81&#45;4b0b&#45;8586&#45;cec97b1d8fae&#45;&gt;ef4b87b5&#45;51b9&#45;450c&#45;a398&#45;f1f9b77e6f8a</title>
<path fill="none" stroke="black" d="M2030.65,-381.79C2030.65,-373.06 2030.65,-361.72 2030.65,-351.53"/>
<polygon fill="black" stroke="black" points="2034.15,-351.82 2030.65,-341.82 2027.15,-351.82 2034.15,-351.82"/>
</g>
<!-- 44741621&#45;9a46&#45;44f3&#45;9951&#45;f83165194954 -->
<g id="node42" class="node">
<title>44741621&#45;9a46&#45;44f3&#45;9951&#45;f83165194954</title>
<polygon fill="#ff8080" stroke="black" points="2326.78,-339.9 2290.53,-339.9 2290.53,-309.4 2326.78,-309.4 2326.78,-339.9"/>
<text text-anchor="middle" x="2308.65" y="-316.9" font-family="Times New Roman,serif" font-size="20.00">→</text>
</g>
<!-- c1b82ce0&#45;ea81&#45;4b0b&#45;8586&#45;cec97b1d8fae&#45;&gt;44741621&#45;9a46&#45;44f3&#45;9951&#45;f83165194954 -->
<g id="edge41" class="edge">
<title>c1b82ce0&#45;ea81&#45;4b0b&#45;8586&#45;cec97b1d8fae&#45;&gt;44741621&#45;9a46&#45;44f3&#45;9951&#45;f83165194954</title>
<path fill="none" stroke="black" d="M2048.89,-391.82C2096.02,-379.82 2222.14,-347.69 2279.52,-333.07"/>
<polygon fill="black" stroke="black" points="2280.05,-336.55 2288.88,-330.69 2278.32,-329.76 2280.05,-336.55"/>
</g>
<!-- cff500e6&#45;beee&#45;44fa&#45;ae03&#45;fa97dda18a52 -->
<g id="node31" class="node">
<title>cff500e6&#45;beee&#45;44fa&#45;ae03&#45;fa97dda18a52</title>
<polygon fill="#ff8080" stroke="black" points="1956.78,-267.08 1920.53,-267.08 1920.53,-236.58 1956.78,-236.58 1956.78,-267.08"/>
<text text-anchor="middle" x="1938.65" y="-244.08" font-family="Times New Roman,serif" font-size="20.00">→</text>
</g>
<!-- ef4b87b5&#45;51b9&#45;450c&#45;a398&#45;f1f9b77e6f8a&#45;&gt;cff500e6&#45;beee&#45;44fa&#45;ae03&#45;fa97dda18a52 -->
<g id="edge30" class="edge">
<title>ef4b87b5&#45;51b9&#45;450c&#45;a398&#45;f1f9b77e6f8a&#45;&gt;cff500e6&#45;beee&#45;44fa&#45;ae03&#45;fa97dda18a52</title>
<path fill="none" stroke="black" d="M2012.48,-309.66C1999.21,-299.44 1980.99,-285.42 1965.97,-273.86"/>
<polygon fill="black" stroke="black" points="1968.37,-271.29 1958.31,-267.96 1964.1,-276.83 1968.37,-271.29"/>
</g>
<!-- 396898a6&#45;6984&#45;4ed5&#45;b6cb&#45;11f4d57ef21e -->
<g id="node38" class="node">
<title>396898a6&#45;6984&#45;4ed5&#45;b6cb&#45;11f4d57ef21e</title>
<polygon fill="#ff8080" stroke="black" points="2141.78,-267.08 2105.53,-267.08 2105.53,-236.58 2141.78,-236.58 2141.78,-267.08"/>
<text text-anchor="middle" x="2123.65" y="-244.08" font-family="Times New Roman,serif" font-size="20.00">→</text>
</g>
<!-- ef4b87b5&#45;51b9&#45;450c&#45;a398&#45;f1f9b77e6f8a&#45;&gt;396898a6&#45;6984&#45;4ed5&#45;b6cb&#45;11f4d57ef21e -->
<g id="edge37" class="edge">
<title>ef4b87b5&#45;51b9&#45;450c&#45;a398&#45;f1f9b77e6f8a&#45;&gt;396898a6&#45;6984&#45;4ed5&#45;b6cb&#45;11f4d57ef21e</title>
<path fill="none" stroke="black" d="M2048.58,-310C2062.05,-299.74 2080.73,-285.52 2096.08,-273.83"/>
<polygon fill="black" stroke="black" points="2098.1,-276.69 2103.94,-267.85 2093.86,-271.12 2098.1,-276.69"/>
</g>
<!-- e69382ff&#45;08ed&#45;4f6c&#45;b593&#45;657af88386ab -->
<g id="node32" class="node">
<title>e69382ff&#45;08ed&#45;4f6c&#45;b593&#45;657af88386ab</title>
<ellipse fill="#ffff80" stroke="black" cx="1744.65" cy="-172.7" rx="158.22" ry="21.57"/>
<text text-anchor="middle" x="1744.65" y="-164.95" font-family="Times New Roman,serif" font-size="20.00">IsRightHolding(self,book)</text>
</g>
<!-- cff500e6&#45;beee&#45;44fa&#45;ae03&#45;fa97dda18a52&#45;&gt;e69382ff&#45;08ed&#45;4f6c&#45;b593&#45;657af88386ab -->
<g id="edge31" class="edge">
<title>cff500e6&#45;beee&#45;44fa&#45;ae03&#45;fa97dda18a52&#45;&gt;e69382ff&#45;08ed&#45;4f6c&#45;b593&#45;657af88386ab</title>
<path fill="none" stroke="black" d="M1920.05,-243.44C1893.82,-233.01 1844.73,-213.49 1805.14,-197.75"/>
<polygon fill="black" stroke="black" points="1806.51,-194.53 1795.92,-194.08 1803.92,-201.03 1806.51,-194.53"/>
</g>
<!-- 2e3a568d&#45;1ac7&#45;4db9&#45;a6a4&#45;0f8151d26a4a -->
<g id="node33" class="node">
<title>2e3a568d&#45;1ac7&#45;4db9&#45;a6a4&#45;0f8151d26a4a</title>
<polygon fill="#b0ffff" stroke="black" points="1956.4,-187.95 1920.9,-187.95 1920.9,-157.45 1956.4,-157.45 1956.4,-187.95"/>
<text text-anchor="middle" x="1938.65" y="-164.95" font-family="Times New Roman,serif" font-size="20.00"> ? </text>
</g>
<!-- cff500e6&#45;beee&#45;44fa&#45;ae03&#45;fa97dda18a52&#45;&gt;2e3a568d&#45;1ac7&#45;4db9&#45;a6a4&#45;0f8151d26a4a -->
<g id="edge32" class="edge">
<title>cff500e6&#45;beee&#45;44fa&#45;ae03&#45;fa97dda18a52&#45;&gt;2e3a568d&#45;1ac7&#45;4db9&#45;a6a4&#45;0f8151d26a4a</title>
<path fill="none" stroke="black" d="M1938.65,-236.33C1938.65,-226.05 1938.65,-211.98 1938.65,-199.77"/>
<polygon fill="black" stroke="black" points="1942.15,-199.92 1938.65,-189.92 1935.15,-199.92 1942.15,-199.92"/>
</g>
<!-- 08ef55c1&#45;47e5&#45;42a6&#45;b344&#45;7b37d1214fba -->
<g id="node34" class="node">
<title>08ef55c1&#45;47e5&#45;42a6&#45;b344&#45;7b37d1214fba</title>
<polygon fill="#ff8080" stroke="black" points="1900.78,-112.38 1864.53,-112.38 1864.53,-81.88 1900.78,-81.88 1900.78,-112.38"/>
<text text-anchor="middle" x="1882.65" y="-89.38" font-family="Times New Roman,serif" font-size="20.00">→</text>
</g>
<!-- 2e3a568d&#45;1ac7&#45;4db9&#45;a6a4&#45;0f8151d26a4a&#45;&gt;08ef55c1&#45;47e5&#45;42a6&#45;b344&#45;7b37d1214fba -->
<g id="edge33" class="edge">
<title>2e3a568d&#45;1ac7&#45;4db9&#45;a6a4&#45;0f8151d26a4a&#45;&gt;08ef55c1&#45;47e5&#45;42a6&#45;b344&#45;7b37d1214fba</title>
<path fill="none" stroke="black" d="M1927.59,-157.17C1919.84,-146.99 1909.33,-133.17 1900.41,-121.47"/>
<polygon fill="black" stroke="black" points="1903.45,-119.68 1894.61,-113.84 1897.88,-123.92 1903.45,-119.68"/>
</g>
<!-- 919b48b6&#45;c526&#45;40e5&#45;bd47&#45;6f1a16864ddd -->
<g id="node37" class="node">
<title>919b48b6&#45;c526&#45;40e5&#45;bd47&#45;6f1a16864ddd</title>
<polygon fill="lightgreen" stroke="black" points="2070.53,-115.13 1918.78,-115.13 1918.78,-79.13 2070.53,-79.13 2070.53,-115.13"/>
<text text-anchor="middle" x="1994.65" y="-89.38" font-family="Times New Roman,serif" font-size="20.00">Walk(nightstand)</text>
</g>
<!-- 2e3a568d&#45;1ac7&#45;4db9&#45;a6a4&#45;0f8151d26a4a&#45;&gt;919b48b6&#45;c526&#45;40e5&#45;bd47&#45;6f1a16864ddd -->
<g id="edge36" class="edge">
<title>2e3a568d&#45;1ac7&#45;4db9&#45;a6a4&#45;0f8151d26a4a&#45;&gt;919b48b6&#45;c526&#45;40e5&#45;bd47&#45;6f1a16864ddd</title>
<path fill="none" stroke="black" d="M1949.72,-157.17C1956.84,-147.81 1966.3,-135.38 1974.71,-124.33"/>
<polygon fill="black" stroke="black" points="1977.26,-126.77 1980.53,-116.69 1971.69,-122.53 1977.26,-126.77"/>
</g>
<!-- b024828c&#45;e1ce&#45;474f&#45;854c&#45;69baacd52d31 -->
<g id="node35" class="node">
<title>b024828c&#45;e1ce&#45;474f&#45;854c&#45;69baacd52d31</title>
<ellipse fill="#ffff80" stroke="black" cx="1747.65" cy="-21.57" rx="139.65" ry="21.57"/>
<text text-anchor="middle" x="1747.65" y="-13.82" font-family="Times New Roman,serif" font-size="20.00">IsNear(self,nightstand)</text>
</g>
<!-- 08ef55c1&#45;47e5&#45;42a6&#45;b344&#45;7b37d1214fba&#45;&gt;b024828c&#45;e1ce&#45;474f&#45;854c&#45;69baacd52d31 -->
<g id="edge34" class="edge">
<title>08ef55c1&#45;47e5&#45;42a6&#45;b344&#45;7b37d1214fba&#45;&gt;b024828c&#45;e1ce&#45;474f&#45;854c&#45;69baacd52d31</title>
<path fill="none" stroke="black" d="M1864.17,-86.06C1846.35,-76.35 1818.64,-61.25 1794.72,-48.21"/>
<polygon fill="black" stroke="black" points="1796.52,-45.21 1786.07,-43.5 1793.17,-51.36 1796.52,-45.21"/>
</g>
<!-- 373e5ec8&#45;4deb&#45;4d47&#45;a6d1&#45;5db8644e1899 -->
<g id="node36" class="node">
<title>373e5ec8&#45;4deb&#45;4d47&#45;a6d1&#45;5db8644e1899</title>
<polygon fill="lightgreen" stroke="black" points="2129.9,-39.57 1905.4,-39.57 1905.4,-3.57 2129.9,-3.57 2129.9,-39.57"/>
<text text-anchor="middle" x="2017.65" y="-13.82" font-family="Times New Roman,serif" font-size="20.00">RightPut(book,nightstand)</text>
</g>
<!-- 08ef55c1&#45;47e5&#45;42a6&#45;b344&#45;7b37d1214fba&#45;&gt;373e5ec8&#45;4deb&#45;4d47&#45;a6d1&#45;5db8644e1899 -->
<g id="edge35" class="edge">
<title>08ef55c1&#45;47e5&#45;42a6&#45;b344&#45;7b37d1214fba&#45;&gt;373e5ec8&#45;4deb&#45;4d47&#45;a6d1&#45;5db8644e1899</title>
<path fill="none" stroke="black" d="M1901.13,-84.23C1903.96,-82.48 1906.87,-80.74 1909.65,-79.13 1930.02,-67.41 1953.04,-55.21 1972.58,-45.16"/>
<polygon fill="black" stroke="black" points="1974.08,-48.32 1981.39,-40.65 1970.9,-42.09 1974.08,-48.32"/>
</g>
<!-- 68a49011&#45;0818&#45;4901&#45;94bb&#45;100c517f45a9 -->
<g id="node39" class="node">
<title>68a49011&#45;0818&#45;4901&#45;94bb&#45;100c517f45a9</title>
<ellipse fill="#ffff80" stroke="black" cx="2123.65" cy="-172.7" rx="149.2" ry="21.57"/>
<text text-anchor="middle" x="2123.65" y="-164.95" font-family="Times New Roman,serif" font-size="20.00">IsRightHandEmpty(self)</text>
</g>
<!-- 396898a6&#45;6984&#45;4ed5&#45;b6cb&#45;11f4d57ef21e&#45;&gt;68a49011&#45;0818&#45;4901&#45;94bb&#45;100c517f45a9 -->
<g id="edge38" class="edge">
<title>396898a6&#45;6984&#45;4ed5&#45;b6cb&#45;11f4d57ef21e&#45;&gt;68a49011&#45;0818&#45;4901&#45;94bb&#45;100c517f45a9</title>
<path fill="none" stroke="black" d="M2123.65,-236.33C2123.65,-227.76 2123.65,-216.57 2123.65,-206.02"/>
<polygon fill="black" stroke="black" points="2127.15,-206.06 2123.65,-196.06 2120.15,-206.06 2127.15,-206.06"/>
</g>
<!-- 126769f6&#45;b475&#45;4227&#45;a4f3&#45;c14f199f4b01 -->
<g id="node40" class="node">
<title>126769f6&#45;b475&#45;4227&#45;a4f3&#45;c14f199f4b01</title>
<ellipse fill="#ffff80" stroke="black" cx="2400.65" cy="-172.7" rx="109.96" ry="21.57"/>
<text text-anchor="middle" x="2400.65" y="-164.95" font-family="Times New Roman,serif" font-size="20.00">IsNear(self,book)</text>
</g>
<!-- 396898a6&#45;6984&#45;4ed5&#45;b6cb&#45;11f4d57ef21e&#45;&gt;126769f6&#45;b475&#45;4227&#45;a4f3&#45;c14f199f4b01 -->
<g id="edge39" class="edge">
<title>396898a6&#45;6984&#45;4ed5&#45;b6cb&#45;11f4d57ef21e&#45;&gt;126769f6&#45;b475&#45;4227&#45;a4f3&#45;c14f199f4b01</title>
<path fill="none" stroke="black" d="M2140.67,-236.17C2143.84,-233.95 2147.24,-231.86 2150.65,-230.27 2178.79,-217.13 2250.55,-201.51 2310.01,-190.01"/>
<polygon fill="black" stroke="black" points="2310.31,-193.52 2319.47,-188.2 2308.99,-186.64 2310.31,-193.52"/>
</g>
<!-- f2885a7d&#45;ee8c&#45;4976&#45;9c42&#45;fe7203eadc11 -->
<g id="node41" class="node">
<title>f2885a7d&#45;ee8c&#45;4976&#45;9c42&#45;fe7203eadc11</title>
<polygon fill="lightgreen" stroke="black" points="2680.53,-190.7 2528.78,-190.7 2528.78,-154.7 2680.53,-154.7 2680.53,-190.7"/>
<text text-anchor="middle" x="2604.65" y="-164.95" font-family="Times New Roman,serif" font-size="20.00">RightGrab(book)</text>
</g>
<!-- 396898a6&#45;6984&#45;4ed5&#45;b6cb&#45;11f4d57ef21e&#45;&gt;f2885a7d&#45;ee8c&#45;4976&#45;9c42&#45;fe7203eadc11 -->
<g id="edge40" class="edge">
<title>396898a6&#45;6984&#45;4ed5&#45;b6cb&#45;11f4d57ef21e&#45;&gt;f2885a7d&#45;ee8c&#45;4976&#45;9c42&#45;fe7203eadc11</title>
<path fill="none" stroke="black" d="M2139.92,-236.22C2143.27,-233.87 2146.92,-231.73 2150.65,-230.27 2304.04,-170.05 2357.18,-221.71 2519.65,-194.27 2521.42,-193.97 2523.21,-193.65 2525.01,-193.32"/>
<polygon fill="black" stroke="black" points="2525.54,-196.79 2534.68,-191.43 2524.19,-189.92 2525.54,-196.79"/>
</g>
<!-- cf39649f&#45;b450&#45;4d32&#45;b368&#45;303ad4772087 -->
<g id="node43" class="node">
<title>cf39649f&#45;b450&#45;4d32&#45;b368&#45;303ad4772087</title>
<ellipse fill="#ffff80" stroke="black" cx="2308.65" cy="-251.83" rx="149.2" ry="21.57"/>
<text text-anchor="middle" x="2308.65" y="-244.08" font-family="Times New Roman,serif" font-size="20.00">IsRightHandEmpty(self)</text>
</g>
<!-- 44741621&#45;9a46&#45;44f3&#45;9951&#45;f83165194954&#45;&gt;cf39649f&#45;b450&#45;4d32&#45;b368&#45;303ad4772087 -->
<g id="edge42" class="edge">
<title>44741621&#45;9a46&#45;44f3&#45;9951&#45;f83165194954&#45;&gt;cf39649f&#45;b450&#45;4d32&#45;b368&#45;303ad4772087</title>
<path fill="none" stroke="black" d="M2308.65,-308.98C2308.65,-302.04 2308.65,-293.46 2308.65,-285.11"/>
<polygon fill="black" stroke="black" points="2312.15,-285.18 2308.65,-275.18 2305.15,-285.18 2312.15,-285.18"/>
</g>
<!-- acfa7661&#45;fcd0&#45;4a20&#45;b58f&#45;0572c621651f -->
<g id="node44" class="node">
<title>acfa7661&#45;fcd0&#45;4a20&#45;b58f&#45;0572c621651f</title>
<polygon fill="lightgreen" stroke="black" points="2585.53,-269.83 2475.78,-269.83 2475.78,-233.83 2585.53,-233.83 2585.53,-269.83"/>
<text text-anchor="middle" x="2530.65" y="-244.08" font-family="Times New Roman,serif" font-size="20.00">Walk(book)</text>
</g>
<!-- 44741621&#45;9a46&#45;44f3&#45;9951&#45;f83165194954&#45;&gt;acfa7661&#45;fcd0&#45;4a20&#45;b58f&#45;0572c621651f -->
<g id="edge43" class="edge">
<title>44741621&#45;9a46&#45;44f3&#45;9951&#45;f83165194954&#45;&gt;acfa7661&#45;fcd0&#45;4a20&#45;b58f&#45;0572c621651f</title>
<path fill="none" stroke="black" d="M2327.15,-317.79C2354.87,-309 2409.1,-291.78 2465.59,-273.74"/>
<polygon fill="black" stroke="black" points="2466.63,-277.08 2475.09,-270.7 2464.5,-270.41 2466.63,-277.08"/>
</g>
</g>
</svg>
