<?xml version="1.0" encoding="UTF-8" standalone="no"?>
<!DOCTYPE svg PUBLIC "-//W3C//DTD SVG 1.1//EN"
 "http://www.w3.org/Graphics/SVG/1.1/DTD/svg11.dtd">
<!-- Generated by graphviz version 12.1.0 (20240811.2233)
 -->
<!-- Title: pastafarianism Pages: 1 -->
<svg width="1035pt" height="342pt"
 viewBox="0.00 0.00 1035.40 342.40" xmlns="http://www.w3.org/2000/svg" xmlns:xlink="http://www.w3.org/1999/xlink">
<g id="graph0" class="graph" transform="scale(1 1) rotate(0) translate(4 338.4)">
<title>pastafarianism</title>
<polygon fill="white" stroke="none" points="-4,4 -4,-338.4 1031.4,-338.4 1031.4,4 -4,4"/>
<!-- 21be7bbf&#45;e0d1&#45;43b6&#45;ace1&#45;7f21a069f2f2 -->
<g id="node1" class="node">
<title>21be7bbf&#45;e0d1&#45;43b6&#45;ace1&#45;7f21a069f2f2</title>
<polygon fill="#b0ffff" stroke="black" points="386.52,-334.4 351.02,-334.4 351.02,-303.9 386.52,-303.9 386.52,-334.4"/>
<text text-anchor="middle" x="368.77" y="-311.4" font-family="Times New Roman,serif" font-size="20.00"> ? </text>
</g>
<!-- c1a287f0&#45;f044&#45;4760&#45;9ca3&#45;6952fdd5e84d -->
<g id="node2" class="node">
<title>c1a287f0&#45;f044&#45;4760&#45;9ca3&#45;6952fdd5e84d</title>
<ellipse fill="#ffff80" stroke="black" cx="281.77" cy="-246.33" rx="139.12" ry="21.57"/>
<text text-anchor="middle" x="281.77" y="-238.58" font-family="Times New Roman,serif" font-size="20.00">IsPlugged(microwave)</text>
</g>
<!-- 21be7bbf&#45;e0d1&#45;43b6&#45;ace1&#45;7f21a069f2f2&#45;&gt;c1a287f0&#45;f044&#45;4760&#45;9ca3&#45;6952fdd5e84d -->
<g id="edge1" class="edge">
<title>21be7bbf&#45;e0d1&#45;43b6&#45;ace1&#45;7f21a069f2f2&#45;&gt;c1a287f0&#45;f044&#45;4760&#45;9ca3&#45;6952fdd5e84d</title>
<path fill="none" stroke="black" d="M350.75,-303.48C340.67,-295.28 327.79,-284.79 315.88,-275.1"/>
<polygon fill="black" stroke="black" points="318.17,-272.45 308.21,-268.85 313.76,-277.88 318.17,-272.45"/>
</g>
<!-- f4a5bacd&#45;8d90&#45;4e9c&#45;b443&#45;2019a9f303e7 -->
<g id="node3" class="node">
<title>f4a5bacd&#45;8d90&#45;4e9c&#45;b443&#45;2019a9f303e7</title>
<polygon fill="#ff8080" stroke="black" points="474.9,-261.58 438.65,-261.58 438.65,-231.08 474.9,-231.08 474.9,-261.58"/>
<text text-anchor="middle" x="456.77" y="-238.58" font-family="Times New Roman,serif" font-size="20.00">→</text>
</g>
<!-- 21be7bbf&#45;e0d1&#45;43b6&#45;ace1&#45;7f21a069f2f2&#45;&gt;f4a5bacd&#45;8d90&#45;4e9c&#45;b443&#45;2019a9f303e7 -->
<g id="edge2" class="edge">
<title>21be7bbf&#45;e0d1&#45;43b6&#45;ace1&#45;7f21a069f2f2&#45;&gt;f4a5bacd&#45;8d90&#45;4e9c&#45;b443&#45;2019a9f303e7</title>
<path fill="none" stroke="black" d="M387.01,-303.48C399.4,-293.51 415.99,-280.15 429.89,-268.97"/>
<polygon fill="black" stroke="black" points="431.79,-271.93 437.39,-262.94 427.4,-266.48 431.79,-271.93"/>
</g>
<!-- 3b93fb67&#45;0a8d&#45;4223&#45;8748&#45;92f06d965334 -->
<g id="node4" class="node">
<title>3b93fb67&#45;0a8d&#45;4223&#45;8748&#45;92f06d965334</title>
<ellipse fill="#ffff80" stroke="black" cx="141.77" cy="-167.2" rx="141.77" ry="21.57"/>
<text text-anchor="middle" x="141.77" y="-159.45" font-family="Times New Roman,serif" font-size="20.00">IsLeftHandEmpty(self)</text>
</g>
<!-- f4a5bacd&#45;8d90&#45;4e9c&#45;b443&#45;2019a9f303e7&#45;&gt;3b93fb67&#45;0a8d&#45;4223&#45;8748&#45;92f06d965334 -->
<g id="edge3" class="edge">
<title>f4a5bacd&#45;8d90&#45;4e9c&#45;b443&#45;2019a9f303e7&#45;&gt;3b93fb67&#45;0a8d&#45;4223&#45;8748&#45;92f06d965334</title>
<path fill="none" stroke="black" d="M439.8,-230.59C436.62,-228.37 433.21,-226.31 429.77,-224.77 398.35,-210.64 319.77,-195.66 252.62,-184.66"/>
<polygon fill="black" stroke="black" points="253.44,-181.25 243.01,-183.1 252.32,-188.16 253.44,-181.25"/>
</g>
<!-- 3b717ea4&#45;826e&#45;4d26&#45;ad80&#45;7cf09a37e53c -->
<g id="node5" class="node">
<title>3b717ea4&#45;826e&#45;4d26&#45;ad80&#45;7cf09a37e53c</title>
<ellipse fill="#ffff80" stroke="black" cx="456.77" cy="-167.2" rx="155.03" ry="21.57"/>
<text text-anchor="middle" x="456.77" y="-159.45" font-family="Times New Roman,serif" font-size="20.00">IsUnplugged(microwave)</text>
</g>
<!-- f4a5bacd&#45;8d90&#45;4e9c&#45;b443&#45;2019a9f303e7&#45;&gt;3b717ea4&#45;826e&#45;4d26&#45;ad80&#45;7cf09a37e53c -->
<g id="edge4" class="edge">
<title>f4a5bacd&#45;8d90&#45;4e9c&#45;b443&#45;2019a9f303e7&#45;&gt;3b717ea4&#45;826e&#45;4d26&#45;ad80&#45;7cf09a37e53c</title>
<path fill="none" stroke="black" d="M456.77,-230.83C456.77,-222.26 456.77,-211.07 456.77,-200.52"/>
<polygon fill="black" stroke="black" points="460.28,-200.56 456.77,-190.56 453.28,-200.56 460.28,-200.56"/>
</g>
<!-- 222aeedf&#45;e9ee&#45;45fd&#45;9d65&#45;de845463c8de -->
<g id="node6" class="node">
<title>222aeedf&#45;e9ee&#45;45fd&#45;9d65&#45;de845463c8de</title>
<polygon fill="#b0ffff" stroke="black" points="665.52,-182.45 630.02,-182.45 630.02,-151.95 665.52,-151.95 665.52,-182.45"/>
<text text-anchor="middle" x="647.77" y="-159.45" font-family="Times New Roman,serif" font-size="20.00"> ? </text>
</g>
<!-- f4a5bacd&#45;8d90&#45;4e9c&#45;b443&#45;2019a9f303e7&#45;&gt;222aeedf&#45;e9ee&#45;45fd&#45;9d65&#45;de845463c8de -->
<g id="edge5" class="edge">
<title>f4a5bacd&#45;8d90&#45;4e9c&#45;b443&#45;2019a9f303e7&#45;&gt;222aeedf&#45;e9ee&#45;45fd&#45;9d65&#45;de845463c8de</title>
<path fill="none" stroke="black" d="M475.27,-241.01C504.73,-233.72 563.91,-217.35 620.21,-188.16"/>
<polygon fill="black" stroke="black" points="621.8,-191.27 628.97,-183.47 618.5,-185.1 621.8,-191.27"/>
</g>
<!-- 6588e98a&#45;f616&#45;4bfd&#45;b815&#45;862dff622eb3 -->
<g id="node7" class="node">
<title>6588e98a&#45;f616&#45;4bfd&#45;b815&#45;862dff622eb3</title>
<polygon fill="#ff8080" stroke="black" points="563.9,-109.63 527.65,-109.63 527.65,-79.13 563.9,-79.13 563.9,-109.63"/>
<text text-anchor="middle" x="545.77" y="-86.63" font-family="Times New Roman,serif" font-size="20.00">→</text>
</g>
<!-- 222aeedf&#45;e9ee&#45;45fd&#45;9d65&#45;de845463c8de&#45;&gt;6588e98a&#45;f616&#45;4bfd&#45;b815&#45;862dff622eb3 -->
<g id="edge6" class="edge">
<title>222aeedf&#45;e9ee&#45;45fd&#45;9d65&#45;de845463c8de&#45;&gt;6588e98a&#45;f616&#45;4bfd&#45;b815&#45;862dff622eb3</title>
<path fill="none" stroke="black" d="M629.59,-152.11C626.66,-149.91 623.65,-147.69 620.77,-145.63 605.34,-134.6 587.73,-122.76 573.45,-113.35"/>
<polygon fill="black" stroke="black" points="575.72,-110.65 565.44,-108.09 571.88,-116.5 575.72,-110.65"/>
</g>
<!-- 8340b70d&#45;d589&#45;4f55&#45;9d88&#45;cba7d00bedb3 -->
<g id="node10" class="node">
<title>8340b70d&#45;d589&#45;4f55&#45;9d88&#45;cba7d00bedb3</title>
<polygon fill="#ff8080" stroke="black" points="767.9,-109.63 731.65,-109.63 731.65,-79.13 767.9,-79.13 767.9,-109.63"/>
<text text-anchor="middle" x="749.77" y="-86.63" font-family="Times New Roman,serif" font-size="20.00">→</text>
</g>
<!-- 222aeedf&#45;e9ee&#45;45fd&#45;9d65&#45;de845463c8de&#45;&gt;8340b70d&#45;d589&#45;4f55&#45;9d88&#45;cba7d00bedb3 -->
<g id="edge9" class="edge">
<title>222aeedf&#45;e9ee&#45;45fd&#45;9d65&#45;de845463c8de&#45;&gt;8340b70d&#45;d589&#45;4f55&#45;9d88&#45;cba7d00bedb3</title>
<path fill="none" stroke="black" d="M666.01,-153.54C681.58,-142.73 704.21,-127.02 722.03,-114.65"/>
<polygon fill="black" stroke="black" points="723.89,-117.61 730.11,-109.04 719.9,-111.86 723.89,-117.61"/>
</g>
<!-- f43fae2e&#45;d32e&#45;486f&#45;b2a2&#45;9901bd8ac5c6 -->
<g id="node8" class="node">
<title>f43fae2e&#45;d32e&#45;486f&#45;b2a2&#45;9901bd8ac5c6</title>
<ellipse fill="#ffff80" stroke="black" cx="297.77" cy="-21.57" rx="144.96" ry="21.57"/>
<text text-anchor="middle" x="297.77" y="-13.82" font-family="Times New Roman,serif" font-size="20.00">IsNear(self,microwave)</text>
</g>
<!-- 6588e98a&#45;f616&#45;4bfd&#45;b815&#45;862dff622eb3&#45;&gt;f43fae2e&#45;d32e&#45;486f&#45;b2a2&#45;9901bd8ac5c6 -->
<g id="edge7" class="edge">
<title>6588e98a&#45;f616&#45;4bfd&#45;b815&#45;862dff622eb3&#45;&gt;f43fae2e&#45;d32e&#45;486f&#45;b2a2&#45;9901bd8ac5c6</title>
<path fill="none" stroke="black" d="M527.54,-88.18C495.57,-79.05 427.69,-59.67 373.96,-44.32"/>
<polygon fill="black" stroke="black" points="375.11,-41.01 364.53,-41.63 373.19,-47.74 375.11,-41.01"/>
</g>
<!-- 3e846303&#45;6010&#45;49e4&#45;bde5&#45;a0eb7e2c7bce -->
<g id="node9" class="node">
<title>3e846303&#45;6010&#45;49e4&#45;bde5&#45;a0eb7e2c7bce</title>
<polygon fill="lightgreen" stroke="black" points="631.02,-39.57 460.52,-39.57 460.52,-3.57 631.02,-3.57 631.02,-39.57"/>
<text text-anchor="middle" x="545.77" y="-13.82" font-family="Times New Roman,serif" font-size="20.00">PlugIn(microwave)</text>
</g>
<!-- 6588e98a&#45;f616&#45;4bfd&#45;b815&#45;862dff622eb3&#45;&gt;3e846303&#45;6010&#45;49e4&#45;bde5&#45;a0eb7e2c7bce -->
<g id="edge8" class="edge">
<title>6588e98a&#45;f616&#45;4bfd&#45;b815&#45;862dff622eb3&#45;&gt;3e846303&#45;6010&#45;49e4&#45;bde5&#45;a0eb7e2c7bce</title>
<path fill="none" stroke="black" d="M545.77,-78.71C545.77,-70.79 545.77,-60.74 545.77,-51.33"/>
<polygon fill="black" stroke="black" points="549.28,-51.48 545.77,-41.48 542.28,-51.48 549.28,-51.48"/>
</g>
<!-- 8dc56811&#45;32f0&#45;42c9&#45;84a8&#45;91a639444044 -->
<g id="node11" class="node">
<title>8dc56811&#45;32f0&#45;42c9&#45;84a8&#45;91a639444044</title>
<ellipse fill="#ffff80" stroke="black" cx="749.77" cy="-21.57" rx="100.41" ry="21.57"/>
<text text-anchor="middle" x="749.77" y="-13.82" font-family="Times New Roman,serif" font-size="20.00">IsStanding(self)</text>
</g>
<!-- 8340b70d&#45;d589&#45;4f55&#45;9d88&#45;cba7d00bedb3&#45;&gt;8dc56811&#45;32f0&#45;42c9&#45;84a8&#45;91a639444044 -->
<g id="edge10" class="edge">
<title>8340b70d&#45;d589&#45;4f55&#45;9d88&#45;cba7d00bedb3&#45;&gt;8dc56811&#45;32f0&#45;42c9&#45;84a8&#45;91a639444044</title>
<path fill="none" stroke="black" d="M749.77,-78.71C749.77,-71.77 749.77,-63.19 749.77,-54.85"/>
<polygon fill="black" stroke="black" points="753.28,-54.91 749.77,-44.91 746.28,-54.91 753.28,-54.91"/>
</g>
<!-- ab66ba01&#45;9ccc&#45;467b&#45;8fc7&#45;c24f90ab3f76 -->
<g id="node12" class="node">
<title>ab66ba01&#45;9ccc&#45;467b&#45;8fc7&#45;c24f90ab3f76</title>
<polygon fill="lightgreen" stroke="black" points="1027.4,-39.57 868.15,-39.57 868.15,-3.57 1027.4,-3.57 1027.4,-39.57"/>
<text text-anchor="middle" x="947.77" y="-13.82" font-family="Times New Roman,serif" font-size="20.00">Walk(microwave)</text>
</g>
<!-- 8340b70d&#45;d589&#45;4f55&#45;9d88&#45;cba7d00bedb3&#45;&gt;ab66ba01&#45;9ccc&#45;467b&#45;8fc7&#45;c24f90ab3f76 -->
<g id="edge11" class="edge">
<title>8340b70d&#45;d589&#45;4f55&#45;9d88&#45;cba7d00bedb3&#45;&gt;ab66ba01&#45;9ccc&#45;467b&#45;8fc7&#45;c24f90ab3f76</title>
<path fill="none" stroke="black" d="M768.05,-86.85C795.12,-77.17 847.09,-58.58 888.22,-43.87"/>
<polygon fill="black" stroke="black" points="889.3,-47.2 897.53,-40.54 886.94,-40.61 889.3,-47.2"/>
</g>
</g>
</svg>
