<?xml version="1.0" encoding="UTF-8" standalone="no"?>
<!DOCTYPE svg PUBLIC "-//W3C//DTD SVG 1.1//EN"
 "http://www.w3.org/Graphics/SVG/1.1/DTD/svg11.dtd">
<!-- Generated by graphviz version 12.1.0 (20240811.2233)
 -->
<!-- Title: pastafarianism Pages: 1 -->
<svg width="1546pt" height="567pt"
 viewBox="0.00 0.00 1545.93 567.17" xmlns="http://www.w3.org/2000/svg" xmlns:xlink="http://www.w3.org/1999/xlink">
<g id="graph0" class="graph" transform="scale(1 1) rotate(0) translate(4 563.17)">
<title>pastafarianism</title>
<polygon fill="white" stroke="none" points="-4,4 -4,-563.17 1541.93,-563.17 1541.93,4 -4,4"/>
<!-- 24d9873a&#45;9f07&#45;4476&#45;b7ea&#45;fdb55270b8ec -->
<g id="node1" class="node">
<title>24d9873a&#45;9f07&#45;4476&#45;b7ea&#45;fdb55270b8ec</title>
<polygon fill="#b0ffff" stroke="black" points="941.55,-559.17 906.05,-559.17 906.05,-528.67 941.55,-528.67 941.55,-559.17"/>
<text text-anchor="middle" x="923.8" y="-536.17" font-family="Times New Roman,serif" font-size="20.00"> ? </text>
</g>
<!-- 067ce3fd&#45;c71c&#45;4657&#45;9644&#45;52607a8f8f9d -->
<g id="node2" class="node">
<title>067ce3fd&#45;c71c&#45;4657&#45;9644&#45;52607a8f8f9d</title>
<polygon fill="#ff8080" stroke="black" points="819.93,-492.67 783.68,-492.67 783.68,-462.17 819.93,-462.17 819.93,-492.67"/>
<text text-anchor="middle" x="801.8" y="-469.67" font-family="Times New Roman,serif" font-size="20.00">→</text>
</g>
<!-- 24d9873a&#45;9f07&#45;4476&#45;b7ea&#45;fdb55270b8ec&#45;&gt;067ce3fd&#45;c71c&#45;4657&#45;9644&#45;52607a8f8f9d -->
<g id="edge1" class="edge">
<title>24d9873a&#45;9f07&#45;4476&#45;b7ea&#45;fdb55270b8ec&#45;&gt;067ce3fd&#45;c71c&#45;4657&#45;9644&#45;52607a8f8f9d</title>
<path fill="none" stroke="black" d="M905.8,-533.4C885.91,-522.89 853.62,-505.81 830.29,-493.48"/>
<polygon fill="black" stroke="black" points="832.09,-490.47 821.62,-488.89 828.82,-496.66 832.09,-490.47"/>
</g>
<!-- eda0e899&#45;6c0a&#45;40b0&#45;a0ab&#45;43ec8ae24d2f -->
<g id="node5" class="node">
<title>eda0e899&#45;6c0a&#45;40b0&#45;a0ab&#45;43ec8ae24d2f</title>
<polygon fill="#ff8080" stroke="black" points="1064.93,-492.67 1028.68,-492.67 1028.68,-462.17 1064.93,-462.17 1064.93,-492.67"/>
<text text-anchor="middle" x="1046.8" y="-469.67" font-family="Times New Roman,serif" font-size="20.00">→</text>
</g>
<!-- 24d9873a&#45;9f07&#45;4476&#45;b7ea&#45;fdb55270b8ec&#45;&gt;eda0e899&#45;6c0a&#45;40b0&#45;a0ab&#45;43ec8ae24d2f -->
<g id="edge4" class="edge">
<title>24d9873a&#45;9f07&#45;4476&#45;b7ea&#45;fdb55270b8ec&#45;&gt;eda0e899&#45;6c0a&#45;40b0&#45;a0ab&#45;43ec8ae24d2f</title>
<path fill="none" stroke="black" d="M941.95,-533.4C962.12,-522.83 994.94,-505.61 1018.49,-493.26"/>
<polygon fill="black" stroke="black" points="1020.01,-496.42 1027.24,-488.68 1016.76,-490.22 1020.01,-496.42"/>
</g>
<!-- d543227f&#45;a97b&#45;43c3&#45;9de0&#45;25f8e50a8e94 -->
<g id="node3" class="node">
<title>d543227f&#45;a97b&#45;43c3&#45;9de0&#45;25f8e50a8e94</title>
<ellipse fill="#ffff80" stroke="black" cx="566.8" cy="-404.6" rx="89.8" ry="21.57"/>
<text text-anchor="middle" x="566.8" y="-396.85" font-family="Times New Roman,serif" font-size="20.00">IsOn(rag,bed)</text>
</g>
<!-- 067ce3fd&#45;c71c&#45;4657&#45;9644&#45;52607a8f8f9d&#45;&gt;d543227f&#45;a97b&#45;43c3&#45;9de0&#45;25f8e50a8e94 -->
<g id="edge2" class="edge">
<title>067ce3fd&#45;c71c&#45;4657&#45;9644&#45;52607a8f8f9d&#45;&gt;d543227f&#45;a97b&#45;43c3&#45;9de0&#45;25f8e50a8e94</title>
<path fill="none" stroke="black" d="M783.36,-470.86C751.21,-461.17 683.41,-440.74 632.19,-425.31"/>
<polygon fill="black" stroke="black" points="633.24,-421.97 622.65,-422.43 631.22,-428.67 633.24,-421.97"/>
</g>
<!-- b66f37fa&#45;2257&#45;4709&#45;8598&#45;3897bbeebade -->
<g id="node4" class="node">
<title>b66f37fa&#45;2257&#45;4709&#45;8598&#45;3897bbeebade</title>
<ellipse fill="#ffff80" stroke="black" cx="801.8" cy="-404.6" rx="126.93" ry="21.57"/>
<text text-anchor="middle" x="801.8" y="-396.85" font-family="Times New Roman,serif" font-size="20.00">IsNear(self,window)</text>
</g>
<!-- 067ce3fd&#45;c71c&#45;4657&#45;9644&#45;52607a8f8f9d&#45;&gt;b66f37fa&#45;2257&#45;4709&#45;8598&#45;3897bbeebade -->
<g id="edge3" class="edge">
<title>067ce3fd&#45;c71c&#45;4657&#45;9644&#45;52607a8f8f9d&#45;&gt;b66f37fa&#45;2257&#45;4709&#45;8598&#45;3897bbeebade</title>
<path fill="none" stroke="black" d="M801.8,-461.74C801.8,-454.81 801.8,-446.23 801.8,-437.88"/>
<polygon fill="black" stroke="black" points="805.3,-437.95 801.8,-427.95 798.3,-437.95 805.3,-437.95"/>
</g>
<!-- c17b4c2c&#45;b8c4&#45;4b9a&#45;a09c&#45;c4785d9b0faa -->
<g id="node6" class="node">
<title>c17b4c2c&#45;b8c4&#45;4b9a&#45;a09c&#45;c4785d9b0faa</title>
<ellipse fill="#ffff80" stroke="black" cx="1046.8" cy="-404.6" rx="100.41" ry="21.57"/>
<text text-anchor="middle" x="1046.8" y="-396.85" font-family="Times New Roman,serif" font-size="20.00">IsStanding(self)</text>
</g>
<!-- eda0e899&#45;6c0a&#45;40b0&#45;a0ab&#45;43ec8ae24d2f&#45;&gt;c17b4c2c&#45;b8c4&#45;4b9a&#45;a09c&#45;c4785d9b0faa -->
<g id="edge5" class="edge">
<title>eda0e899&#45;6c0a&#45;40b0&#45;a0ab&#45;43ec8ae24d2f&#45;&gt;c17b4c2c&#45;b8c4&#45;4b9a&#45;a09c&#45;c4785d9b0faa</title>
<path fill="none" stroke="black" d="M1046.8,-461.74C1046.8,-454.81 1046.8,-446.23 1046.8,-437.88"/>
<polygon fill="black" stroke="black" points="1050.3,-437.95 1046.8,-427.95 1043.3,-437.95 1050.3,-437.95"/>
</g>
<!-- 7ea7aea3&#45;e9c6&#45;4761&#45;a437&#45;32a4f9166943 -->
<g id="node7" class="node">
<title>7ea7aea3&#45;e9c6&#45;4761&#45;a437&#45;32a4f9166943</title>
<polygon fill="#b0ffff" stroke="black" points="1200.55,-419.85 1165.05,-419.85 1165.05,-389.35 1200.55,-389.35 1200.55,-419.85"/>
<text text-anchor="middle" x="1182.8" y="-396.85" font-family="Times New Roman,serif" font-size="20.00"> ? </text>
</g>
<!-- eda0e899&#45;6c0a&#45;40b0&#45;a0ab&#45;43ec8ae24d2f&#45;&gt;7ea7aea3&#45;e9c6&#45;4761&#45;a437&#45;32a4f9166943 -->
<g id="edge6" class="edge">
<title>eda0e899&#45;6c0a&#45;40b0&#45;a0ab&#45;43ec8ae24d2f&#45;&gt;7ea7aea3&#45;e9c6&#45;4761&#45;a437&#45;32a4f9166943</title>
<path fill="none" stroke="black" d="M1065.16,-469.4C1085.52,-461.32 1119.3,-447.03 1154.98,-426.09"/>
<polygon fill="black" stroke="black" points="1156.52,-429.25 1163.29,-421.1 1152.92,-423.25 1156.52,-429.25"/>
</g>
<!-- ea5dd1a6&#45;c773&#45;4ea5&#45;9f62&#45;abaee4e4819b -->
<g id="node8" class="node">
<title>ea5dd1a6&#45;c773&#45;4ea5&#45;9f62&#45;abaee4e4819b</title>
<polygon fill="#b0ffff" stroke="black" points="1107.55,-347.03 1072.05,-347.03 1072.05,-316.53 1107.55,-316.53 1107.55,-347.03"/>
<text text-anchor="middle" x="1089.8" y="-324.03" font-family="Times New Roman,serif" font-size="20.00"> ? </text>
</g>
<!-- 7ea7aea3&#45;e9c6&#45;4761&#45;a437&#45;32a4f9166943&#45;&gt;ea5dd1a6&#45;c773&#45;4ea5&#45;9f62&#45;abaee4e4819b -->
<g id="edge7" class="edge">
<title>7ea7aea3&#45;e9c6&#45;4761&#45;a437&#45;32a4f9166943&#45;&gt;ea5dd1a6&#45;c773&#45;4ea5&#45;9f62&#45;abaee4e4819b</title>
<path fill="none" stroke="black" d="M1164.87,-389.95C1151.32,-379.63 1132.49,-365.29 1117.07,-353.55"/>
<polygon fill="black" stroke="black" points="1119.28,-350.83 1109.2,-347.55 1115.04,-356.4 1119.28,-350.83"/>
</g>
<!-- b3fd429f&#45;fbf7&#45;45c5&#45;8410&#45;50a05588b69c -->
<g id="node25" class="node">
<title>b3fd429f&#45;fbf7&#45;45c5&#45;8410&#45;50a05588b69c</title>
<polygon fill="#ff8080" stroke="black" points="1292.93,-347.03 1256.68,-347.03 1256.68,-316.53 1292.93,-316.53 1292.93,-347.03"/>
<text text-anchor="middle" x="1274.8" y="-324.03" font-family="Times New Roman,serif" font-size="20.00">→</text>
</g>
<!-- 7ea7aea3&#45;e9c6&#45;4761&#45;a437&#45;32a4f9166943&#45;&gt;b3fd429f&#45;fbf7&#45;45c5&#45;8410&#45;50a05588b69c -->
<g id="edge24" class="edge">
<title>7ea7aea3&#45;e9c6&#45;4761&#45;a437&#45;32a4f9166943&#45;&gt;b3fd429f&#45;fbf7&#45;45c5&#45;8410&#45;50a05588b69c</title>
<path fill="none" stroke="black" d="M1200.98,-389.61C1214.25,-379.4 1232.47,-365.37 1247.48,-353.81"/>
<polygon fill="black" stroke="black" points="1249.36,-356.78 1255.15,-347.91 1245.09,-351.24 1249.36,-356.78"/>
</g>
<!-- 0e837387&#45;9cf1&#45;4e1d&#45;b602&#45;ced6d83f6332 -->
<g id="node9" class="node">
<title>0e837387&#45;9cf1&#45;4e1d&#45;b602&#45;ced6d83f6332</title>
<polygon fill="#b0ffff" stroke="black" points="788.55,-274.22 753.05,-274.22 753.05,-243.72 788.55,-243.72 788.55,-274.22"/>
<text text-anchor="middle" x="770.8" y="-251.22" font-family="Times New Roman,serif" font-size="20.00"> ? </text>
</g>
<!-- ea5dd1a6&#45;c773&#45;4ea5&#45;9f62&#45;abaee4e4819b&#45;&gt;0e837387&#45;9cf1&#45;4e1d&#45;b602&#45;ced6d83f6332 -->
<g id="edge8" class="edge">
<title>ea5dd1a6&#45;c773&#45;4ea5&#45;9f62&#45;abaee4e4819b&#45;&gt;0e837387&#45;9cf1&#45;4e1d&#45;b602&#45;ced6d83f6332</title>
<path fill="none" stroke="black" d="M1071.74,-326.77C1018.88,-315.04 864.2,-280.7 799.63,-266.37"/>
<polygon fill="black" stroke="black" points="800.67,-263.01 790.15,-264.26 799.15,-269.85 800.67,-263.01"/>
</g>
<!-- e27991c0&#45;302c&#45;4627&#45;a790&#45;1d38ede110c6 -->
<g id="node21" class="node">
<title>e27991c0&#45;302c&#45;4627&#45;a790&#45;1d38ede110c6</title>
<polygon fill="#ff8080" stroke="black" points="1107.93,-274.22 1071.68,-274.22 1071.68,-243.72 1107.93,-243.72 1107.93,-274.22"/>
<text text-anchor="middle" x="1089.8" y="-251.22" font-family="Times New Roman,serif" font-size="20.00">→</text>
</g>
<!-- ea5dd1a6&#45;c773&#45;4ea5&#45;9f62&#45;abaee4e4819b&#45;&gt;e27991c0&#45;302c&#45;4627&#45;a790&#45;1d38ede110c6 -->
<g id="edge20" class="edge">
<title>ea5dd1a6&#45;c773&#45;4ea5&#45;9f62&#45;abaee4e4819b&#45;&gt;e27991c0&#45;302c&#45;4627&#45;a790&#45;1d38ede110c6</title>
<path fill="none" stroke="black" d="M1089.8,-316.11C1089.8,-307.38 1089.8,-296.04 1089.8,-285.84"/>
<polygon fill="black" stroke="black" points="1093.3,-286.14 1089.8,-276.14 1086.3,-286.14 1093.3,-286.14"/>
</g>
<!-- 029b5eb5&#45;1460&#45;496b&#45;b6ce&#45;f0907dc3cb15 -->
<g id="node10" class="node">
<title>029b5eb5&#45;1460&#45;496b&#45;b6ce&#45;f0907dc3cb15</title>
<polygon fill="#b0ffff" stroke="black" points="603.55,-195.08 568.05,-195.08 568.05,-164.58 603.55,-164.58 603.55,-195.08"/>
<text text-anchor="middle" x="585.8" y="-172.08" font-family="Times New Roman,serif" font-size="20.00"> ? </text>
</g>
<!-- 0e837387&#45;9cf1&#45;4e1d&#45;b602&#45;ced6d83f6332&#45;&gt;029b5eb5&#45;1460&#45;496b&#45;b6ce&#45;f0907dc3cb15 -->
<g id="edge9" class="edge">
<title>0e837387&#45;9cf1&#45;4e1d&#45;b602&#45;ced6d83f6332&#45;&gt;029b5eb5&#45;1460&#45;496b&#45;b6ce&#45;f0907dc3cb15</title>
<path fill="none" stroke="black" d="M752.73,-250.43C720.54,-237.01 653.05,-208.87 614.47,-192.79"/>
<polygon fill="black" stroke="black" points="615.93,-189.6 605.35,-188.98 613.23,-196.06 615.93,-189.6"/>
</g>
<!-- cddd79ec&#45;102f&#45;4b18&#45;8154&#45;f6b8e1c20d46 -->
<g id="node18" class="node">
<title>cddd79ec&#45;102f&#45;4b18&#45;8154&#45;f6b8e1c20d46</title>
<polygon fill="#ff8080" stroke="black" points="788.93,-195.08 752.68,-195.08 752.68,-164.58 788.93,-164.58 788.93,-195.08"/>
<text text-anchor="middle" x="770.8" y="-172.08" font-family="Times New Roman,serif" font-size="20.00">→</text>
</g>
<!-- 0e837387&#45;9cf1&#45;4e1d&#45;b602&#45;ced6d83f6332&#45;&gt;cddd79ec&#45;102f&#45;4b18&#45;8154&#45;f6b8e1c20d46 -->
<g id="edge17" class="edge">
<title>0e837387&#45;9cf1&#45;4e1d&#45;b602&#45;ced6d83f6332&#45;&gt;cddd79ec&#45;102f&#45;4b18&#45;8154&#45;f6b8e1c20d46</title>
<path fill="none" stroke="black" d="M770.8,-243.46C770.8,-233.18 770.8,-219.11 770.8,-206.91"/>
<polygon fill="black" stroke="black" points="774.3,-207.05 770.8,-197.05 767.3,-207.05 774.3,-207.05"/>
</g>
<!-- 05e59d3a&#45;0cac&#45;4f67&#45;99d8&#45;21752b624ab6 -->
<g id="node11" class="node">
<title>05e59d3a&#45;0cac&#45;4f67&#45;99d8&#45;21752b624ab6</title>
<polygon fill="#ff8080" stroke="black" points="282.93,-115.95 246.68,-115.95 246.68,-85.45 282.93,-85.45 282.93,-115.95"/>
<text text-anchor="middle" x="264.8" y="-92.95" font-family="Times New Roman,serif" font-size="20.00">→</text>
</g>
<!-- 029b5eb5&#45;1460&#45;496b&#45;b6ce&#45;f0907dc3cb15&#45;&gt;05e59d3a&#45;0cac&#45;4f67&#45;99d8&#45;21752b624ab6 -->
<g id="edge10" class="edge">
<title>029b5eb5&#45;1460&#45;496b&#45;b6ce&#45;f0907dc3cb15&#45;&gt;05e59d3a&#45;0cac&#45;4f67&#45;99d8&#45;21752b624ab6</title>
<path fill="none" stroke="black" d="M567.62,-174.47C514.56,-161.71 359.51,-124.46 294.27,-108.78"/>
<polygon fill="black" stroke="black" points="295.19,-105.4 284.65,-106.47 293.56,-112.21 295.19,-105.4"/>
</g>
<!-- e04a79ec&#45;bbd2&#45;49b3&#45;9831&#45;67dc657fbe37 -->
<g id="node14" class="node">
<title>e04a79ec&#45;bbd2&#45;49b3&#45;9831&#45;67dc657fbe37</title>
<polygon fill="#ff8080" stroke="black" points="603.93,-115.95 567.68,-115.95 567.68,-85.45 603.93,-85.45 603.93,-115.95"/>
<text text-anchor="middle" x="585.8" y="-92.95" font-family="Times New Roman,serif" font-size="20.00">→</text>
</g>
<!-- 029b5eb5&#45;1460&#45;496b&#45;b6ce&#45;f0907dc3cb15&#45;&gt;e04a79ec&#45;bbd2&#45;49b3&#45;9831&#45;67dc657fbe37 -->
<g id="edge13" class="edge">
<title>029b5eb5&#45;1460&#45;496b&#45;b6ce&#45;f0907dc3cb15&#45;&gt;e04a79ec&#45;bbd2&#45;49b3&#45;9831&#45;67dc657fbe37</title>
<path fill="none" stroke="black" d="M585.8,-164.33C585.8,-154.05 585.8,-139.98 585.8,-127.77"/>
<polygon fill="black" stroke="black" points="589.3,-127.92 585.8,-117.92 582.3,-127.92 589.3,-127.92"/>
</g>
<!-- 7eef102d&#45;8ca3&#45;4fa1&#45;96ec&#45;998b6d37dfb8 -->
<g id="node12" class="node">
<title>7eef102d&#45;8ca3&#45;4fa1&#45;96ec&#45;998b6d37dfb8</title>
<ellipse fill="#ffff80" stroke="black" cx="89.8" cy="-21.57" rx="89.8" ry="21.57"/>
<text text-anchor="middle" x="89.8" y="-13.82" font-family="Times New Roman,serif" font-size="20.00">IsOn(rag,bed)</text>
</g>
<!-- 05e59d3a&#45;0cac&#45;4f67&#45;99d8&#45;21752b624ab6&#45;&gt;7eef102d&#45;8ca3&#45;4fa1&#45;96ec&#45;998b6d37dfb8 -->
<g id="edge11" class="edge">
<title>05e59d3a&#45;0cac&#45;4f67&#45;99d8&#45;21752b624ab6&#45;&gt;7eef102d&#45;8ca3&#45;4fa1&#45;96ec&#45;998b6d37dfb8</title>
<path fill="none" stroke="black" d="M246.41,-91.59C221.81,-80.75 177.2,-61.09 141.87,-45.51"/>
<polygon fill="black" stroke="black" points="143.65,-42.48 133.09,-41.64 140.83,-48.88 143.65,-42.48"/>
</g>
<!-- 6b4c4e2f&#45;f713&#45;4fa4&#45;932b&#45;2888fa9927ca -->
<g id="node13" class="node">
<title>6b4c4e2f&#45;f713&#45;4fa4&#45;932b&#45;2888fa9927ca</title>
<polygon fill="lightgreen" stroke="black" points="331.68,-39.57 197.93,-39.57 197.93,-3.57 331.68,-3.57 331.68,-39.57"/>
<text text-anchor="middle" x="264.8" y="-13.82" font-family="Times New Roman,serif" font-size="20.00">Walk(window)</text>
</g>
<!-- 05e59d3a&#45;0cac&#45;4f67&#45;99d8&#45;21752b624ab6&#45;&gt;6b4c4e2f&#45;f713&#45;4fa4&#45;932b&#45;2888fa9927ca -->
<g id="edge12" class="edge">
<title>05e59d3a&#45;0cac&#45;4f67&#45;99d8&#45;21752b624ab6&#45;&gt;6b4c4e2f&#45;f713&#45;4fa4&#45;932b&#45;2888fa9927ca</title>
<path fill="none" stroke="black" d="M264.8,-85.19C264.8,-75.67 264.8,-62.89 264.8,-51.36"/>
<polygon fill="black" stroke="black" points="268.3,-51.49 264.8,-41.49 261.3,-51.49 268.3,-51.49"/>
</g>
<!-- 13fb85cd&#45;6ae1&#45;4dd6&#45;947c&#45;1a737449f607 -->
<g id="node15" class="node">
<title>13fb85cd&#45;6ae1&#45;4dd6&#45;947c&#45;1a737449f607</title>
<ellipse fill="#ffff80" stroke="black" cx="451.8" cy="-21.57" rx="102.53" ry="21.57"/>
<text text-anchor="middle" x="451.8" y="-13.82" font-family="Times New Roman,serif" font-size="20.00">IsNear(self,bed)</text>
</g>
<!-- e04a79ec&#45;bbd2&#45;49b3&#45;9831&#45;67dc657fbe37&#45;&gt;13fb85cd&#45;6ae1&#45;4dd6&#45;947c&#45;1a737449f607 -->
<g id="edge14" class="edge">
<title>e04a79ec&#45;bbd2&#45;49b3&#45;9831&#45;67dc657fbe37&#45;&gt;13fb85cd&#45;6ae1&#45;4dd6&#45;947c&#45;1a737449f607</title>
<path fill="none" stroke="black" d="M567.45,-89.14C549.12,-78.58 520.24,-61.96 495.93,-47.97"/>
<polygon fill="black" stroke="black" points="497.91,-45.07 487.5,-43.11 494.42,-51.13 497.91,-45.07"/>
</g>
<!-- 2096d7d8&#45;40f2&#45;4e5d&#45;850d&#45;f7dac0dc603d -->
<g id="node16" class="node">
<title>2096d7d8&#45;40f2&#45;4e5d&#45;850d&#45;f7dac0dc603d</title>
<ellipse fill="#ffff80" stroke="black" cx="720.8" cy="-21.57" rx="148.67" ry="21.57"/>
<text text-anchor="middle" x="720.8" y="-13.82" font-family="Times New Roman,serif" font-size="20.00">IsRightHolding(self,rag)</text>
</g>
<!-- e04a79ec&#45;bbd2&#45;49b3&#45;9831&#45;67dc657fbe37&#45;&gt;2096d7d8&#45;40f2&#45;4e5d&#45;850d&#45;f7dac0dc603d -->
<g id="edge15" class="edge">
<title>e04a79ec&#45;bbd2&#45;49b3&#45;9831&#45;67dc657fbe37&#45;&gt;2096d7d8&#45;40f2&#45;4e5d&#45;850d&#45;f7dac0dc603d</title>
<path fill="none" stroke="black" d="M604.1,-85.12C606.96,-83.03 609.92,-80.97 612.8,-79.13 630.42,-67.92 650.51,-56.95 668.54,-47.69"/>
<polygon fill="black" stroke="black" points="669.91,-50.92 677.25,-43.28 666.74,-44.68 669.91,-50.92"/>
</g>
<!-- 2b2b4764&#45;b604&#45;4c11&#45;bd04&#45;bf02cc2a32f8 -->
<g id="node17" class="node">
<title>2b2b4764&#45;b604&#45;4c11&#45;bd04&#45;bf02cc2a32f8</title>
<polygon fill="lightgreen" stroke="black" points="1046.05,-39.57 887.55,-39.57 887.55,-3.57 1046.05,-3.57 1046.05,-39.57"/>
<text text-anchor="middle" x="966.8" y="-13.82" font-family="Times New Roman,serif" font-size="20.00">RightPut(rag,bed)</text>
</g>
<!-- e04a79ec&#45;bbd2&#45;49b3&#45;9831&#45;67dc657fbe37&#45;&gt;2b2b4764&#45;b604&#45;4c11&#45;bd04&#45;bf02cc2a32f8 -->
<g id="edge16" class="edge">
<title>e04a79ec&#45;bbd2&#45;49b3&#45;9831&#45;67dc657fbe37&#45;&gt;2b2b4764&#45;b604&#45;4c11&#45;bd04&#45;bf02cc2a32f8</title>
<path fill="none" stroke="black" d="M602.41,-84.99C605.67,-82.71 609.21,-80.62 612.8,-79.13 723.02,-33.47 761.47,-64.73 878.8,-43.13 880.23,-42.87 881.68,-42.6 883.13,-42.32"/>
<polygon fill="black" stroke="black" points="883.8,-45.76 892.92,-40.36 882.43,-38.89 883.8,-45.76"/>
</g>
<!-- 443d2d13&#45;f95f&#45;4189&#45;8dbb&#45;94f551545969 -->
<g id="node19" class="node">
<title>443d2d13&#45;f95f&#45;4189&#45;8dbb&#45;94f551545969</title>
<ellipse fill="#ffff80" stroke="black" cx="770.8" cy="-100.7" rx="148.67" ry="21.57"/>
<text text-anchor="middle" x="770.8" y="-92.95" font-family="Times New Roman,serif" font-size="20.00">IsRightHolding(self,rag)</text>
</g>
<!-- cddd79ec&#45;102f&#45;4b18&#45;8154&#45;f6b8e1c20d46&#45;&gt;443d2d13&#45;f95f&#45;4189&#45;8dbb&#45;94f551545969 -->
<g id="edge18" class="edge">
<title>cddd79ec&#45;102f&#45;4b18&#45;8154&#45;f6b8e1c20d46&#45;&gt;443d2d13&#45;f95f&#45;4189&#45;8dbb&#45;94f551545969</title>
<path fill="none" stroke="black" d="M770.8,-164.33C770.8,-155.76 770.8,-144.57 770.8,-134.02"/>
<polygon fill="black" stroke="black" points="774.3,-134.06 770.8,-124.06 767.3,-134.06 774.3,-134.06"/>
</g>
<!-- 2afdcb02&#45;0ddc&#45;43c1&#45;8191&#45;0a039a1fdf9f -->
<g id="node20" class="node">
<title>2afdcb02&#45;0ddc&#45;43c1&#45;8191&#45;0a039a1fdf9f</title>
<polygon fill="lightgreen" stroke="black" points="1036.43,-118.7 937.18,-118.7 937.18,-82.7 1036.43,-82.7 1036.43,-118.7"/>
<text text-anchor="middle" x="986.8" y="-92.95" font-family="Times New Roman,serif" font-size="20.00">Walk(bed)</text>
</g>
<!-- cddd79ec&#45;102f&#45;4b18&#45;8154&#45;f6b8e1c20d46&#45;&gt;2afdcb02&#45;0ddc&#45;43c1&#45;8191&#45;0a039a1fdf9f -->
<g id="edge19" class="edge">
<title>cddd79ec&#45;102f&#45;4b18&#45;8154&#45;f6b8e1c20d46&#45;&gt;2afdcb02&#45;0ddc&#45;43c1&#45;8191&#45;0a039a1fdf9f</title>
<path fill="none" stroke="black" d="M788.18,-164.09C791.26,-161.93 794.53,-159.89 797.8,-158.27 848.85,-133 868.9,-139.48 927.49,-122.46"/>
<polygon fill="black" stroke="black" points="928.47,-125.82 937.02,-119.57 926.44,-119.13 928.47,-125.82"/>
</g>
<!-- e746ccb8&#45;9b62&#45;4448&#45;9b0b&#45;30cc1d33457b -->
<g id="node22" class="node">
<title>e746ccb8&#45;9b62&#45;4448&#45;9b0b&#45;30cc1d33457b</title>
<ellipse fill="#ffff80" stroke="black" cx="955.8" cy="-179.83" rx="149.2" ry="21.57"/>
<text text-anchor="middle" x="955.8" y="-172.08" font-family="Times New Roman,serif" font-size="20.00">IsRightHandEmpty(self)</text>
</g>
<!-- e27991c0&#45;302c&#45;4627&#45;a790&#45;1d38ede110c6&#45;&gt;e746ccb8&#45;9b62&#45;4448&#45;9b0b&#45;30cc1d33457b -->
<g id="edge21" class="edge">
<title>e27991c0&#45;302c&#45;4627&#45;a790&#45;1d38ede110c6&#45;&gt;e746ccb8&#45;9b62&#45;4448&#45;9b0b&#45;30cc1d33457b</title>
<path fill="none" stroke="black" d="M1071.45,-247.4C1053.37,-237 1025.04,-220.69 1000.94,-206.81"/>
<polygon fill="black" stroke="black" points="1002.98,-203.95 992.57,-202 999.49,-210.02 1002.98,-203.95"/>
</g>
<!-- e0bba354&#45;344b&#45;46fa&#45;8075&#45;3dd3e2b74ab4 -->
<g id="node23" class="node">
<title>e0bba354&#45;344b&#45;46fa&#45;8075&#45;3dd3e2b74ab4</title>
<ellipse fill="#ffff80" stroke="black" cx="1223.8" cy="-179.83" rx="100.41" ry="21.57"/>
<text text-anchor="middle" x="1223.8" y="-172.08" font-family="Times New Roman,serif" font-size="20.00">IsNear(self,rag)</text>
</g>
<!-- e27991c0&#45;302c&#45;4627&#45;a790&#45;1d38ede110c6&#45;&gt;e0bba354&#45;344b&#45;46fa&#45;8075&#45;3dd3e2b74ab4 -->
<g id="edge22" class="edge">
<title>e27991c0&#45;302c&#45;4627&#45;a790&#45;1d38ede110c6&#45;&gt;e0bba354&#45;344b&#45;46fa&#45;8075&#45;3dd3e2b74ab4</title>
<path fill="none" stroke="black" d="M1108.1,-243.39C1110.96,-241.3 1113.92,-239.24 1116.8,-237.4 1134.8,-225.9 1155.36,-214.62 1173.63,-205.19"/>
<polygon fill="black" stroke="black" points="1175.12,-208.36 1182.44,-200.7 1171.94,-202.12 1175.12,-208.36"/>
</g>
<!-- fe6ffab8&#45;9b57&#45;4992&#45;91bb&#45;9044c1ffd189 -->
<g id="node24" class="node">
<title>fe6ffab8&#45;9b57&#45;4992&#45;91bb&#45;9044c1ffd189</title>
<polygon fill="lightgreen" stroke="black" points="1480.93,-197.83 1342.68,-197.83 1342.68,-161.83 1480.93,-161.83 1480.93,-197.83"/>
<text text-anchor="middle" x="1411.8" y="-172.08" font-family="Times New Roman,serif" font-size="20.00">RightGrab(rag)</text>
</g>
<!-- e27991c0&#45;302c&#45;4627&#45;a790&#45;1d38ede110c6&#45;&gt;fe6ffab8&#45;9b57&#45;4992&#45;91bb&#45;9044c1ffd189 -->
<g id="edge23" class="edge">
<title>e27991c0&#45;302c&#45;4627&#45;a790&#45;1d38ede110c6&#45;&gt;fe6ffab8&#45;9b57&#45;4992&#45;91bb&#45;9044c1ffd189</title>
<path fill="none" stroke="black" d="M1106.44,-243.35C1109.71,-241.06 1113.23,-238.94 1116.8,-237.4 1206.14,-198.78 1237.61,-221.68 1332.8,-201.4 1333.8,-201.19 1334.81,-200.97 1335.82,-200.75"/>
<polygon fill="black" stroke="black" points="1336.37,-204.21 1345.34,-198.58 1334.81,-197.39 1336.37,-204.21"/>
</g>
<!-- 2dcde3d3&#45;f558&#45;409a&#45;8ffa&#45;2b51c6f58dc9 -->
<g id="node26" class="node">
<title>2dcde3d3&#45;f558&#45;409a&#45;8ffa&#45;2b51c6f58dc9</title>
<ellipse fill="#ffff80" stroke="black" cx="1274.8" cy="-258.97" rx="149.2" ry="21.57"/>
<text text-anchor="middle" x="1274.8" y="-251.22" font-family="Times New Roman,serif" font-size="20.00">IsRightHandEmpty(self)</text>
</g>
<!-- b3fd429f&#45;fbf7&#45;45c5&#45;8410&#45;50a05588b69c&#45;&gt;2dcde3d3&#45;f558&#45;409a&#45;8ffa&#45;2b51c6f58dc9 -->
<g id="edge25" class="edge">
<title>b3fd429f&#45;fbf7&#45;45c5&#45;8410&#45;50a05588b69c&#45;&gt;2dcde3d3&#45;f558&#45;409a&#45;8ffa&#45;2b51c6f58dc9</title>
<path fill="none" stroke="black" d="M1274.8,-316.11C1274.8,-309.17 1274.8,-300.59 1274.8,-292.25"/>
<polygon fill="black" stroke="black" points="1278.3,-292.31 1274.8,-282.31 1271.3,-292.31 1278.3,-292.31"/>
</g>
<!-- 4ed9e3d8&#45;8a0a&#45;4af2&#45;bf13&#45;cd742b65f422 -->
<g id="node27" class="node">
<title>4ed9e3d8&#45;8a0a&#45;4af2&#45;bf13&#45;cd742b65f422</title>
<polygon fill="lightgreen" stroke="black" points="1537.93,-276.97 1441.68,-276.97 1441.68,-240.97 1537.93,-240.97 1537.93,-276.97"/>
<text text-anchor="middle" x="1489.8" y="-251.22" font-family="Times New Roman,serif" font-size="20.00">Walk(rag)</text>
</g>
<!-- b3fd429f&#45;fbf7&#45;45c5&#45;8410&#45;50a05588b69c&#45;&gt;4ed9e3d8&#45;8a0a&#45;4af2&#45;bf13&#45;cd742b65f422 -->
<g id="edge26" class="edge">
<title>b3fd429f&#45;fbf7&#45;45c5&#45;8410&#45;50a05588b69c&#45;&gt;4ed9e3d8&#45;8a0a&#45;4af2&#45;bf13&#45;cd742b65f422</title>
<path fill="none" stroke="black" d="M1293.36,-325.13C1321.17,-316.61 1375.53,-299.76 1431.19,-281.03"/>
<polygon fill="black" stroke="black" points="1432.17,-284.39 1440.52,-277.87 1429.93,-277.76 1432.17,-284.39"/>
</g>
</g>
</svg>
