<?xml version="1.0" encoding="UTF-8" standalone="no"?>
<!DOCTYPE svg PUBLIC "-//W3C//DTD SVG 1.1//EN"
 "http://www.w3.org/Graphics/SVG/1.1/DTD/svg11.dtd">
<!-- Generated by graphviz version 12.1.0 (20240811.2233)
 -->
<!-- Title: pastafarianism Pages: 1 -->
<svg width="413pt" height="197pt"
 viewBox="0.00 0.00 413.36 196.77" xmlns="http://www.w3.org/2000/svg" xmlns:xlink="http://www.w3.org/1999/xlink">
<g id="graph0" class="graph" transform="scale(1 1) rotate(0) translate(4 192.77)">
<title>pastafarianism</title>
<polygon fill="white" stroke="none" points="-4,4 -4,-192.77 409.36,-192.77 409.36,4 -4,4"/>
<!-- 1d1e99da&#45;fae7&#45;4173&#45;be4a&#45;d7bd1d547c49 -->
<g id="node1" class="node">
<title>1d1e99da&#45;fae7&#45;4173&#45;be4a&#45;d7bd1d547c49</title>
<polygon fill="#b0ffff" stroke="black" points="204.36,-188.77 168.86,-188.77 168.86,-158.27 204.36,-158.27 204.36,-188.77"/>
<text text-anchor="middle" x="186.61" y="-165.77" font-family="Times New Roman,serif" font-size="20.00"> ? </text>
</g>
<!-- 4438f5a8&#45;2e55&#45;4a44&#45;b7b8&#45;62d588471c13 -->
<g id="node2" class="node">
<title>4438f5a8&#45;2e55&#45;4a44&#45;b7b8&#45;62d588471c13</title>
<ellipse fill="#ffff80" stroke="black" cx="112.61" cy="-100.7" rx="112.61" ry="21.57"/>
<text text-anchor="middle" x="112.61" y="-92.95" font-family="Times New Roman,serif" font-size="20.00">IsNear(self,apple)</text>
</g>
<!-- 1d1e99da&#45;fae7&#45;4173&#45;be4a&#45;d7bd1d547c49&#45;&gt;4438f5a8&#45;2e55&#45;4a44&#45;b7b8&#45;62d588471c13 -->
<g id="edge1" class="edge">
<title>1d1e99da&#45;fae7&#45;4173&#45;be4a&#45;d7bd1d547c49&#45;&gt;4438f5a8&#45;2e55&#45;4a44&#45;b7b8&#45;62d588471c13</title>
<path fill="none" stroke="black" d="M171.27,-157.84C162.87,-149.8 152.17,-139.56 142.21,-130.03"/>
<polygon fill="black" stroke="black" points="144.83,-127.69 135.19,-123.31 139.99,-132.75 144.83,-127.69"/>
</g>
<!-- c23cba2d&#45;3be0&#45;4db5&#45;a020&#45;60abc7137ece -->
<g id="node3" class="node">
<title>c23cba2d&#45;3be0&#45;4db5&#45;a020&#45;60abc7137ece</title>
<polygon fill="#ff8080" stroke="black" points="279.73,-115.95 243.48,-115.95 243.48,-85.45 279.73,-85.45 279.73,-115.95"/>
<text text-anchor="middle" x="261.61" y="-92.95" font-family="Times New Roman,serif" font-size="20.00">→</text>
</g>
<!-- 1d1e99da&#45;fae7&#45;4173&#45;be4a&#45;d7bd1d547c49&#45;&gt;c23cba2d&#45;3be0&#45;4db5&#45;a020&#45;60abc7137ece -->
<g id="edge2" class="edge">
<title>1d1e99da&#45;fae7&#45;4173&#45;be4a&#45;d7bd1d547c49&#45;&gt;c23cba2d&#45;3be0&#45;4db5&#45;a020&#45;60abc7137ece</title>
<path fill="none" stroke="black" d="M202.15,-157.84C212.5,-148.06 226.31,-135.02 238.02,-123.97"/>
<polygon fill="black" stroke="black" points="240.12,-126.8 244.99,-117.39 235.31,-121.71 240.12,-126.8"/>
</g>
<!-- 07ee44f7&#45;a137&#45;4343&#45;b440&#45;f3b7274c7b75 -->
<g id="node4" class="node">
<title>07ee44f7&#45;a137&#45;4343&#45;b440&#45;f3b7274c7b75</title>
<ellipse fill="#ffff80" stroke="black" cx="173.61" cy="-21.57" rx="100.41" ry="21.57"/>
<text text-anchor="middle" x="173.61" y="-13.82" font-family="Times New Roman,serif" font-size="20.00">IsStanding(self)</text>
</g>
<!-- c23cba2d&#45;3be0&#45;4db5&#45;a020&#45;60abc7137ece&#45;&gt;07ee44f7&#45;a137&#45;4343&#45;b440&#45;f3b7274c7b75 -->
<g id="edge3" class="edge">
<title>c23cba2d&#45;3be0&#45;4db5&#45;a020&#45;60abc7137ece&#45;&gt;07ee44f7&#45;a137&#45;4343&#45;b440&#45;f3b7274c7b75</title>
<path fill="none" stroke="black" d="M245.05,-85.19C233.86,-75.38 218.73,-62.12 205.27,-50.32"/>
<polygon fill="black" stroke="black" points="207.69,-47.79 197.86,-43.83 203.08,-53.05 207.69,-47.79"/>
</g>
<!-- 7c33ca33&#45;4b62&#45;4068&#45;82f0&#45;492ae99cea4e -->
<g id="node5" class="node">
<title>7c33ca33&#45;4b62&#45;4068&#45;82f0&#45;492ae99cea4e</title>
<polygon fill="lightgreen" stroke="black" points="405.36,-39.57 291.86,-39.57 291.86,-3.57 405.36,-3.57 405.36,-39.57"/>
<text text-anchor="middle" x="348.61" y="-13.82" font-family="Times New Roman,serif" font-size="20.00">Walk(apple)</text>
</g>
<!-- c23cba2d&#45;3be0&#45;4db5&#45;a020&#45;60abc7137ece&#45;&gt;7c33ca33&#45;4b62&#45;4068&#45;82f0&#45;492ae99cea4e -->
<g id="edge4" class="edge">
<title>c23cba2d&#45;3be0&#45;4db5&#45;a020&#45;60abc7137ece&#45;&gt;7c33ca33&#45;4b62&#45;4068&#45;82f0&#45;492ae99cea4e</title>
<path fill="none" stroke="black" d="M277.97,-85.19C289.95,-74.57 306.51,-59.89 320.59,-47.41"/>
<polygon fill="black" stroke="black" points="322.67,-50.24 327.83,-40.98 318.03,-45 322.67,-50.24"/>
</g>
</g>
</svg>
