<?xml version="1.0" encoding="UTF-8" standalone="no"?>
<!DOCTYPE svg PUBLIC "-//W3C//DTD SVG 1.1//EN"
 "http://www.w3.org/Graphics/SVG/1.1/DTD/svg11.dtd">
<!-- Generated by graphviz version 12.1.0 (20240811.2233)
 -->
<!-- Title: pastafarianism Pages: 1 -->
<svg width="2052pt" height="427pt"
 viewBox="0.00 0.00 2052.49 427.03" xmlns="http://www.w3.org/2000/svg" xmlns:xlink="http://www.w3.org/1999/xlink">
<g id="graph0" class="graph" transform="scale(1 1) rotate(0) translate(4 423.03)">
<title>pastafarianism</title>
<polygon fill="white" stroke="none" points="-4,4 -4,-423.03 2048.49,-423.03 2048.49,4 -4,4"/>
<!-- 05492eb9&#45;3dd4&#45;4dcb&#45;ba81&#45;7b79fe6b16da -->
<g id="node1" class="node">
<title>05492eb9&#45;3dd4&#45;4dcb&#45;ba81&#45;7b79fe6b16da</title>
<polygon fill="#b0ffff" stroke="black" points="974.74,-419.03 939.24,-419.03 939.24,-388.53 974.74,-388.53 974.74,-419.03"/>
<text text-anchor="middle" x="956.99" y="-396.03" font-family="Times New Roman,serif" font-size="20.00"> ? </text>
</g>
<!-- 7596598e&#45;1e64&#45;4c90&#45;b929&#45;eff58d956e56 -->
<g id="node2" class="node">
<title>7596598e&#45;1e64&#45;4c90&#45;b929&#45;eff58d956e56</title>
<ellipse fill="#ffff80" stroke="black" cx="839.99" cy="-330.97" rx="81.32" ry="21.57"/>
<text text-anchor="middle" x="839.99" y="-323.22" font-family="Times New Roman,serif" font-size="20.00">IsCut(apple)</text>
</g>
<!-- 05492eb9&#45;3dd4&#45;4dcb&#45;ba81&#45;7b79fe6b16da&#45;&gt;7596598e&#45;1e64&#45;4c90&#45;b929&#45;eff58d956e56 -->
<g id="edge1" class="edge">
<title>05492eb9&#45;3dd4&#45;4dcb&#45;ba81&#45;7b79fe6b16da&#45;&gt;7596598e&#45;1e64&#45;4c90&#45;b929&#45;eff58d956e56</title>
<path fill="none" stroke="black" d="M938.96,-391.87C923.61,-382.58 900.96,-368.87 881.2,-356.91"/>
<polygon fill="black" stroke="black" points="883.14,-354 872.77,-351.81 879.52,-359.99 883.14,-354"/>
</g>
<!-- 07a61abb&#45;d893&#45;4f55&#45;9d2c&#45;8d190a37ccff -->
<g id="node3" class="node">
<title>07a61abb&#45;d893&#45;4f55&#45;9d2c&#45;8d190a37ccff</title>
<polygon fill="#ff8080" stroke="black" points="975.11,-346.22 938.86,-346.22 938.86,-315.72 975.11,-315.72 975.11,-346.22"/>
<text text-anchor="middle" x="956.99" y="-323.22" font-family="Times New Roman,serif" font-size="20.00">→</text>
</g>
<!-- 05492eb9&#45;3dd4&#45;4dcb&#45;ba81&#45;7b79fe6b16da&#45;&gt;07a61abb&#45;d893&#45;4f55&#45;9d2c&#45;8d190a37ccff -->
<g id="edge2" class="edge">
<title>05492eb9&#45;3dd4&#45;4dcb&#45;ba81&#45;7b79fe6b16da&#45;&gt;07a61abb&#45;d893&#45;4f55&#45;9d2c&#45;8d190a37ccff</title>
<path fill="none" stroke="black" d="M956.99,-388.11C956.99,-379.38 956.99,-368.04 956.99,-357.84"/>
<polygon fill="black" stroke="black" points="960.49,-358.14 956.99,-348.14 953.49,-358.14 960.49,-358.14"/>
</g>
<!-- 72bfa0c5&#45;f502&#45;4b49&#45;ba0e&#45;3b0c9163b11f -->
<g id="node18" class="node">
<title>72bfa0c5&#45;f502&#45;4b49&#45;ba0e&#45;3b0c9163b11f</title>
<polygon fill="#ff8080" stroke="black" points="1371.11,-346.22 1334.86,-346.22 1334.86,-315.72 1371.11,-315.72 1371.11,-346.22"/>
<text text-anchor="middle" x="1352.99" y="-323.22" font-family="Times New Roman,serif" font-size="20.00">→</text>
</g>
<!-- 05492eb9&#45;3dd4&#45;4dcb&#45;ba81&#45;7b79fe6b16da&#45;&gt;72bfa0c5&#45;f502&#45;4b49&#45;ba0e&#45;3b0c9163b11f -->
<g id="edge17" class="edge">
<title>05492eb9&#45;3dd4&#45;4dcb&#45;ba81&#45;7b79fe6b16da&#45;&gt;72bfa0c5&#45;f502&#45;4b49&#45;ba0e&#45;3b0c9163b11f</title>
<path fill="none" stroke="black" d="M975.03,-399.56C1037.64,-388.36 1245.89,-351.12 1323.5,-337.24"/>
<polygon fill="black" stroke="black" points="1323.66,-340.77 1332.89,-335.56 1322.43,-333.88 1323.66,-340.77"/>
</g>
<!-- c4404f33&#45;e24c&#45;4e00&#45;ad22&#45;6abda7ecb217 -->
<g id="node4" class="node">
<title>c4404f33&#45;e24c&#45;4e00&#45;ad22&#45;6abda7ecb217</title>
<ellipse fill="#ffff80" stroke="black" cx="767.99" cy="-251.83" rx="153.44" ry="21.57"/>
<text text-anchor="middle" x="767.99" y="-244.08" font-family="Times New Roman,serif" font-size="20.00">IsLeftHolding(self,apple)</text>
</g>
<!-- 07a61abb&#45;d893&#45;4f55&#45;9d2c&#45;8d190a37ccff&#45;&gt;c4404f33&#45;e24c&#45;4e00&#45;ad22&#45;6abda7ecb217 -->
<g id="edge3" class="edge">
<title>07a61abb&#45;d893&#45;4f55&#45;9d2c&#45;8d190a37ccff&#45;&gt;c4404f33&#45;e24c&#45;4e00&#45;ad22&#45;6abda7ecb217</title>
<path fill="none" stroke="black" d="M939.51,-315.42C936.45,-313.23 933.2,-311.13 929.99,-309.4 904.16,-295.51 874.24,-283.94 847.2,-274.96"/>
<polygon fill="black" stroke="black" points="848.63,-271.74 838.04,-271.98 846.47,-278.4 848.63,-271.74"/>
</g>
<!-- cefe9bf5&#45;a0ee&#45;4a0a&#45;baae&#45;2be5b5e38f94 -->
<g id="node5" class="node">
<title>cefe9bf5&#45;a0ee&#45;4a0a&#45;baae&#45;2be5b5e38f94</title>
<polygon fill="#b0ffff" stroke="black" points="974.74,-267.08 939.24,-267.08 939.24,-236.58 974.74,-236.58 974.74,-267.08"/>
<text text-anchor="middle" x="956.99" y="-244.08" font-family="Times New Roman,serif" font-size="20.00"> ? </text>
</g>
<!-- 07a61abb&#45;d893&#45;4f55&#45;9d2c&#45;8d190a37ccff&#45;&gt;cefe9bf5&#45;a0ee&#45;4a0a&#45;baae&#45;2be5b5e38f94 -->
<g id="edge4" class="edge">
<title>07a61abb&#45;d893&#45;4f55&#45;9d2c&#45;8d190a37ccff&#45;&gt;cefe9bf5&#45;a0ee&#45;4a0a&#45;baae&#45;2be5b5e38f94</title>
<path fill="none" stroke="black" d="M956.99,-315.46C956.99,-305.18 956.99,-291.11 956.99,-278.91"/>
<polygon fill="black" stroke="black" points="960.49,-279.05 956.99,-269.05 953.49,-279.05 960.49,-279.05"/>
</g>
<!-- 8d2f5f61&#45;886f&#45;4ba0&#45;8c37&#45;6f6602412aa7 -->
<g id="node6" class="node">
<title>8d2f5f61&#45;886f&#45;4ba0&#45;8c37&#45;6f6602412aa7</title>
<polygon fill="#b0ffff" stroke="black" points="718.74,-191.52 683.24,-191.52 683.24,-161.02 718.74,-161.02 718.74,-191.52"/>
<text text-anchor="middle" x="700.99" y="-168.52" font-family="Times New Roman,serif" font-size="20.00"> ? </text>
</g>
<!-- cefe9bf5&#45;a0ee&#45;4a0a&#45;baae&#45;2be5b5e38f94&#45;&gt;8d2f5f61&#45;886f&#45;4ba0&#45;8c37&#45;6f6602412aa7 -->
<g id="edge5" class="edge">
<title>cefe9bf5&#45;a0ee&#45;4a0a&#45;baae&#45;2be5b5e38f94&#45;&gt;8d2f5f61&#45;886f&#45;4ba0&#45;8c37&#45;6f6602412aa7</title>
<path fill="none" stroke="black" d="M939.97,-236.19C936.79,-233.96 933.4,-231.87 929.99,-230.27 862.66,-198.64 775.1,-185.18 730.27,-180.05"/>
<polygon fill="black" stroke="black" points="730.88,-176.6 720.56,-179.01 730.13,-183.56 730.88,-176.6"/>
</g>
<!-- 6cd7a506&#45;fcf1&#45;4178&#45;83bf&#45;2211ea7f185d -->
<g id="node14" class="node">
<title>6cd7a506&#45;fcf1&#45;4178&#45;83bf&#45;2211ea7f185d</title>
<polygon fill="#ff8080" stroke="black" points="990.11,-191.52 953.86,-191.52 953.86,-161.02 990.11,-161.02 990.11,-191.52"/>
<text text-anchor="middle" x="971.99" y="-168.52" font-family="Times New Roman,serif" font-size="20.00">→</text>
</g>
<!-- cefe9bf5&#45;a0ee&#45;4a0a&#45;baae&#45;2be5b5e38f94&#45;&gt;6cd7a506&#45;fcf1&#45;4178&#45;83bf&#45;2211ea7f185d -->
<g id="edge13" class="edge">
<title>cefe9bf5&#45;a0ee&#45;4a0a&#45;baae&#45;2be5b5e38f94&#45;&gt;6cd7a506&#45;fcf1&#45;4178&#45;83bf&#45;2211ea7f185d</title>
<path fill="none" stroke="black" d="M959.95,-236.3C961.9,-226.73 964.51,-213.94 966.8,-202.71"/>
<polygon fill="black" stroke="black" points="970.16,-203.75 968.73,-193.25 963.3,-202.35 970.16,-203.75"/>
</g>
<!-- d4c5db89&#45;d1ef&#45;44ba&#45;9173&#45;910c76b99a5f -->
<g id="node7" class="node">
<title>d4c5db89&#45;d1ef&#45;44ba&#45;9173&#45;910c76b99a5f</title>
<polygon fill="#ff8080" stroke="black" points="342.11,-115.95 305.86,-115.95 305.86,-85.45 342.11,-85.45 342.11,-115.95"/>
<text text-anchor="middle" x="323.99" y="-92.95" font-family="Times New Roman,serif" font-size="20.00">→</text>
</g>
<!-- 8d2f5f61&#45;886f&#45;4ba0&#45;8c37&#45;6f6602412aa7&#45;&gt;d4c5db89&#45;d1ef&#45;44ba&#45;9173&#45;910c76b99a5f -->
<g id="edge6" class="edge">
<title>8d2f5f61&#45;886f&#45;4ba0&#45;8c37&#45;6f6602412aa7&#45;&gt;d4c5db89&#45;d1ef&#45;44ba&#45;9173&#45;910c76b99a5f</title>
<path fill="none" stroke="black" d="M682.8,-171.72C622.35,-159.92 427.73,-121.94 353.3,-107.42"/>
<polygon fill="black" stroke="black" points="354.4,-104.07 343.91,-105.59 353.06,-110.94 354.4,-104.07"/>
</g>
<!-- e6bf9dc4&#45;6848&#45;4fc7&#45;87e8&#45;a0d1bc7f4b5b -->
<g id="node10" class="node">
<title>e6bf9dc4&#45;6848&#45;4fc7&#45;87e8&#45;a0d1bc7f4b5b</title>
<polygon fill="#ff8080" stroke="black" points="719.11,-115.95 682.86,-115.95 682.86,-85.45 719.11,-85.45 719.11,-115.95"/>
<text text-anchor="middle" x="700.99" y="-92.95" font-family="Times New Roman,serif" font-size="20.00">→</text>
</g>
<!-- 8d2f5f61&#45;886f&#45;4ba0&#45;8c37&#45;6f6602412aa7&#45;&gt;e6bf9dc4&#45;6848&#45;4fc7&#45;87e8&#45;a0d1bc7f4b5b -->
<g id="edge9" class="edge">
<title>8d2f5f61&#45;886f&#45;4ba0&#45;8c37&#45;6f6602412aa7&#45;&gt;e6bf9dc4&#45;6848&#45;4fc7&#45;87e8&#45;a0d1bc7f4b5b</title>
<path fill="none" stroke="black" d="M700.99,-160.73C700.99,-151.26 700.99,-138.64 700.99,-127.49"/>
<polygon fill="black" stroke="black" points="704.49,-127.72 700.99,-117.72 697.49,-127.72 704.49,-127.72"/>
</g>
<!-- a00f3833&#45;cc7d&#45;4d0b&#45;beae&#45;6d4d852a4aed -->
<g id="node8" class="node">
<title>a00f3833&#45;cc7d&#45;4d0b&#45;beae&#45;6d4d852a4aed</title>
<ellipse fill="#ffff80" stroke="black" cx="127.99" cy="-21.57" rx="127.99" ry="21.57"/>
<text text-anchor="middle" x="127.99" y="-13.82" font-family="Times New Roman,serif" font-size="20.00">IsHoldingKnife(self)</text>
</g>
<!-- d4c5db89&#45;d1ef&#45;44ba&#45;9173&#45;910c76b99a5f&#45;&gt;a00f3833&#45;cc7d&#45;4d0b&#45;beae&#45;6d4d852a4aed -->
<g id="edge7" class="edge">
<title>d4c5db89&#45;d1ef&#45;44ba&#45;9173&#45;910c76b99a5f&#45;&gt;a00f3833&#45;cc7d&#45;4d0b&#45;beae&#45;6d4d852a4aed</title>
<path fill="none" stroke="black" d="M305.55,-92.44C278.78,-81.91 227.94,-61.9 187.49,-45.99"/>
<polygon fill="black" stroke="black" points="188.92,-42.79 178.33,-42.38 186.36,-49.3 188.92,-42.79"/>
</g>
<!-- 038597a3&#45;0b9a&#45;4d12&#45;8002&#45;e1219c220faf -->
<g id="node9" class="node">
<title>038597a3&#45;0b9a&#45;4d12&#45;8002&#45;e1219c220faf</title>
<polygon fill="lightgreen" stroke="black" points="374.36,-39.57 273.61,-39.57 273.61,-3.57 374.36,-3.57 374.36,-39.57"/>
<text text-anchor="middle" x="323.99" y="-13.82" font-family="Times New Roman,serif" font-size="20.00">Cut(apple)</text>
</g>
<!-- d4c5db89&#45;d1ef&#45;44ba&#45;9173&#45;910c76b99a5f&#45;&gt;038597a3&#45;0b9a&#45;4d12&#45;8002&#45;e1219c220faf -->
<g id="edge8" class="edge">
<title>d4c5db89&#45;d1ef&#45;44ba&#45;9173&#45;910c76b99a5f&#45;&gt;038597a3&#45;0b9a&#45;4d12&#45;8002&#45;e1219c220faf</title>
<path fill="none" stroke="black" d="M323.99,-85.19C323.99,-75.67 323.99,-62.89 323.99,-51.36"/>
<polygon fill="black" stroke="black" points="327.49,-51.49 323.99,-41.49 320.49,-51.49 327.49,-51.49"/>
</g>
<!-- efcd260b&#45;bfc5&#45;4e8c&#45;a898&#45;8140fef8b509 -->
<g id="node11" class="node">
<title>efcd260b&#45;bfc5&#45;4e8c&#45;a898&#45;8140fef8b509</title>
<ellipse fill="#ffff80" stroke="black" cx="541.99" cy="-21.57" rx="149.2" ry="21.57"/>
<text text-anchor="middle" x="541.99" y="-13.82" font-family="Times New Roman,serif" font-size="20.00">IsRightHandEmpty(self)</text>
</g>
<!-- e6bf9dc4&#45;6848&#45;4fc7&#45;87e8&#45;a0d1bc7f4b5b&#45;&gt;efcd260b&#45;bfc5&#45;4e8c&#45;a898&#45;8140fef8b509 -->
<g id="edge10" class="edge">
<title>e6bf9dc4&#45;6848&#45;4fc7&#45;87e8&#45;a0d1bc7f4b5b&#45;&gt;efcd260b&#45;bfc5&#45;4e8c&#45;a898&#45;8140fef8b509</title>
<path fill="none" stroke="black" d="M682.44,-90.7C660.8,-80.2 624.1,-62.4 593.65,-47.63"/>
<polygon fill="black" stroke="black" points="595.48,-44.63 584.95,-43.41 592.42,-50.92 595.48,-44.63"/>
</g>
<!-- e1aa9b5e&#45;7954&#45;4418&#45;b661&#45;5e593f1ae9c2 -->
<g id="node12" class="node">
<title>e1aa9b5e&#45;7954&#45;4418&#45;b661&#45;5e593f1ae9c2</title>
<ellipse fill="#ffff80" stroke="black" cx="860.99" cy="-21.57" rx="151.85" ry="21.57"/>
<text text-anchor="middle" x="860.99" y="-13.82" font-family="Times New Roman,serif" font-size="20.00">IsNear(self,kitchenknife)</text>
</g>
<!-- e6bf9dc4&#45;6848&#45;4fc7&#45;87e8&#45;a0d1bc7f4b5b&#45;&gt;e1aa9b5e&#45;7954&#45;4418&#45;b661&#45;5e593f1ae9c2 -->
<g id="edge11" class="edge">
<title>e6bf9dc4&#45;6848&#45;4fc7&#45;87e8&#45;a0d1bc7f4b5b&#45;&gt;e1aa9b5e&#45;7954&#45;4418&#45;b661&#45;5e593f1ae9c2</title>
<path fill="none" stroke="black" d="M719.57,-85.15C722.64,-83.01 725.84,-80.93 728.99,-79.13 750.38,-66.91 774.93,-55.69 797.01,-46.53"/>
<polygon fill="black" stroke="black" points="798.28,-49.79 806.22,-42.77 795.64,-43.3 798.28,-49.79"/>
</g>
<!-- c8c01d5c&#45;15ec&#45;4fd0&#45;aa68&#45;691b8ba56456 -->
<g id="node13" class="node">
<title>c8c01d5c&#45;15ec&#45;4fd0&#45;aa68&#45;691b8ba56456</title>
<polygon fill="lightgreen" stroke="black" points="1241.49,-39.57 1030.49,-39.57 1030.49,-3.57 1241.49,-3.57 1241.49,-39.57"/>
<text text-anchor="middle" x="1135.99" y="-13.82" font-family="Times New Roman,serif" font-size="20.00">RightGrab(kitchenknife)</text>
</g>
<!-- e6bf9dc4&#45;6848&#45;4fc7&#45;87e8&#45;a0d1bc7f4b5b&#45;&gt;c8c01d5c&#45;15ec&#45;4fd0&#45;aa68&#45;691b8ba56456 -->
<g id="edge12" class="edge">
<title>e6bf9dc4&#45;6848&#45;4fc7&#45;87e8&#45;a0d1bc7f4b5b&#45;&gt;c8c01d5c&#45;15ec&#45;4fd0&#45;aa68&#45;691b8ba56456</title>
<path fill="none" stroke="black" d="M718.25,-84.96C721.63,-82.68 725.29,-80.6 728.99,-79.13 850.93,-30.73 892.27,-62.79 1021.99,-43.13 1024.77,-42.71 1027.59,-42.27 1030.43,-41.82"/>
<polygon fill="black" stroke="black" points="1030.69,-45.33 1040.01,-40.28 1029.57,-38.42 1030.69,-45.33"/>
</g>
<!-- 6b994f98&#45;1a1d&#45;4e3c&#45;a6c5&#45;7b01c6309204 -->
<g id="node15" class="node">
<title>6b994f98&#45;1a1d&#45;4e3c&#45;a6c5&#45;7b01c6309204</title>
<ellipse fill="#ffff80" stroke="black" cx="837.99" cy="-100.7" rx="100.41" ry="21.57"/>
<text text-anchor="middle" x="837.99" y="-92.95" font-family="Times New Roman,serif" font-size="20.00">IsStanding(self)</text>
</g>
<!-- 6cd7a506&#45;fcf1&#45;4178&#45;83bf&#45;2211ea7f185d&#45;&gt;6b994f98&#45;1a1d&#45;4e3c&#45;a6c5&#45;7b01c6309204 -->
<g id="edge14" class="edge">
<title>6cd7a506&#45;fcf1&#45;4178&#45;83bf&#45;2211ea7f185d&#45;&gt;6b994f98&#45;1a1d&#45;4e3c&#45;a6c5&#45;7b01c6309204</title>
<path fill="none" stroke="black" d="M953.64,-165.19C935.7,-155.34 907.67,-139.96 883.69,-126.79"/>
<polygon fill="black" stroke="black" points="885.49,-123.79 875.04,-122.04 882.12,-129.92 885.49,-123.79"/>
</g>
<!-- a732c9af&#45;dca3&#45;42d2&#45;99fe&#45;261bfb44c15f -->
<g id="node16" class="node">
<title>a732c9af&#45;dca3&#45;42d2&#45;99fe&#45;261bfb44c15f</title>
<ellipse fill="#ffff80" stroke="black" cx="1105.99" cy="-100.7" rx="149.2" ry="21.57"/>
<text text-anchor="middle" x="1105.99" y="-92.95" font-family="Times New Roman,serif" font-size="20.00">IsRightHandEmpty(self)</text>
</g>
<!-- 6cd7a506&#45;fcf1&#45;4178&#45;83bf&#45;2211ea7f185d&#45;&gt;a732c9af&#45;dca3&#45;42d2&#45;99fe&#45;261bfb44c15f -->
<g id="edge15" class="edge">
<title>6cd7a506&#45;fcf1&#45;4178&#45;83bf&#45;2211ea7f185d&#45;&gt;a732c9af&#45;dca3&#45;42d2&#45;99fe&#45;261bfb44c15f</title>
<path fill="none" stroke="black" d="M990.34,-165.19C1007.96,-155.52 1035.33,-140.49 1059.02,-127.49"/>
<polygon fill="black" stroke="black" points="1060.5,-130.67 1067.58,-122.79 1057.13,-124.53 1060.5,-130.67"/>
</g>
<!-- d05cfe8d&#45;bebd&#45;438b&#45;977d&#45;6e830c952e56 -->
<g id="node17" class="node">
<title>d05cfe8d&#45;bebd&#45;438b&#45;977d&#45;6e830c952e56</title>
<polygon fill="lightgreen" stroke="black" points="1442.49,-118.7 1273.49,-118.7 1273.49,-82.7 1442.49,-82.7 1442.49,-118.7"/>
<text text-anchor="middle" x="1357.99" y="-92.95" font-family="Times New Roman,serif" font-size="20.00">Walk(kitchenknife)</text>
</g>
<!-- 6cd7a506&#45;fcf1&#45;4178&#45;83bf&#45;2211ea7f185d&#45;&gt;d05cfe8d&#45;bebd&#45;438b&#45;977d&#45;6e830c952e56 -->
<g id="edge16" class="edge">
<title>6cd7a506&#45;fcf1&#45;4178&#45;83bf&#45;2211ea7f185d&#45;&gt;d05cfe8d&#45;bebd&#45;438b&#45;977d&#45;6e830c952e56</title>
<path fill="none" stroke="black" d="M990.48,-172.15C1036.69,-164.3 1160.92,-142.89 1263.99,-122.27 1265.37,-121.99 1266.76,-121.71 1268.16,-121.43"/>
<polygon fill="black" stroke="black" points="1268.47,-124.94 1277.56,-119.49 1267.06,-118.08 1268.47,-124.94"/>
</g>
<!-- f3383cd0&#45;6e68&#45;4323&#45;960a&#45;9e550598e66b -->
<g id="node19" class="node">
<title>f3383cd0&#45;6e68&#45;4323&#45;960a&#45;9e550598e66b</title>
<ellipse fill="#ffff80" stroke="black" cx="1092.99" cy="-251.83" rx="100.41" ry="21.57"/>
<text text-anchor="middle" x="1092.99" y="-244.08" font-family="Times New Roman,serif" font-size="20.00">IsStanding(self)</text>
</g>
<!-- 72bfa0c5&#45;f502&#45;4b49&#45;ba0e&#45;3b0c9163b11f&#45;&gt;f3383cd0&#45;6e68&#45;4323&#45;960a&#45;9e550598e66b -->
<g id="edge18" class="edge">
<title>72bfa0c5&#45;f502&#45;4b49&#45;ba0e&#45;3b0c9163b11f&#45;&gt;f3383cd0&#45;6e68&#45;4323&#45;960a&#45;9e550598e66b</title>
<path fill="none" stroke="black" d="M1334.7,-324.54C1299.3,-314.04 1219.77,-290.45 1161.56,-273.18"/>
<polygon fill="black" stroke="black" points="1162.62,-269.84 1152.04,-270.35 1160.63,-276.55 1162.62,-269.84"/>
</g>
<!-- 7d4f5727&#45;134e&#45;440f&#45;b8dc&#45;08b2e9043904 -->
<g id="node20" class="node">
<title>7d4f5727&#45;134e&#45;440f&#45;b8dc&#45;08b2e9043904</title>
<ellipse fill="#ffff80" stroke="black" cx="1352.99" cy="-251.83" rx="141.77" ry="21.57"/>
<text text-anchor="middle" x="1352.99" y="-244.08" font-family="Times New Roman,serif" font-size="20.00">IsLeftHandEmpty(self)</text>
</g>
<!-- 72bfa0c5&#45;f502&#45;4b49&#45;ba0e&#45;3b0c9163b11f&#45;&gt;7d4f5727&#45;134e&#45;440f&#45;b8dc&#45;08b2e9043904 -->
<g id="edge19" class="edge">
<title>72bfa0c5&#45;f502&#45;4b49&#45;ba0e&#45;3b0c9163b11f&#45;&gt;7d4f5727&#45;134e&#45;440f&#45;b8dc&#45;08b2e9043904</title>
<path fill="none" stroke="black" d="M1352.99,-315.46C1352.99,-306.9 1352.99,-295.7 1352.99,-285.15"/>
<polygon fill="black" stroke="black" points="1356.49,-285.2 1352.99,-275.2 1349.49,-285.2 1356.49,-285.2"/>
</g>
<!-- 39f1c8ec&#45;01ea&#45;4695&#45;ab60&#45;50ea4e7eecc9 -->
<g id="node21" class="node">
<title>39f1c8ec&#45;01ea&#45;4695&#45;ab60&#45;50ea4e7eecc9</title>
<ellipse fill="#ffff80" stroke="black" cx="1661.99" cy="-251.83" rx="149.2" ry="21.57"/>
<text text-anchor="middle" x="1661.99" y="-244.08" font-family="Times New Roman,serif" font-size="20.00">IsRightHandEmpty(self)</text>
</g>
<!-- 72bfa0c5&#45;f502&#45;4b49&#45;ba0e&#45;3b0c9163b11f&#45;&gt;39f1c8ec&#45;01ea&#45;4695&#45;ab60&#45;50ea4e7eecc9 -->
<g id="edge20" class="edge">
<title>72bfa0c5&#45;f502&#45;4b49&#45;ba0e&#45;3b0c9163b11f&#45;&gt;39f1c8ec&#45;01ea&#45;4695&#45;ab60&#45;50ea4e7eecc9</title>
<path fill="none" stroke="black" d="M1371.39,-325.37C1411.1,-315.46 1506.96,-291.53 1577.78,-273.85"/>
<polygon fill="black" stroke="black" points="1578.59,-277.26 1587.45,-271.44 1576.9,-270.47 1578.59,-277.26"/>
</g>
<!-- fd67967c&#45;0f22&#45;4221&#45;80bf&#45;a87d7e9e9fa5 -->
<g id="node22" class="node">
<title>fd67967c&#45;0f22&#45;4221&#45;80bf&#45;a87d7e9e9fa5</title>
<polygon fill="#b0ffff" stroke="black" points="1864.74,-267.08 1829.24,-267.08 1829.24,-236.58 1864.74,-236.58 1864.74,-267.08"/>
<text text-anchor="middle" x="1846.99" y="-244.08" font-family="Times New Roman,serif" font-size="20.00"> ? </text>
</g>
<!-- 72bfa0c5&#45;f502&#45;4b49&#45;ba0e&#45;3b0c9163b11f&#45;&gt;fd67967c&#45;0f22&#45;4221&#45;80bf&#45;a87d7e9e9fa5 -->
<g id="edge21" class="edge">
<title>72bfa0c5&#45;f502&#45;4b49&#45;ba0e&#45;3b0c9163b11f&#45;&gt;fd67967c&#45;0f22&#45;4221&#45;80bf&#45;a87d7e9e9fa5</title>
<path fill="none" stroke="black" d="M1371.58,-329.02C1447.79,-324.92 1736.18,-307.43 1819.99,-273.4 1820.33,-273.26 1820.68,-273.11 1821.03,-272.96"/>
<polygon fill="black" stroke="black" points="1822.47,-276.17 1829.39,-268.14 1818.97,-270.1 1822.47,-276.17"/>
</g>
<!-- 6b65bc3b&#45;430b&#45;4316&#45;9a2b&#45;a3f8d086b5db -->
<g id="node23" class="node">
<title>6b65bc3b&#45;430b&#45;4316&#45;9a2b&#45;a3f8d086b5db</title>
<polygon fill="#ff8080" stroke="black" points="1818.11,-191.52 1781.86,-191.52 1781.86,-161.02 1818.11,-161.02 1818.11,-191.52"/>
<text text-anchor="middle" x="1799.99" y="-168.52" font-family="Times New Roman,serif" font-size="20.00">→</text>
</g>
<!-- fd67967c&#45;0f22&#45;4221&#45;80bf&#45;a87d7e9e9fa5&#45;&gt;6b65bc3b&#45;430b&#45;4316&#45;9a2b&#45;a3f8d086b5db -->
<g id="edge22" class="edge">
<title>fd67967c&#45;0f22&#45;4221&#45;80bf&#45;a87d7e9e9fa5&#45;&gt;6b65bc3b&#45;430b&#45;4316&#45;9a2b&#45;a3f8d086b5db</title>
<path fill="none" stroke="black" d="M1837.7,-236.3C1831.33,-226.32 1822.72,-212.85 1815.34,-201.3"/>
<polygon fill="black" stroke="black" points="1818.4,-199.59 1810.07,-193.05 1812.5,-203.36 1818.4,-199.59"/>
</g>
<!-- a3a8fa4c&#45;0b25&#45;4872&#45;ba7e&#45;353586852cbb -->
<g id="node26" class="node">
<title>a3a8fa4c&#45;0b25&#45;4872&#45;ba7e&#45;353586852cbb</title>
<polygon fill="lightgreen" stroke="black" points="1949.74,-194.27 1836.24,-194.27 1836.24,-158.27 1949.74,-158.27 1949.74,-194.27"/>
<text text-anchor="middle" x="1892.99" y="-168.52" font-family="Times New Roman,serif" font-size="20.00">Walk(apple)</text>
</g>
<!-- fd67967c&#45;0f22&#45;4221&#45;80bf&#45;a87d7e9e9fa5&#45;&gt;a3a8fa4c&#45;0b25&#45;4872&#45;ba7e&#45;353586852cbb -->
<g id="edge25" class="edge">
<title>fd67967c&#45;0f22&#45;4221&#45;80bf&#45;a87d7e9e9fa5&#45;&gt;a3a8fa4c&#45;0b25&#45;4872&#45;ba7e&#45;353586852cbb</title>
<path fill="none" stroke="black" d="M1856.07,-236.3C1861.81,-227.13 1869.39,-215.01 1876.19,-204.13"/>
<polygon fill="black" stroke="black" points="1879,-206.24 1881.33,-195.9 1873.07,-202.52 1879,-206.24"/>
</g>
<!-- 918f9a7a&#45;f189&#45;4be2&#45;9ea4&#45;5cc2de164380 -->
<g id="node24" class="node">
<title>918f9a7a&#45;f189&#45;4be2&#45;9ea4&#45;5cc2de164380</title>
<ellipse fill="#ffff80" stroke="black" cx="1768.99" cy="-100.7" rx="112.61" ry="21.57"/>
<text text-anchor="middle" x="1768.99" y="-92.95" font-family="Times New Roman,serif" font-size="20.00">IsNear(self,apple)</text>
</g>
<!-- 6b65bc3b&#45;430b&#45;4316&#45;9a2b&#45;a3f8d086b5db&#45;&gt;918f9a7a&#45;f189&#45;4be2&#45;9ea4&#45;5cc2de164380 -->
<g id="edge23" class="edge">
<title>6b65bc3b&#45;430b&#45;4316&#45;9a2b&#45;a3f8d086b5db&#45;&gt;918f9a7a&#45;f189&#45;4be2&#45;9ea4&#45;5cc2de164380</title>
<path fill="none" stroke="black" d="M1793.86,-160.73C1790.53,-152.82 1786.27,-142.71 1782.22,-133.1"/>
<polygon fill="black" stroke="black" points="1785.49,-131.86 1778.39,-124.01 1779.04,-134.58 1785.49,-131.86"/>
</g>
<!-- 718f13d9&#45;d735&#45;41fe&#45;ad78&#45;021814ab8d96 -->
<g id="node25" class="node">
<title>718f13d9&#45;d735&#45;41fe&#45;ad78&#45;021814ab8d96</title>
<polygon fill="lightgreen" stroke="black" points="2044.49,-118.7 1899.49,-118.7 1899.49,-82.7 2044.49,-82.7 2044.49,-118.7"/>
<text text-anchor="middle" x="1971.99" y="-92.95" font-family="Times New Roman,serif" font-size="20.00">LeftGrab(apple)</text>
</g>
<!-- 6b65bc3b&#45;430b&#45;4316&#45;9a2b&#45;a3f8d086b5db&#45;&gt;718f13d9&#45;d735&#45;41fe&#45;ad78&#45;021814ab8d96 -->
<g id="edge24" class="edge">
<title>6b65bc3b&#45;430b&#45;4316&#45;9a2b&#45;a3f8d086b5db&#45;&gt;718f13d9&#45;d735&#45;41fe&#45;ad78&#45;021814ab8d96</title>
<path fill="none" stroke="black" d="M1818.6,-162.91C1821.37,-161.26 1824.22,-159.66 1826.99,-158.27 1853.39,-144.96 1883.71,-132.69 1909.78,-123.01"/>
<polygon fill="black" stroke="black" points="1910.69,-126.4 1918.87,-119.68 1908.28,-119.83 1910.69,-126.4"/>
</g>
</g>
</svg>
