<?xml version="1.0" encoding="UTF-8" standalone="no"?>
<!DOCTYPE svg PUBLIC "-//W3C//DTD SVG 1.1//EN"
 "http://www.w3.org/Graphics/SVG/1.1/DTD/svg11.dtd">
<!-- Generated by graphviz version 12.1.0 (20240811.2233)
 -->
<!-- Title: pastafarianism Pages: 1 -->
<svg width="3591pt" height="792pt"
 viewBox="0.00 0.00 3591.40 791.93" xmlns="http://www.w3.org/2000/svg" xmlns:xlink="http://www.w3.org/1999/xlink">
<g id="graph0" class="graph" transform="scale(1 1) rotate(0) translate(4 787.93)">
<title>pastafarianism</title>
<polygon fill="white" stroke="none" points="-4,4 -4,-787.93 3587.4,-787.93 3587.4,4 -4,4"/>
<!-- d78e90b0&#45;2a55&#45;4476&#45;a50b&#45;8714f61c1d93 -->
<g id="node1" class="node">
<title>d78e90b0&#45;2a55&#45;4476&#45;a50b&#45;8714f61c1d93</title>
<polygon fill="#b0ffff" stroke="black" points="2358.15,-783.93 2322.65,-783.93 2322.65,-753.43 2358.15,-753.43 2358.15,-783.93"/>
<text text-anchor="middle" x="2340.4" y="-760.93" font-family="Times New Roman,serif" font-size="20.00"> ? </text>
</g>
<!-- 3dcd04ed&#45;9c5c&#45;403a&#45;900a&#45;87d870ae2f3c -->
<g id="node2" class="node">
<title>3dcd04ed&#45;9c5c&#45;403a&#45;900a&#45;87d870ae2f3c</title>
<polygon fill="#ff8080" stroke="black" points="2243.52,-717.43 2207.27,-717.43 2207.27,-686.93 2243.52,-686.93 2243.52,-717.43"/>
<text text-anchor="middle" x="2225.4" y="-694.43" font-family="Times New Roman,serif" font-size="20.00">→</text>
</g>
<!-- d78e90b0&#45;2a55&#45;4476&#45;a50b&#45;8714f61c1d93&#45;&gt;3dcd04ed&#45;9c5c&#45;403a&#45;900a&#45;87d870ae2f3c -->
<g id="edge1" class="edge">
<title>d78e90b0&#45;2a55&#45;4476&#45;a50b&#45;8714f61c1d93&#45;&gt;3dcd04ed&#45;9c5c&#45;403a&#45;900a&#45;87d870ae2f3c</title>
<path fill="none" stroke="black" d="M2322.17,-757.46C2303.78,-747.15 2275.11,-731.07 2253.74,-719.08"/>
<polygon fill="black" stroke="black" points="2255.67,-716.15 2245.23,-714.31 2252.24,-722.26 2255.67,-716.15"/>
</g>
<!-- e04aeac6&#45;3363&#45;42e9&#45;aa56&#45;c25bd6741321 -->
<g id="node5" class="node">
<title>e04aeac6&#45;3363&#45;42e9&#45;aa56&#45;c25bd6741321</title>
<polygon fill="#ff8080" stroke="black" points="2606.52,-717.43 2570.27,-717.43 2570.27,-686.93 2606.52,-686.93 2606.52,-717.43"/>
<text text-anchor="middle" x="2588.4" y="-694.43" font-family="Times New Roman,serif" font-size="20.00">→</text>
</g>
<!-- d78e90b0&#45;2a55&#45;4476&#45;a50b&#45;8714f61c1d93&#45;&gt;e04aeac6&#45;3363&#45;42e9&#45;aa56&#45;c25bd6741321 -->
<g id="edge4" class="edge">
<title>d78e90b0&#45;2a55&#45;4476&#45;a50b&#45;8714f61c1d93&#45;&gt;e04aeac6&#45;3363&#45;42e9&#45;aa56&#45;c25bd6741321</title>
<path fill="none" stroke="black" d="M2358.63,-762.94C2401.08,-751.9 2506.8,-724.41 2558.7,-710.91"/>
<polygon fill="black" stroke="black" points="2559.53,-714.31 2568.33,-708.4 2557.77,-707.53 2559.53,-714.31"/>
</g>
<!-- 5fabbbe7&#45;b160&#45;4fe8&#45;8ecf&#45;af73f4d34ccf -->
<g id="node3" class="node">
<title>5fabbbe7&#45;b160&#45;4fe8&#45;8ecf&#45;af73f4d34ccf</title>
<ellipse fill="#ffff80" stroke="black" cx="1976.4" cy="-629.37" rx="125.33" ry="21.57"/>
<text text-anchor="middle" x="1976.4" y="-621.62" font-family="Times New Roman,serif" font-size="20.00">IsIn(bellpepper,box)</text>
</g>
<!-- 3dcd04ed&#45;9c5c&#45;403a&#45;900a&#45;87d870ae2f3c&#45;&gt;5fabbbe7&#45;b160&#45;4fe8&#45;8ecf&#45;af73f4d34ccf -->
<g id="edge2" class="edge">
<title>3dcd04ed&#45;9c5c&#45;403a&#45;900a&#45;87d870ae2f3c&#45;&gt;5fabbbe7&#45;b160&#45;4fe8&#45;8ecf&#45;af73f4d34ccf</title>
<path fill="none" stroke="black" d="M2207.09,-695.98C2174.57,-686.73 2105.05,-666.96 2050.78,-651.52"/>
<polygon fill="black" stroke="black" points="2051.83,-648.18 2041.25,-648.81 2049.91,-654.92 2051.83,-648.18"/>
</g>
<!-- dd0f6283&#45;5d45&#45;4479&#45;a508&#45;503e181d2882 -->
<g id="node4" class="node">
<title>dd0f6283&#45;5d45&#45;4479&#45;a508&#45;503e181d2882</title>
<ellipse fill="#ffff80" stroke="black" cx="2225.4" cy="-629.37" rx="105.18" ry="21.57"/>
<text text-anchor="middle" x="2225.4" y="-621.62" font-family="Times New Roman,serif" font-size="20.00">IsOpen(curtains)</text>
</g>
<!-- 3dcd04ed&#45;9c5c&#45;403a&#45;900a&#45;87d870ae2f3c&#45;&gt;dd0f6283&#45;5d45&#45;4479&#45;a508&#45;503e181d2882 -->
<g id="edge3" class="edge">
<title>3dcd04ed&#45;9c5c&#45;403a&#45;900a&#45;87d870ae2f3c&#45;&gt;dd0f6283&#45;5d45&#45;4479&#45;a508&#45;503e181d2882</title>
<path fill="none" stroke="black" d="M2225.4,-686.51C2225.4,-679.57 2225.4,-670.99 2225.4,-662.65"/>
<polygon fill="black" stroke="black" points="2228.9,-662.71 2225.4,-652.71 2221.9,-662.71 2228.9,-662.71"/>
</g>
<!-- c68933f9&#45;21c3&#45;4e5a&#45;90d7&#45;7b7e44b79c90 -->
<g id="node6" class="node">
<title>c68933f9&#45;21c3&#45;4e5a&#45;90d7&#45;7b7e44b79c90</title>
<ellipse fill="#ffff80" stroke="black" cx="2455.4" cy="-629.37" rx="106.77" ry="21.57"/>
<text text-anchor="middle" x="2455.4" y="-621.62" font-family="Times New Roman,serif" font-size="20.00">IsClose(curtains)</text>
</g>
<!-- e04aeac6&#45;3363&#45;42e9&#45;aa56&#45;c25bd6741321&#45;&gt;c68933f9&#45;21c3&#45;4e5a&#45;90d7&#45;7b7e44b79c90 -->
<g id="edge5" class="edge">
<title>e04aeac6&#45;3363&#45;42e9&#45;aa56&#45;c25bd6741321&#45;&gt;c68933f9&#45;21c3&#45;4e5a&#45;90d7&#45;7b7e44b79c90</title>
<path fill="none" stroke="black" d="M2569.9,-691.34C2552.49,-682.07 2525.68,-667.79 2502.38,-655.39"/>
<polygon fill="black" stroke="black" points="2504.12,-652.35 2493.65,-650.74 2500.83,-658.52 2504.12,-652.35"/>
</g>
<!-- 272f79fe&#45;ea1f&#45;4a12&#45;915a&#45;c0ae92ab5317 -->
<g id="node7" class="node">
<title>272f79fe&#45;ea1f&#45;4a12&#45;915a&#45;c0ae92ab5317</title>
<ellipse fill="#ffff80" stroke="black" cx="2722.4" cy="-629.37" rx="141.77" ry="21.57"/>
<text text-anchor="middle" x="2722.4" y="-621.62" font-family="Times New Roman,serif" font-size="20.00">IsLeftHandEmpty(self)</text>
</g>
<!-- e04aeac6&#45;3363&#45;42e9&#45;aa56&#45;c25bd6741321&#45;&gt;272f79fe&#45;ea1f&#45;4a12&#45;915a&#45;c0ae92ab5317 -->
<g id="edge6" class="edge">
<title>e04aeac6&#45;3363&#45;42e9&#45;aa56&#45;c25bd6741321&#45;&gt;272f79fe&#45;ea1f&#45;4a12&#45;915a&#45;c0ae92ab5317</title>
<path fill="none" stroke="black" d="M2606.75,-691.49C2624.04,-682.35 2650.72,-668.25 2674.1,-655.89"/>
<polygon fill="black" stroke="black" points="2675.67,-659.02 2682.88,-651.25 2672.4,-652.83 2675.67,-659.02"/>
</g>
<!-- cd64fc95&#45;2991&#45;4391&#45;bf92&#45;57e9fb290eea -->
<g id="node8" class="node">
<title>cd64fc95&#45;2991&#45;4391&#45;bf92&#45;57e9fb290eea</title>
<polygon fill="#b0ffff" stroke="black" points="2918.15,-644.62 2882.65,-644.62 2882.65,-614.12 2918.15,-614.12 2918.15,-644.62"/>
<text text-anchor="middle" x="2900.4" y="-621.62" font-family="Times New Roman,serif" font-size="20.00"> ? </text>
</g>
<!-- e04aeac6&#45;3363&#45;42e9&#45;aa56&#45;c25bd6741321&#45;&gt;cd64fc95&#45;2991&#45;4391&#45;bf92&#45;57e9fb290eea -->
<g id="edge7" class="edge">
<title>e04aeac6&#45;3363&#45;42e9&#45;aa56&#45;c25bd6741321&#45;&gt;cd64fc95&#45;2991&#45;4391&#45;bf92&#45;57e9fb290eea</title>
<path fill="none" stroke="black" d="M2606.93,-700.91C2653.66,-699.58 2779.28,-692.15 2873.4,-650.93 2873.62,-650.84 2873.84,-650.74 2874.06,-650.64"/>
<polygon fill="black" stroke="black" points="2875.58,-653.8 2882.44,-645.73 2872.04,-647.77 2875.58,-653.8"/>
</g>
<!-- bb9c06ea&#45;512d&#45;46e6&#45;9922&#45;573a3bd3ecd7 -->
<g id="node9" class="node">
<title>bb9c06ea&#45;512d&#45;46e6&#45;9922&#45;573a3bd3ecd7</title>
<polygon fill="#b0ffff" stroke="black" points="2691.15,-571.8 2655.65,-571.8 2655.65,-541.3 2691.15,-541.3 2691.15,-571.8"/>
<text text-anchor="middle" x="2673.4" y="-548.8" font-family="Times New Roman,serif" font-size="20.00"> ? </text>
</g>
<!-- cd64fc95&#45;2991&#45;4391&#45;bf92&#45;57e9fb290eea&#45;&gt;bb9c06ea&#45;512d&#45;46e6&#45;9922&#45;573a3bd3ecd7 -->
<g id="edge8" class="edge">
<title>cd64fc95&#45;2991&#45;4391&#45;bf92&#45;57e9fb290eea&#45;&gt;bb9c06ea&#45;512d&#45;46e6&#45;9922&#45;573a3bd3ecd7</title>
<path fill="none" stroke="black" d="M2883.35,-613.77C2880.18,-611.54 2876.79,-609.44 2873.4,-607.8 2816.53,-580.43 2743.16,-566.93 2702.97,-561.17"/>
<polygon fill="black" stroke="black" points="2703.49,-557.71 2693.11,-559.83 2702.55,-564.65 2703.49,-557.71"/>
</g>
<!-- d0171efc&#45;2b5f&#45;40e5&#45;bf60&#45;e7622534e6d1 -->
<g id="node45" class="node">
<title>d0171efc&#45;2b5f&#45;40e5&#45;bf60&#45;e7622534e6d1</title>
<polygon fill="#ff8080" stroke="black" points="3144.52,-571.8 3108.27,-571.8 3108.27,-541.3 3144.52,-541.3 3144.52,-571.8"/>
<text text-anchor="middle" x="3126.4" y="-548.8" font-family="Times New Roman,serif" font-size="20.00">→</text>
</g>
<!-- cd64fc95&#45;2991&#45;4391&#45;bf92&#45;57e9fb290eea&#45;&gt;d0171efc&#45;2b5f&#45;40e5&#45;bf60&#45;e7622534e6d1 -->
<g id="edge44" class="edge">
<title>cd64fc95&#45;2991&#45;4391&#45;bf92&#45;57e9fb290eea&#45;&gt;d0171efc&#45;2b5f&#45;40e5&#45;bf60&#45;e7622534e6d1</title>
<path fill="none" stroke="black" d="M2918.51,-622.69C2957.5,-610.47 3049.71,-581.58 3097.12,-566.72"/>
<polygon fill="black" stroke="black" points="3097.94,-570.14 3106.44,-563.81 3095.85,-563.46 3097.94,-570.14"/>
</g>
<!-- b7562341&#45;2046&#45;47b4&#45;b362&#45;f06d929f169a -->
<g id="node10" class="node">
<title>b7562341&#45;2046&#45;47b4&#45;b362&#45;f06d929f169a</title>
<polygon fill="#b0ffff" stroke="black" points="2072.15,-498.98 2036.65,-498.98 2036.65,-468.48 2072.15,-468.48 2072.15,-498.98"/>
<text text-anchor="middle" x="2054.4" y="-475.98" font-family="Times New Roman,serif" font-size="20.00"> ? </text>
</g>
<!-- bb9c06ea&#45;512d&#45;46e6&#45;9922&#45;573a3bd3ecd7&#45;&gt;b7562341&#45;2046&#45;47b4&#45;b362&#45;f06d929f169a -->
<g id="edge9" class="edge">
<title>bb9c06ea&#45;512d&#45;46e6&#45;9922&#45;573a3bd3ecd7&#45;&gt;b7562341&#45;2046&#45;47b4&#45;b362&#45;f06d929f169a</title>
<path fill="none" stroke="black" d="M2655.21,-553.47C2568,-543.49 2192.52,-500.54 2083.92,-488.11"/>
<polygon fill="black" stroke="black" points="2084.42,-484.65 2074.09,-486.99 2083.63,-491.6 2084.42,-484.65"/>
</g>
<!-- a174a479&#45;f6be&#45;4376&#45;a567&#45;768dc8e21659 -->
<g id="node39" class="node">
<title>a174a479&#45;f6be&#45;4376&#45;a567&#45;768dc8e21659</title>
<polygon fill="#ff8080" stroke="black" points="2691.52,-498.98 2655.27,-498.98 2655.27,-468.48 2691.52,-468.48 2691.52,-498.98"/>
<text text-anchor="middle" x="2673.4" y="-475.98" font-family="Times New Roman,serif" font-size="20.00">→</text>
</g>
<!-- bb9c06ea&#45;512d&#45;46e6&#45;9922&#45;573a3bd3ecd7&#45;&gt;a174a479&#45;f6be&#45;4376&#45;a567&#45;768dc8e21659 -->
<g id="edge38" class="edge">
<title>bb9c06ea&#45;512d&#45;46e6&#45;9922&#45;573a3bd3ecd7&#45;&gt;a174a479&#45;f6be&#45;4376&#45;a567&#45;768dc8e21659</title>
<path fill="none" stroke="black" d="M2673.4,-540.88C2673.4,-532.14 2673.4,-520.81 2673.4,-510.61"/>
<polygon fill="black" stroke="black" points="2676.9,-510.9 2673.4,-500.9 2669.9,-510.9 2676.9,-510.9"/>
</g>
<!-- e5c15eb7&#45;47be&#45;406f&#45;9fc7&#45;cab7727e17d5 -->
<g id="node11" class="node">
<title>e5c15eb7&#45;47be&#45;406f&#45;9fc7&#45;cab7727e17d5</title>
<polygon fill="#b0ffff" stroke="black" points="1538.15,-419.85 1502.65,-419.85 1502.65,-389.35 1538.15,-389.35 1538.15,-419.85"/>
<text text-anchor="middle" x="1520.4" y="-396.85" font-family="Times New Roman,serif" font-size="20.00"> ? </text>
</g>
<!-- b7562341&#45;2046&#45;47b4&#45;b362&#45;f06d929f169a&#45;&gt;e5c15eb7&#45;47be&#45;406f&#45;9fc7&#45;cab7727e17d5 -->
<g id="edge10" class="edge">
<title>b7562341&#45;2046&#45;47b4&#45;b362&#45;f06d929f169a&#45;&gt;e5c15eb7&#45;47be&#45;406f&#45;9fc7&#45;cab7727e17d5</title>
<path fill="none" stroke="black" d="M2036.32,-480.12C1957.96,-468.81 1647.18,-423.91 1549.76,-409.84"/>
<polygon fill="black" stroke="black" points="1550.36,-406.39 1539.96,-408.43 1549.36,-413.32 1550.36,-406.39"/>
</g>
<!-- ad0a1573&#45;9bd6&#45;4014&#45;852c&#45;3dee951da054 -->
<g id="node34" class="node">
<title>ad0a1573&#45;9bd6&#45;4014&#45;852c&#45;3dee951da054</title>
<polygon fill="#ff8080" stroke="black" points="2072.52,-419.85 2036.27,-419.85 2036.27,-389.35 2072.52,-389.35 2072.52,-419.85"/>
<text text-anchor="middle" x="2054.4" y="-396.85" font-family="Times New Roman,serif" font-size="20.00">→</text>
</g>
<!-- b7562341&#45;2046&#45;47b4&#45;b362&#45;f06d929f169a&#45;&gt;ad0a1573&#45;9bd6&#45;4014&#45;852c&#45;3dee951da054 -->
<g id="edge33" class="edge">
<title>b7562341&#45;2046&#45;47b4&#45;b362&#45;f06d929f169a&#45;&gt;ad0a1573&#45;9bd6&#45;4014&#45;852c&#45;3dee951da054</title>
<path fill="none" stroke="black" d="M2054.4,-468.23C2054.4,-457.95 2054.4,-443.88 2054.4,-431.67"/>
<polygon fill="black" stroke="black" points="2057.9,-431.82 2054.4,-421.82 2050.9,-431.82 2057.9,-431.82"/>
</g>
<!-- 958d4de8&#45;07ca&#45;43ab&#45;b044&#45;88f3be896a74 -->
<g id="node12" class="node">
<title>958d4de8&#45;07ca&#45;43ab&#45;b044&#45;88f3be896a74</title>
<polygon fill="#b0ffff" stroke="black" points="891.15,-340.72 855.65,-340.72 855.65,-310.22 891.15,-310.22 891.15,-340.72"/>
<text text-anchor="middle" x="873.4" y="-317.72" font-family="Times New Roman,serif" font-size="20.00"> ? </text>
</g>
<!-- e5c15eb7&#45;47be&#45;406f&#45;9fc7&#45;cab7727e17d5&#45;&gt;958d4de8&#45;07ca&#45;43ab&#45;b044&#45;88f3be896a74 -->
<g id="edge11" class="edge">
<title>e5c15eb7&#45;47be&#45;406f&#45;9fc7&#45;cab7727e17d5&#45;&gt;958d4de8&#45;07ca&#45;43ab&#45;b044&#45;88f3be896a74</title>
<path fill="none" stroke="black" d="M1502.42,-401.46C1412.91,-390.79 1015.23,-343.38 902.98,-329.99"/>
<polygon fill="black" stroke="black" points="903.44,-326.52 893.1,-328.82 902.61,-333.48 903.44,-326.52"/>
</g>
<!-- 0cacc098&#45;5ab4&#45;4298&#45;9ffe&#45;061ace40297f -->
<g id="node28" class="node">
<title>0cacc098&#45;5ab4&#45;4298&#45;9ffe&#45;061ace40297f</title>
<polygon fill="#ff8080" stroke="black" points="1538.52,-340.72 1502.27,-340.72 1502.27,-310.22 1538.52,-310.22 1538.52,-340.72"/>
<text text-anchor="middle" x="1520.4" y="-317.72" font-family="Times New Roman,serif" font-size="20.00">→</text>
</g>
<!-- e5c15eb7&#45;47be&#45;406f&#45;9fc7&#45;cab7727e17d5&#45;&gt;0cacc098&#45;5ab4&#45;4298&#45;9ffe&#45;061ace40297f -->
<g id="edge27" class="edge">
<title>e5c15eb7&#45;47be&#45;406f&#45;9fc7&#45;cab7727e17d5&#45;&gt;0cacc098&#45;5ab4&#45;4298&#45;9ffe&#45;061ace40297f</title>
<path fill="none" stroke="black" d="M1520.4,-389.09C1520.4,-378.82 1520.4,-364.74 1520.4,-352.54"/>
<polygon fill="black" stroke="black" points="1523.9,-352.69 1520.4,-342.69 1516.9,-352.69 1523.9,-352.69"/>
</g>
<!-- af5e723f&#45;37d7&#45;490b&#45;b229&#45;5102d18d9556 -->
<g id="node13" class="node">
<title>af5e723f&#45;37d7&#45;490b&#45;b229&#45;5102d18d9556</title>
<polygon fill="#ff8080" stroke="black" points="449.52,-261.58 413.27,-261.58 413.27,-231.08 449.52,-231.08 449.52,-261.58"/>
<text text-anchor="middle" x="431.4" y="-238.58" font-family="Times New Roman,serif" font-size="20.00">→</text>
</g>
<!-- 958d4de8&#45;07ca&#45;43ab&#45;b044&#45;88f3be896a74&#45;&gt;af5e723f&#45;37d7&#45;490b&#45;b229&#45;5102d18d9556 -->
<g id="edge12" class="edge">
<title>958d4de8&#45;07ca&#45;43ab&#45;b044&#45;88f3be896a74&#45;&gt;af5e723f&#45;37d7&#45;490b&#45;b229&#45;5102d18d9556</title>
<path fill="none" stroke="black" d="M855.24,-321.3C787.05,-309.4 545.74,-267.29 461.04,-252.51"/>
<polygon fill="black" stroke="black" points="461.89,-249.1 451.43,-250.83 460.68,-256 461.89,-249.1"/>
</g>
<!-- 1417bcef&#45;16ef&#45;4913&#45;8193&#45;a4c4fb0aaa31 -->
<g id="node22" class="node">
<title>1417bcef&#45;16ef&#45;4913&#45;8193&#45;a4c4fb0aaa31</title>
<polygon fill="#ff8080" stroke="black" points="891.52,-261.58 855.27,-261.58 855.27,-231.08 891.52,-231.08 891.52,-261.58"/>
<text text-anchor="middle" x="873.4" y="-238.58" font-family="Times New Roman,serif" font-size="20.00">→</text>
</g>
<!-- 958d4de8&#45;07ca&#45;43ab&#45;b044&#45;88f3be896a74&#45;&gt;1417bcef&#45;16ef&#45;4913&#45;8193&#45;a4c4fb0aaa31 -->
<g id="edge21" class="edge">
<title>958d4de8&#45;07ca&#45;43ab&#45;b044&#45;88f3be896a74&#45;&gt;1417bcef&#45;16ef&#45;4913&#45;8193&#45;a4c4fb0aaa31</title>
<path fill="none" stroke="black" d="M873.4,-309.96C873.4,-299.68 873.4,-285.61 873.4,-273.41"/>
<polygon fill="black" stroke="black" points="876.9,-273.55 873.4,-263.55 869.9,-273.55 876.9,-273.55"/>
</g>
<!-- f81e5922&#45;1b76&#45;4161&#45;84e9&#45;2440f5b2b33b -->
<g id="node14" class="node">
<title>f81e5922&#45;1b76&#45;4161&#45;84e9&#45;2440f5b2b33b</title>
<ellipse fill="#ffff80" stroke="black" cx="270.4" cy="-167.2" rx="125.33" ry="21.57"/>
<text text-anchor="middle" x="270.4" y="-159.45" font-family="Times New Roman,serif" font-size="20.00">IsIn(bellpepper,box)</text>
</g>
<!-- af5e723f&#45;37d7&#45;490b&#45;b229&#45;5102d18d9556&#45;&gt;f81e5922&#45;1b76&#45;4161&#45;84e9&#45;2440f5b2b33b -->
<g id="edge13" class="edge">
<title>af5e723f&#45;37d7&#45;490b&#45;b229&#45;5102d18d9556&#45;&gt;f81e5922&#45;1b76&#45;4161&#45;84e9&#45;2440f5b2b33b</title>
<path fill="none" stroke="black" d="M412.93,-236.49C390.89,-225.93 353.11,-207.83 321.98,-192.91"/>
<polygon fill="black" stroke="black" points="323.61,-189.81 313.07,-188.65 320.58,-196.12 323.61,-189.81"/>
</g>
<!-- f618819e&#45;e447&#45;4d3f&#45;8554&#45;8ab05ea98c29 -->
<g id="node15" class="node">
<title>f618819e&#45;e447&#45;4d3f&#45;8554&#45;8ab05ea98c29</title>
<polygon fill="#b0ffff" stroke="black" points="449.15,-182.45 413.65,-182.45 413.65,-151.95 449.15,-151.95 449.15,-182.45"/>
<text text-anchor="middle" x="431.4" y="-159.45" font-family="Times New Roman,serif" font-size="20.00"> ? </text>
</g>
<!-- af5e723f&#45;37d7&#45;490b&#45;b229&#45;5102d18d9556&#45;&gt;f618819e&#45;e447&#45;4d3f&#45;8554&#45;8ab05ea98c29 -->
<g id="edge14" class="edge">
<title>af5e723f&#45;37d7&#45;490b&#45;b229&#45;5102d18d9556&#45;&gt;f618819e&#45;e447&#45;4d3f&#45;8554&#45;8ab05ea98c29</title>
<path fill="none" stroke="black" d="M431.4,-230.83C431.4,-220.55 431.4,-206.48 431.4,-194.27"/>
<polygon fill="black" stroke="black" points="434.9,-194.42 431.4,-184.42 427.9,-194.42 434.9,-194.42"/>
</g>
<!-- 8243b88f&#45;d9db&#45;4644&#45;800e&#45;50c9a1dbbd7a -->
<g id="node16" class="node">
<title>8243b88f&#45;d9db&#45;4644&#45;800e&#45;50c9a1dbbd7a</title>
<polygon fill="#ff8080" stroke="black" points="356.52,-109.63 320.27,-109.63 320.27,-79.13 356.52,-79.13 356.52,-109.63"/>
<text text-anchor="middle" x="338.4" y="-86.63" font-family="Times New Roman,serif" font-size="20.00">→</text>
</g>
<!-- f618819e&#45;e447&#45;4d3f&#45;8554&#45;8ab05ea98c29&#45;&gt;8243b88f&#45;d9db&#45;4644&#45;800e&#45;50c9a1dbbd7a -->
<g id="edge15" class="edge">
<title>f618819e&#45;e447&#45;4d3f&#45;8554&#45;8ab05ea98c29&#45;&gt;8243b88f&#45;d9db&#45;4644&#45;800e&#45;50c9a1dbbd7a</title>
<path fill="none" stroke="black" d="M413.46,-152.55C400,-142.29 381.32,-128.07 365.96,-116.38"/>
<polygon fill="black" stroke="black" points="368.19,-113.67 358.11,-110.4 363.95,-119.24 368.19,-113.67"/>
</g>
<!-- afb26a19&#45;d7b2&#45;47cd&#45;9e13&#45;2cf3c09228ca -->
<g id="node19" class="node">
<title>afb26a19&#45;d7b2&#45;47cd&#45;9e13&#45;2cf3c09228ca</title>
<polygon fill="#ff8080" stroke="black" points="542.52,-109.63 506.27,-109.63 506.27,-79.13 542.52,-79.13 542.52,-109.63"/>
<text text-anchor="middle" x="524.4" y="-86.63" font-family="Times New Roman,serif" font-size="20.00">→</text>
</g>
<!-- f618819e&#45;e447&#45;4d3f&#45;8554&#45;8ab05ea98c29&#45;&gt;afb26a19&#45;d7b2&#45;47cd&#45;9e13&#45;2cf3c09228ca -->
<g id="edge18" class="edge">
<title>f618819e&#45;e447&#45;4d3f&#45;8554&#45;8ab05ea98c29&#45;&gt;afb26a19&#45;d7b2&#45;47cd&#45;9e13&#45;2cf3c09228ca</title>
<path fill="none" stroke="black" d="M449.33,-152.55C462.79,-142.29 481.47,-128.07 496.83,-116.38"/>
<polygon fill="black" stroke="black" points="498.84,-119.24 504.68,-110.4 494.6,-113.67 498.84,-119.24"/>
</g>
<!-- 135f1742&#45;fb10&#45;446e&#45;9406&#45;5f97616119c9 -->
<g id="node17" class="node">
<title>135f1742&#45;fb10&#45;446e&#45;9406&#45;5f97616119c9</title>
<ellipse fill="#ffff80" stroke="black" cx="126.4" cy="-21.57" rx="126.4" ry="21.57"/>
<text text-anchor="middle" x="126.4" y="-13.82" font-family="Times New Roman,serif" font-size="20.00">IsNear(self,curtains)</text>
</g>
<!-- 8243b88f&#45;d9db&#45;4644&#45;800e&#45;50c9a1dbbd7a&#45;&gt;135f1742&#45;fb10&#45;446e&#45;9406&#45;5f97616119c9 -->
<g id="edge16" class="edge">
<title>8243b88f&#45;d9db&#45;4644&#45;800e&#45;50c9a1dbbd7a&#45;&gt;135f1742&#45;fb10&#45;446e&#45;9406&#45;5f97616119c9</title>
<path fill="none" stroke="black" d="M319.95,-87.22C291.94,-77.87 237.26,-59.6 193.15,-44.86"/>
<polygon fill="black" stroke="black" points="194.5,-41.63 183.91,-41.78 192.28,-48.27 194.5,-41.63"/>
</g>
<!-- 272b66ff&#45;a220&#45;4ac6&#45;9adf&#45;fd74740f07c0 -->
<g id="node18" class="node">
<title>272b66ff&#45;a220&#45;4ac6&#45;9adf&#45;fd74740f07c0</title>
<polygon fill="lightgreen" stroke="black" points="405.65,-39.57 271.15,-39.57 271.15,-3.57 405.65,-3.57 405.65,-39.57"/>
<text text-anchor="middle" x="338.4" y="-13.82" font-family="Times New Roman,serif" font-size="20.00">Open(curtains)</text>
</g>
<!-- 8243b88f&#45;d9db&#45;4644&#45;800e&#45;50c9a1dbbd7a&#45;&gt;272b66ff&#45;a220&#45;4ac6&#45;9adf&#45;fd74740f07c0 -->
<g id="edge17" class="edge">
<title>8243b88f&#45;d9db&#45;4644&#45;800e&#45;50c9a1dbbd7a&#45;&gt;272b66ff&#45;a220&#45;4ac6&#45;9adf&#45;fd74740f07c0</title>
<path fill="none" stroke="black" d="M338.4,-78.71C338.4,-70.79 338.4,-60.74 338.4,-51.33"/>
<polygon fill="black" stroke="black" points="341.9,-51.48 338.4,-41.48 334.9,-51.48 341.9,-51.48"/>
</g>
<!-- 4aa20d76&#45;e68d&#45;4620&#45;a8ea&#45;df5ee474ed07 -->
<g id="node20" class="node">
<title>4aa20d76&#45;e68d&#45;4620&#45;a8ea&#45;df5ee474ed07</title>
<ellipse fill="#ffff80" stroke="black" cx="524.4" cy="-21.57" rx="100.41" ry="21.57"/>
<text text-anchor="middle" x="524.4" y="-13.82" font-family="Times New Roman,serif" font-size="20.00">IsStanding(self)</text>
</g>
<!-- afb26a19&#45;d7b2&#45;47cd&#45;9e13&#45;2cf3c09228ca&#45;&gt;4aa20d76&#45;e68d&#45;4620&#45;a8ea&#45;df5ee474ed07 -->
<g id="edge19" class="edge">
<title>afb26a19&#45;d7b2&#45;47cd&#45;9e13&#45;2cf3c09228ca&#45;&gt;4aa20d76&#45;e68d&#45;4620&#45;a8ea&#45;df5ee474ed07</title>
<path fill="none" stroke="black" d="M524.4,-78.71C524.4,-71.77 524.4,-63.19 524.4,-54.85"/>
<polygon fill="black" stroke="black" points="527.9,-54.91 524.4,-44.91 520.9,-54.91 527.9,-54.91"/>
</g>
<!-- 906f9870&#45;21bb&#45;4e23&#45;80b8&#45;1b91e3290582 -->
<g id="node21" class="node">
<title>906f9870&#45;21bb&#45;4e23&#45;80b8&#45;1b91e3290582</title>
<polygon fill="lightgreen" stroke="black" points="775.9,-39.57 642.9,-39.57 642.9,-3.57 775.9,-3.57 775.9,-39.57"/>
<text text-anchor="middle" x="709.4" y="-13.82" font-family="Times New Roman,serif" font-size="20.00">Walk(curtains)</text>
</g>
<!-- afb26a19&#45;d7b2&#45;47cd&#45;9e13&#45;2cf3c09228ca&#45;&gt;906f9870&#45;21bb&#45;4e23&#45;80b8&#45;1b91e3290582 -->
<g id="edge20" class="edge">
<title>afb26a19&#45;d7b2&#45;47cd&#45;9e13&#45;2cf3c09228ca&#45;&gt;906f9870&#45;21bb&#45;4e23&#45;80b8&#45;1b91e3290582</title>
<path fill="none" stroke="black" d="M542.81,-86.33C568.37,-76.55 615.72,-58.42 653.42,-43.99"/>
<polygon fill="black" stroke="black" points="654.27,-47.41 662.36,-40.57 651.77,-40.88 654.27,-47.41"/>
</g>
<!-- e15c36e0&#45;c431&#45;413a&#45;bb14&#45;84507876783a -->
<g id="node23" class="node">
<title>e15c36e0&#45;c431&#45;413a&#45;bb14&#45;84507876783a</title>
<ellipse fill="#ffff80" stroke="black" cx="570.4" cy="-167.2" rx="103.06" ry="21.57"/>
<text text-anchor="middle" x="570.4" y="-159.45" font-family="Times New Roman,serif" font-size="20.00">IsNear(self,box)</text>
</g>
<!-- 1417bcef&#45;16ef&#45;4913&#45;8193&#45;a4c4fb0aaa31&#45;&gt;e15c36e0&#45;c431&#45;413a&#45;bb14&#45;84507876783a -->
<g id="edge22" class="edge">
<title>1417bcef&#45;16ef&#45;4913&#45;8193&#45;a4c4fb0aaa31&#45;&gt;e15c36e0&#45;c431&#45;413a&#45;bb14&#45;84507876783a</title>
<path fill="none" stroke="black" d="M854.9,-240.62C814.22,-230.27 715.09,-205.03 645.33,-187.28"/>
<polygon fill="black" stroke="black" points="646.42,-183.94 635.87,-184.87 644.69,-190.73 646.42,-183.94"/>
</g>
<!-- 13b62d16&#45;5ca0&#45;40a0&#45;8b96&#45;8a6d8e59d079 -->
<g id="node24" class="node">
<title>13b62d16&#45;5ca0&#45;40a0&#45;8b96&#45;8a6d8e59d079</title>
<ellipse fill="#ffff80" stroke="black" cx="773.4" cy="-167.2" rx="81.85" ry="21.57"/>
<text text-anchor="middle" x="773.4" y="-159.45" font-family="Times New Roman,serif" font-size="20.00">IsOpen(box)</text>
</g>
<!-- 1417bcef&#45;16ef&#45;4913&#45;8193&#45;a4c4fb0aaa31&#45;&gt;13b62d16&#45;5ca0&#45;40a0&#45;8b96&#45;8a6d8e59d079 -->
<g id="edge23" class="edge">
<title>1417bcef&#45;16ef&#45;4913&#45;8193&#45;a4c4fb0aaa31&#45;&gt;13b62d16&#45;5ca0&#45;40a0&#45;8b96&#45;8a6d8e59d079</title>
<path fill="none" stroke="black" d="M855.05,-231.19C841.95,-221.08 823.92,-207.17 808.13,-194.99"/>
<polygon fill="black" stroke="black" points="810.41,-192.33 800.35,-188.99 806.13,-197.87 810.41,-192.33"/>
</g>
<!-- 73952fef&#45;b917&#45;4258&#45;b15f&#45;972f7575b069 -->
<g id="node25" class="node">
<title>73952fef&#45;b917&#45;4258&#45;b15f&#45;972f7575b069</title>
<ellipse fill="#ffff80" stroke="black" cx="973.4" cy="-167.2" rx="100.41" ry="21.57"/>
<text text-anchor="middle" x="973.4" y="-159.45" font-family="Times New Roman,serif" font-size="20.00">IsStanding(self)</text>
</g>
<!-- 1417bcef&#45;16ef&#45;4913&#45;8193&#45;a4c4fb0aaa31&#45;&gt;73952fef&#45;b917&#45;4258&#45;b15f&#45;972f7575b069 -->
<g id="edge24" class="edge">
<title>1417bcef&#45;16ef&#45;4913&#45;8193&#45;a4c4fb0aaa31&#45;&gt;73952fef&#45;b917&#45;4258&#45;b15f&#45;972f7575b069</title>
<path fill="none" stroke="black" d="M891.74,-231.19C904.75,-221.15 922.61,-207.37 938.32,-195.26"/>
<polygon fill="black" stroke="black" points="940.28,-198.16 946.06,-189.28 936.01,-192.62 940.28,-198.16"/>
</g>
<!-- 72baddcd&#45;e551&#45;49f5&#45;b3aa&#45;27e61742008c -->
<g id="node26" class="node">
<title>72baddcd&#45;e551&#45;49f5&#45;b3aa&#45;27e61742008c</title>
<ellipse fill="#ffff80" stroke="black" cx="1281.4" cy="-167.2" rx="189.5" ry="21.57"/>
<text text-anchor="middle" x="1281.4" y="-159.45" font-family="Times New Roman,serif" font-size="20.00">IsRightHolding(self,bellpepper)</text>
</g>
<!-- 1417bcef&#45;16ef&#45;4913&#45;8193&#45;a4c4fb0aaa31&#45;&gt;72baddcd&#45;e551&#45;49f5&#45;b3aa&#45;27e61742008c -->
<g id="edge25" class="edge">
<title>1417bcef&#45;16ef&#45;4913&#45;8193&#45;a4c4fb0aaa31&#45;&gt;72baddcd&#45;e551&#45;49f5&#45;b3aa&#45;27e61742008c</title>
<path fill="none" stroke="black" d="M890.02,-230.66C893.28,-228.38 896.81,-226.28 900.4,-224.77 922.98,-215.24 1044.69,-198.07 1144.56,-185.14"/>
<polygon fill="black" stroke="black" points="1144.72,-188.64 1154.19,-183.89 1143.82,-181.7 1144.72,-188.64"/>
</g>
<!-- 1246469e&#45;e76a&#45;4a2f&#45;89a9&#45;d4cf6d531b15 -->
<g id="node27" class="node">
<title>1246469e&#45;e76a&#45;4a2f&#45;89a9&#45;d4cf6d531b15</title>
<polygon fill="lightgreen" stroke="black" points="1721.77,-185.2 1489.02,-185.2 1489.02,-149.2 1721.77,-149.2 1721.77,-185.2"/>
<text text-anchor="middle" x="1605.4" y="-159.45" font-family="Times New Roman,serif" font-size="20.00">RightPutIn(bellpepper,box)</text>
</g>
<!-- 1417bcef&#45;16ef&#45;4913&#45;8193&#45;a4c4fb0aaa31&#45;&gt;1246469e&#45;e76a&#45;4a2f&#45;89a9&#45;d4cf6d531b15 -->
<g id="edge26" class="edge">
<title>1417bcef&#45;16ef&#45;4913&#45;8193&#45;a4c4fb0aaa31&#45;&gt;1246469e&#45;e76a&#45;4a2f&#45;89a9&#45;d4cf6d531b15</title>
<path fill="none" stroke="black" d="M889.62,-230.61C892.98,-228.27 896.64,-226.17 900.4,-224.77 1021.41,-179.7 1352.08,-203.27 1480.4,-188.77 1484.7,-188.28 1489.08,-187.75 1493.5,-187.18"/>
<polygon fill="black" stroke="black" points="1493.6,-190.7 1503.05,-185.89 1492.67,-183.76 1493.6,-190.7"/>
</g>
<!-- f9259fc2&#45;8981&#45;4b3f&#45;9278&#45;5d549008574f -->
<g id="node29" class="node">
<title>f9259fc2&#45;8981&#45;4b3f&#45;9278&#45;5d549008574f</title>
<ellipse fill="#ffff80" stroke="black" cx="1099.4" cy="-246.33" rx="189.5" ry="21.57"/>
<text text-anchor="middle" x="1099.4" y="-238.58" font-family="Times New Roman,serif" font-size="20.00">IsRightHolding(self,bellpepper)</text>
</g>
<!-- 0cacc098&#45;5ab4&#45;4298&#45;9ffe&#45;061ace40297f&#45;&gt;f9259fc2&#45;8981&#45;4b3f&#45;9278&#45;5d549008574f -->
<g id="edge28" class="edge">
<title>0cacc098&#45;5ab4&#45;4298&#45;9ffe&#45;061ace40297f&#45;&gt;f9259fc2&#45;8981&#45;4b3f&#45;9278&#45;5d549008574f</title>
<path fill="none" stroke="black" d="M1502.03,-321.1C1451.85,-311.91 1309.37,-285.8 1208.18,-267.27"/>
<polygon fill="black" stroke="black" points="1208.94,-263.85 1198.47,-265.49 1207.68,-270.73 1208.94,-263.85"/>
</g>
<!-- acd0c27b&#45;24a0&#45;4f39&#45;84a6&#45;a1e6b6768c48 -->
<g id="node30" class="node">
<title>acd0c27b&#45;24a0&#45;4f39&#45;84a6&#45;a1e6b6768c48</title>
<ellipse fill="#ffff80" stroke="black" cx="1410.4" cy="-246.33" rx="103.06" ry="21.57"/>
<text text-anchor="middle" x="1410.4" y="-238.58" font-family="Times New Roman,serif" font-size="20.00">IsNear(self,box)</text>
</g>
<!-- 0cacc098&#45;5ab4&#45;4298&#45;9ffe&#45;061ace40297f&#45;&gt;acd0c27b&#45;24a0&#45;4f39&#45;84a6&#45;a1e6b6768c48 -->
<g id="edge29" class="edge">
<title>0cacc098&#45;5ab4&#45;4298&#45;9ffe&#45;061ace40297f&#45;&gt;acd0c27b&#45;24a0&#45;4f39&#45;84a6&#45;a1e6b6768c48</title>
<path fill="none" stroke="black" d="M1502.23,-311.73C1487.58,-301.45 1466.47,-286.65 1448.18,-273.83"/>
<polygon fill="black" stroke="black" points="1450.36,-271.08 1440.16,-268.21 1446.34,-276.81 1450.36,-271.08"/>
</g>
<!-- 157edf81&#45;57ba&#45;408f&#45;b705&#45;ada0dc53b780 -->
<g id="node31" class="node">
<title>157edf81&#45;57ba&#45;408f&#45;b705&#45;ada0dc53b780</title>
<ellipse fill="#ffff80" stroke="black" cx="1631.4" cy="-246.33" rx="100.41" ry="21.57"/>
<text text-anchor="middle" x="1631.4" y="-238.58" font-family="Times New Roman,serif" font-size="20.00">IsStanding(self)</text>
</g>
<!-- 0cacc098&#45;5ab4&#45;4298&#45;9ffe&#45;061ace40297f&#45;&gt;157edf81&#45;57ba&#45;408f&#45;b705&#45;ada0dc53b780 -->
<g id="edge30" class="edge">
<title>0cacc098&#45;5ab4&#45;4298&#45;9ffe&#45;061ace40297f&#45;&gt;157edf81&#45;57ba&#45;408f&#45;b705&#45;ada0dc53b780</title>
<path fill="none" stroke="black" d="M1538.88,-310.16C1541.71,-308.04 1544.62,-305.89 1547.4,-303.9 1561.56,-293.75 1577.35,-282.98 1591.38,-273.59"/>
<polygon fill="black" stroke="black" points="1593.13,-276.63 1599.52,-268.17 1589.25,-270.8 1593.13,-276.63"/>
</g>
<!-- 0845ae8e&#45;6303&#45;4042&#45;8938&#45;42cca2ac84a5 -->
<g id="node32" class="node">
<title>0845ae8e&#45;6303&#45;4042&#45;8938&#45;42cca2ac84a5</title>
<ellipse fill="#ffff80" stroke="black" cx="1833.4" cy="-246.33" rx="83.44" ry="21.57"/>
<text text-anchor="middle" x="1833.4" y="-238.58" font-family="Times New Roman,serif" font-size="20.00">IsClose(box)</text>
</g>
<!-- 0cacc098&#45;5ab4&#45;4298&#45;9ffe&#45;061ace40297f&#45;&gt;0845ae8e&#45;6303&#45;4042&#45;8938&#45;42cca2ac84a5 -->
<g id="edge31" class="edge">
<title>0cacc098&#45;5ab4&#45;4298&#45;9ffe&#45;061ace40297f&#45;&gt;0845ae8e&#45;6303&#45;4042&#45;8938&#45;42cca2ac84a5</title>
<path fill="none" stroke="black" d="M1537.06,-309.9C1540.32,-307.61 1543.84,-305.48 1547.4,-303.9 1627.15,-268.5 1654.9,-285.32 1740.4,-267.9 1747.04,-266.55 1753.94,-265.1 1760.85,-263.62"/>
<polygon fill="black" stroke="black" points="1761.16,-267.14 1770.2,-261.6 1759.68,-260.29 1761.16,-267.14"/>
</g>
<!-- 668ca805&#45;8f3b&#45;4d42&#45;938c&#45;9e1374c61911 -->
<g id="node33" class="node">
<title>668ca805&#45;8f3b&#45;4d42&#45;938c&#45;9e1374c61911</title>
<polygon fill="lightgreen" stroke="black" points="2036.15,-264.33 1934.65,-264.33 1934.65,-228.33 2036.15,-228.33 2036.15,-264.33"/>
<text text-anchor="middle" x="1985.4" y="-238.58" font-family="Times New Roman,serif" font-size="20.00">Open(box)</text>
</g>
<!-- 0cacc098&#45;5ab4&#45;4298&#45;9ffe&#45;061ace40297f&#45;&gt;668ca805&#45;8f3b&#45;4d42&#45;938c&#45;9e1374c61911 -->
<g id="edge32" class="edge">
<title>0cacc098&#45;5ab4&#45;4298&#45;9ffe&#45;061ace40297f&#45;&gt;668ca805&#45;8f3b&#45;4d42&#45;938c&#45;9e1374c61911</title>
<path fill="none" stroke="black" d="M1536.66,-309.85C1540.01,-307.5 1543.66,-305.36 1547.4,-303.9 1704.55,-242.41 1760.43,-303.51 1925.4,-267.9 1925.91,-267.79 1926.42,-267.68 1926.93,-267.56"/>
<polygon fill="black" stroke="black" points="1927.58,-271.01 1936.4,-265.13 1925.84,-264.23 1927.58,-271.01"/>
</g>
<!-- 0a98355b&#45;cf1d&#45;464b&#45;af00&#45;e5703915de4a -->
<g id="node35" class="node">
<title>0a98355b&#45;cf1d&#45;464b&#45;af00&#45;e5703915de4a</title>
<ellipse fill="#ffff80" stroke="black" cx="1746.4" cy="-325.47" rx="189.5" ry="21.57"/>
<text text-anchor="middle" x="1746.4" y="-317.72" font-family="Times New Roman,serif" font-size="20.00">IsRightHolding(self,bellpepper)</text>
</g>
<!-- ad0a1573&#45;9bd6&#45;4014&#45;852c&#45;3dee951da054&#45;&gt;0a98355b&#45;cf1d&#45;464b&#45;af00&#45;e5703915de4a -->
<g id="edge34" class="edge">
<title>ad0a1573&#45;9bd6&#45;4014&#45;852c&#45;3dee951da054&#45;&gt;0a98355b&#45;cf1d&#45;464b&#45;af00&#45;e5703915de4a</title>
<path fill="none" stroke="black" d="M2036.05,-399.01C1997.14,-389.26 1904.17,-365.98 1833.97,-348.4"/>
<polygon fill="black" stroke="black" points="1834.93,-345.03 1824.38,-346 1833.23,-351.82 1834.93,-345.03"/>
</g>
<!-- 861de727&#45;7ea1&#45;4d53&#45;a26a&#45;4d4192a0d958 -->
<g id="node36" class="node">
<title>861de727&#45;7ea1&#45;4d53&#45;a26a&#45;4d4192a0d958</title>
<ellipse fill="#ffff80" stroke="black" cx="2054.4" cy="-325.47" rx="100.41" ry="21.57"/>
<text text-anchor="middle" x="2054.4" y="-317.72" font-family="Times New Roman,serif" font-size="20.00">IsStanding(self)</text>
</g>
<!-- ad0a1573&#45;9bd6&#45;4014&#45;852c&#45;3dee951da054&#45;&gt;861de727&#45;7ea1&#45;4d53&#45;a26a&#45;4d4192a0d958 -->
<g id="edge35" class="edge">
<title>ad0a1573&#45;9bd6&#45;4014&#45;852c&#45;3dee951da054&#45;&gt;861de727&#45;7ea1&#45;4d53&#45;a26a&#45;4d4192a0d958</title>
<path fill="none" stroke="black" d="M2054.4,-389.09C2054.4,-380.53 2054.4,-369.34 2054.4,-358.78"/>
<polygon fill="black" stroke="black" points="2057.9,-358.83 2054.4,-348.83 2050.9,-358.83 2057.9,-358.83"/>
</g>
<!-- 58490037&#45;6788&#45;48c4&#45;9b12&#45;4dd6a1dae07f -->
<g id="node37" class="node">
<title>58490037&#45;6788&#45;48c4&#45;9b12&#45;4dd6a1dae07f</title>
<ellipse fill="#ffff80" stroke="black" cx="2256.4" cy="-325.47" rx="83.44" ry="21.57"/>
<text text-anchor="middle" x="2256.4" y="-317.72" font-family="Times New Roman,serif" font-size="20.00">IsClose(box)</text>
</g>
<!-- ad0a1573&#45;9bd6&#45;4014&#45;852c&#45;3dee951da054&#45;&gt;58490037&#45;6788&#45;48c4&#45;9b12&#45;4dd6a1dae07f -->
<g id="edge36" class="edge">
<title>ad0a1573&#45;9bd6&#45;4014&#45;852c&#45;3dee951da054&#45;&gt;58490037&#45;6788&#45;48c4&#45;9b12&#45;4dd6a1dae07f</title>
<path fill="none" stroke="black" d="M2071.83,-388.99C2074.9,-386.81 2078.16,-384.73 2081.4,-383.03 2113.81,-366.09 2152.25,-352.98 2184.84,-343.67"/>
<polygon fill="black" stroke="black" points="2185.5,-347.12 2194.19,-341.06 2183.62,-340.38 2185.5,-347.12"/>
</g>
<!-- b81cad6b&#45;e284&#45;4027&#45;9c18&#45;7c155a0acc62 -->
<g id="node38" class="node">
<title>b81cad6b&#45;e284&#45;4027&#45;9c18&#45;7c155a0acc62</title>
<polygon fill="lightgreen" stroke="black" points="2457.4,-343.47 2357.4,-343.47 2357.4,-307.47 2457.4,-307.47 2457.4,-343.47"/>
<text text-anchor="middle" x="2407.4" y="-317.72" font-family="Times New Roman,serif" font-size="20.00">Walk(box)</text>
</g>
<!-- ad0a1573&#45;9bd6&#45;4014&#45;852c&#45;3dee951da054&#45;&gt;b81cad6b&#45;e284&#45;4027&#45;9c18&#45;7c155a0acc62 -->
<g id="edge37" class="edge">
<title>ad0a1573&#45;9bd6&#45;4014&#45;852c&#45;3dee951da054&#45;&gt;b81cad6b&#45;e284&#45;4027&#45;9c18&#45;7c155a0acc62</title>
<path fill="none" stroke="black" d="M2071,-388.89C2074.27,-386.61 2077.8,-384.52 2081.4,-383.03 2192.03,-337.23 2231.94,-374.88 2348.4,-347.03 2348.63,-346.98 2348.87,-346.92 2349.11,-346.86"/>
<polygon fill="black" stroke="black" points="2349.78,-350.31 2358.52,-344.31 2347.95,-343.55 2349.78,-350.31"/>
</g>
<!-- f8253c29&#45;c95c&#45;479f&#45;8248&#45;891ddbe092ba -->
<g id="node40" class="node">
<title>f8253c29&#45;c95c&#45;479f&#45;8248&#45;891ddbe092ba</title>
<ellipse fill="#ffff80" stroke="black" cx="2231.4" cy="-404.6" rx="141.24" ry="21.57"/>
<text text-anchor="middle" x="2231.4" y="-396.85" font-family="Times New Roman,serif" font-size="20.00">IsNear(self,bellpepper)</text>
</g>
<!-- a174a479&#45;f6be&#45;4376&#45;a567&#45;768dc8e21659&#45;&gt;f8253c29&#45;c95c&#45;479f&#45;8248&#45;891ddbe092ba -->
<g id="edge39" class="edge">
<title>a174a479&#45;f6be&#45;4376&#45;a567&#45;768dc8e21659&#45;&gt;f8253c29&#45;c95c&#45;479f&#45;8248&#45;891ddbe092ba</title>
<path fill="none" stroke="black" d="M2654.97,-479.52C2601.08,-470.11 2440.84,-442.15 2333.64,-423.44"/>
<polygon fill="black" stroke="black" points="2334.41,-420.02 2323.96,-421.75 2333.2,-426.92 2334.41,-420.02"/>
</g>
<!-- 26512298&#45;ad42&#45;45bd&#45;9bb3&#45;9ad4409f10e8 -->
<g id="node41" class="node">
<title>26512298&#45;ad42&#45;45bd&#45;9bb3&#45;9ad4409f10e8</title>
<ellipse fill="#ffff80" stroke="black" cx="2539.4" cy="-404.6" rx="149.2" ry="21.57"/>
<text text-anchor="middle" x="2539.4" y="-396.85" font-family="Times New Roman,serif" font-size="20.00">IsRightHandEmpty(self)</text>
</g>
<!-- a174a479&#45;f6be&#45;4376&#45;a567&#45;768dc8e21659&#45;&gt;26512298&#45;ad42&#45;45bd&#45;9bb3&#45;9ad4409f10e8 -->
<g id="edge40" class="edge">
<title>a174a479&#45;f6be&#45;4376&#45;a567&#45;768dc8e21659&#45;&gt;26512298&#45;ad42&#45;45bd&#45;9bb3&#45;9ad4409f10e8</title>
<path fill="none" stroke="black" d="M2655.04,-472.17C2636.96,-461.76 2608.63,-445.45 2584.53,-431.58"/>
<polygon fill="black" stroke="black" points="2586.57,-428.72 2576.16,-426.76 2583.08,-434.79 2586.57,-428.72"/>
</g>
<!-- 44335403&#45;9b21&#45;467d&#45;8da2&#45;96be9b2e5dd8 -->
<g id="node42" class="node">
<title>44335403&#45;9b21&#45;467d&#45;8da2&#45;96be9b2e5dd8</title>
<ellipse fill="#ffff80" stroke="black" cx="2807.4" cy="-404.6" rx="100.41" ry="21.57"/>
<text text-anchor="middle" x="2807.4" y="-396.85" font-family="Times New Roman,serif" font-size="20.00">IsStanding(self)</text>
</g>
<!-- a174a479&#45;f6be&#45;4376&#45;a567&#45;768dc8e21659&#45;&gt;44335403&#45;9b21&#45;467d&#45;8da2&#45;96be9b2e5dd8 -->
<g id="edge41" class="edge">
<title>a174a479&#45;f6be&#45;4376&#45;a567&#45;768dc8e21659&#45;&gt;44335403&#45;9b21&#45;467d&#45;8da2&#45;96be9b2e5dd8</title>
<path fill="none" stroke="black" d="M2691.7,-468.16C2694.55,-466.07 2697.52,-464.01 2700.4,-462.17 2718.39,-450.67 2738.96,-439.39 2757.22,-429.96"/>
<polygon fill="black" stroke="black" points="2758.72,-433.13 2766.04,-425.47 2755.54,-426.89 2758.72,-433.13"/>
</g>
<!-- 1830b323&#45;b7c0&#45;40c5&#45;91e8&#45;4ad4193a5e48 -->
<g id="node43" class="node">
<title>1830b323&#45;b7c0&#45;40c5&#45;91e8&#45;4ad4193a5e48</title>
<ellipse fill="#ffff80" stroke="black" cx="3009.4" cy="-404.6" rx="83.44" ry="21.57"/>
<text text-anchor="middle" x="3009.4" y="-396.85" font-family="Times New Roman,serif" font-size="20.00">IsClose(box)</text>
</g>
<!-- a174a479&#45;f6be&#45;4376&#45;a567&#45;768dc8e21659&#45;&gt;1830b323&#45;b7c0&#45;40c5&#45;91e8&#45;4ad4193a5e48 -->
<g id="edge42" class="edge">
<title>a174a479&#45;f6be&#45;4376&#45;a567&#45;768dc8e21659&#45;&gt;1830b323&#45;b7c0&#45;40c5&#45;91e8&#45;4ad4193a5e48</title>
<path fill="none" stroke="black" d="M2690.04,-468.11C2693.3,-465.83 2696.83,-463.71 2700.4,-462.17 2789.73,-423.55 2820.85,-444.68 2916.4,-426.17 2923.08,-424.87 2930.02,-423.46 2936.96,-422.01"/>
<polygon fill="black" stroke="black" points="2937.68,-425.43 2946.73,-419.93 2936.22,-418.59 2937.68,-425.43"/>
</g>
<!-- 5c544eae&#45;c6dd&#45;4e41&#45;a3f9&#45;dfc04fa4b44f -->
<g id="node44" class="node">
<title>5c544eae&#45;c6dd&#45;4e41&#45;a3f9&#45;dfc04fa4b44f</title>
<polygon fill="lightgreen" stroke="black" points="3306.4,-422.6 3110.4,-422.6 3110.4,-386.6 3306.4,-386.6 3306.4,-422.6"/>
<text text-anchor="middle" x="3208.4" y="-396.85" font-family="Times New Roman,serif" font-size="20.00">RightGrab(bellpepper)</text>
</g>
<!-- a174a479&#45;f6be&#45;4376&#45;a567&#45;768dc8e21659&#45;&gt;5c544eae&#45;c6dd&#45;4e41&#45;a3f9&#45;dfc04fa4b44f -->
<g id="edge43" class="edge">
<title>a174a479&#45;f6be&#45;4376&#45;a567&#45;768dc8e21659&#45;&gt;5c544eae&#45;c6dd&#45;4e41&#45;a3f9&#45;dfc04fa4b44f</title>
<path fill="none" stroke="black" d="M2689.65,-468.1C2693,-465.75 2696.66,-463.62 2700.4,-462.17 2867.21,-397.42 2924.2,-451.09 3101.4,-426.17 3104.37,-425.75 3107.38,-425.3 3110.42,-424.84"/>
<polygon fill="black" stroke="black" points="3110.69,-428.34 3120.01,-423.3 3109.58,-421.43 3110.69,-428.34"/>
</g>
<!-- 802c80cb&#45;581b&#45;48d8&#45;bdc0&#45;2fec4dff55d2 -->
<g id="node46" class="node">
<title>802c80cb&#45;581b&#45;48d8&#45;bdc0&#45;2fec4dff55d2</title>
<ellipse fill="#ffff80" stroke="black" cx="2858.4" cy="-483.73" rx="149.2" ry="21.57"/>
<text text-anchor="middle" x="2858.4" y="-475.98" font-family="Times New Roman,serif" font-size="20.00">IsRightHandEmpty(self)</text>
</g>
<!-- d0171efc&#45;2b5f&#45;40e5&#45;bf60&#45;e7622534e6d1&#45;&gt;802c80cb&#45;581b&#45;48d8&#45;bdc0&#45;2fec4dff55d2 -->
<g id="edge45" class="edge">
<title>d0171efc&#45;2b5f&#45;40e5&#45;bf60&#45;e7622534e6d1&#45;&gt;802c80cb&#45;581b&#45;48d8&#45;bdc0&#45;2fec4dff55d2</title>
<path fill="none" stroke="black" d="M3107.97,-550.68C3073.68,-541.62 2998.19,-521.67 2939.16,-506.07"/>
<polygon fill="black" stroke="black" points="2940.36,-502.77 2929.8,-503.6 2938.58,-509.54 2940.36,-502.77"/>
</g>
<!-- 14b61b82&#45;b3c9&#45;48e9&#45;b08e&#45;2ef6f69dc91b -->
<g id="node47" class="node">
<title>14b61b82&#45;b3c9&#45;48e9&#45;b08e&#45;2ef6f69dc91b</title>
<ellipse fill="#ffff80" stroke="black" cx="3126.4" cy="-483.73" rx="100.41" ry="21.57"/>
<text text-anchor="middle" x="3126.4" y="-475.98" font-family="Times New Roman,serif" font-size="20.00">IsStanding(self)</text>
</g>
<!-- d0171efc&#45;2b5f&#45;40e5&#45;bf60&#45;e7622534e6d1&#45;&gt;14b61b82&#45;b3c9&#45;48e9&#45;b08e&#45;2ef6f69dc91b -->
<g id="edge46" class="edge">
<title>d0171efc&#45;2b5f&#45;40e5&#45;bf60&#45;e7622534e6d1&#45;&gt;14b61b82&#45;b3c9&#45;48e9&#45;b08e&#45;2ef6f69dc91b</title>
<path fill="none" stroke="black" d="M3126.4,-540.88C3126.4,-533.94 3126.4,-525.36 3126.4,-517.01"/>
<polygon fill="black" stroke="black" points="3129.9,-517.08 3126.4,-507.08 3122.9,-517.08 3129.9,-517.08"/>
</g>
<!-- 2efa6b7a&#45;81d5&#45;4ccb&#45;bd4b&#45;fa9226069061 -->
<g id="node48" class="node">
<title>2efa6b7a&#45;81d5&#45;4ccb&#45;bd4b&#45;fa9226069061</title>
<ellipse fill="#ffff80" stroke="black" cx="3328.4" cy="-483.73" rx="83.44" ry="21.57"/>
<text text-anchor="middle" x="3328.4" y="-475.98" font-family="Times New Roman,serif" font-size="20.00">IsClose(box)</text>
</g>
<!-- d0171efc&#45;2b5f&#45;40e5&#45;bf60&#45;e7622534e6d1&#45;&gt;2efa6b7a&#45;81d5&#45;4ccb&#45;bd4b&#45;fa9226069061 -->
<g id="edge47" class="edge">
<title>d0171efc&#45;2b5f&#45;40e5&#45;bf60&#45;e7622534e6d1&#45;&gt;2efa6b7a&#45;81d5&#45;4ccb&#45;bd4b&#45;fa9226069061</title>
<path fill="none" stroke="black" d="M3144.68,-549.14C3172.55,-539.37 3226.91,-520.31 3269.3,-505.45"/>
<polygon fill="black" stroke="black" points="3270.36,-508.79 3278.64,-502.18 3268.04,-502.18 3270.36,-508.79"/>
</g>
<!-- 55cf255d&#45;5d6f&#45;491b&#45;8498&#45;0e48634dccd6 -->
<g id="node49" class="node">
<title>55cf255d&#45;5d6f&#45;491b&#45;8498&#45;0e48634dccd6</title>
<polygon fill="lightgreen" stroke="black" points="3583.4,-501.73 3429.4,-501.73 3429.4,-465.73 3583.4,-465.73 3583.4,-501.73"/>
<text text-anchor="middle" x="3506.4" y="-475.98" font-family="Times New Roman,serif" font-size="20.00">Walk(bellpepper)</text>
</g>
<!-- d0171efc&#45;2b5f&#45;40e5&#45;bf60&#45;e7622534e6d1&#45;&gt;55cf255d&#45;5d6f&#45;491b&#45;8498&#45;0e48634dccd6 -->
<g id="edge48" class="edge">
<title>d0171efc&#45;2b5f&#45;40e5&#45;bf60&#45;e7622534e6d1&#45;&gt;55cf255d&#45;5d6f&#45;491b&#45;8498&#45;0e48634dccd6</title>
<path fill="none" stroke="black" d="M3144.71,-552.85C3191.05,-545.92 3316.65,-526.55 3420.4,-505.3 3421.6,-505.05 3422.81,-504.8 3424.03,-504.55"/>
<polygon fill="black" stroke="black" points="3424.63,-508 3433.67,-502.47 3423.15,-501.16 3424.63,-508"/>
</g>
</g>
</svg>
