<?xml version="1.0" encoding="UTF-8" standalone="no"?>
<!DOCTYPE svg PUBLIC "-//W3C//DTD SVG 1.1//EN"
 "http://www.w3.org/Graphics/SVG/1.1/DTD/svg11.dtd">
<!-- Generated by graphviz version 12.1.0 (20240811.2233)
 -->
<!-- Title: pastafarianism Pages: 1 -->
<svg width="2143pt" height="427pt"
 viewBox="0.00 0.00 2142.74 427.03" xmlns="http://www.w3.org/2000/svg" xmlns:xlink="http://www.w3.org/1999/xlink">
<g id="graph0" class="graph" transform="scale(1 1) rotate(0) translate(4 423.03)">
<title>pastafarianism</title>
<polygon fill="white" stroke="none" points="-4,4 -4,-423.03 2138.74,-423.03 2138.74,4 -4,4"/>
<!-- 7112cd63&#45;e261&#45;4502&#45;8352&#45;0f3a21519bb8 -->
<g id="node1" class="node">
<title>7112cd63&#45;e261&#45;4502&#45;8352&#45;0f3a21519bb8</title>
<polygon fill="#b0ffff" stroke="black" points="1041.74,-419.03 1006.24,-419.03 1006.24,-388.53 1041.74,-388.53 1041.74,-419.03"/>
<text text-anchor="middle" x="1023.99" y="-396.03" font-family="Times New Roman,serif" font-size="20.00"> ? </text>
</g>
<!-- 5c95d0de&#45;0ea6&#45;43b0&#45;8dc2&#45;0d51c82bf0d2 -->
<g id="node2" class="node">
<title>5c95d0de&#45;0ea6&#45;43b0&#45;8dc2&#45;0d51c82bf0d2</title>
<ellipse fill="#ffff80" stroke="black" cx="890.99" cy="-330.97" rx="97.23" ry="21.57"/>
<text text-anchor="middle" x="890.99" y="-323.22" font-family="Times New Roman,serif" font-size="20.00">IsCut(pancake)</text>
</g>
<!-- 7112cd63&#45;e261&#45;4502&#45;8352&#45;0f3a21519bb8&#45;&gt;5c95d0de&#45;0ea6&#45;43b0&#45;8dc2&#45;0d51c82bf0d2 -->
<g id="edge1" class="edge">
<title>7112cd63&#45;e261&#45;4502&#45;8352&#45;0f3a21519bb8&#45;&gt;5c95d0de&#45;0ea6&#45;43b0&#45;8dc2&#45;0d51c82bf0d2</title>
<path fill="none" stroke="black" d="M1005.77,-393.09C988.3,-383.78 961.17,-369.34 937.67,-356.82"/>
<polygon fill="black" stroke="black" points="939.33,-353.74 928.86,-352.13 936.04,-359.92 939.33,-353.74"/>
</g>
<!-- 435e5b77&#45;8184&#45;431b&#45;b4ee&#45;ad2b129ff4a0 -->
<g id="node3" class="node">
<title>435e5b77&#45;8184&#45;431b&#45;b4ee&#45;ad2b129ff4a0</title>
<polygon fill="#ff8080" stroke="black" points="1042.11,-346.22 1005.86,-346.22 1005.86,-315.72 1042.11,-315.72 1042.11,-346.22"/>
<text text-anchor="middle" x="1023.99" y="-323.22" font-family="Times New Roman,serif" font-size="20.00">→</text>
</g>
<!-- 7112cd63&#45;e261&#45;4502&#45;8352&#45;0f3a21519bb8&#45;&gt;435e5b77&#45;8184&#45;431b&#45;b4ee&#45;ad2b129ff4a0 -->
<g id="edge2" class="edge">
<title>7112cd63&#45;e261&#45;4502&#45;8352&#45;0f3a21519bb8&#45;&gt;435e5b77&#45;8184&#45;431b&#45;b4ee&#45;ad2b129ff4a0</title>
<path fill="none" stroke="black" d="M1023.99,-388.11C1023.99,-379.38 1023.99,-368.04 1023.99,-357.84"/>
<polygon fill="black" stroke="black" points="1027.49,-358.14 1023.99,-348.14 1020.49,-358.14 1027.49,-358.14"/>
</g>
<!-- d9a6172d&#45;509d&#45;472d&#45;9ea6&#45;1bab1b2e2406 -->
<g id="node18" class="node">
<title>d9a6172d&#45;509d&#45;472d&#45;9ea6&#45;1bab1b2e2406</title>
<polygon fill="#ff8080" stroke="black" points="1529.11,-346.22 1492.86,-346.22 1492.86,-315.72 1529.11,-315.72 1529.11,-346.22"/>
<text text-anchor="middle" x="1510.99" y="-323.22" font-family="Times New Roman,serif" font-size="20.00">→</text>
</g>
<!-- 7112cd63&#45;e261&#45;4502&#45;8352&#45;0f3a21519bb8&#45;&gt;d9a6172d&#45;509d&#45;472d&#45;9ea6&#45;1bab1b2e2406 -->
<g id="edge17" class="edge">
<title>7112cd63&#45;e261&#45;4502&#45;8352&#45;0f3a21519bb8&#45;&gt;d9a6172d&#45;509d&#45;472d&#45;9ea6&#45;1bab1b2e2406</title>
<path fill="none" stroke="black" d="M1042.19,-400.14C1115.56,-389.47 1390.04,-349.55 1481.29,-336.29"/>
<polygon fill="black" stroke="black" points="1481.54,-339.79 1490.93,-334.88 1480.53,-332.86 1481.54,-339.79"/>
</g>
<!-- 704e860c&#45;2f59&#45;4c05&#45;a91b&#45;b3c9340b3228 -->
<g id="node4" class="node">
<title>704e860c&#45;2f59&#45;4c05&#45;a91b&#45;b3c9340b3228</title>
<ellipse fill="#ffff80" stroke="black" cx="818.99" cy="-251.83" rx="169.35" ry="21.57"/>
<text text-anchor="middle" x="818.99" y="-244.08" font-family="Times New Roman,serif" font-size="20.00">IsLeftHolding(self,pancake)</text>
</g>
<!-- 435e5b77&#45;8184&#45;431b&#45;b4ee&#45;ad2b129ff4a0&#45;&gt;704e860c&#45;2f59&#45;4c05&#45;a91b&#45;b3c9340b3228 -->
<g id="edge3" class="edge">
<title>435e5b77&#45;8184&#45;431b&#45;b4ee&#45;ad2b129ff4a0&#45;&gt;704e860c&#45;2f59&#45;4c05&#45;a91b&#45;b3c9340b3228</title>
<path fill="none" stroke="black" d="M1006.56,-315.34C1003.48,-313.16 1000.23,-311.09 996.99,-309.4 969.31,-295.01 937.29,-283.45 908.11,-274.62"/>
<polygon fill="black" stroke="black" points="909.11,-271.27 898.53,-271.8 907.13,-277.98 909.11,-271.27"/>
</g>
<!-- 0c7edd02&#45;c691&#45;4b5a&#45;a68f&#45;8bbcda7fd0b8 -->
<g id="node5" class="node">
<title>0c7edd02&#45;c691&#45;4b5a&#45;a68f&#45;8bbcda7fd0b8</title>
<polygon fill="#b0ffff" stroke="black" points="1041.74,-267.08 1006.24,-267.08 1006.24,-236.58 1041.74,-236.58 1041.74,-267.08"/>
<text text-anchor="middle" x="1023.99" y="-244.08" font-family="Times New Roman,serif" font-size="20.00"> ? </text>
</g>
<!-- 435e5b77&#45;8184&#45;431b&#45;b4ee&#45;ad2b129ff4a0&#45;&gt;0c7edd02&#45;c691&#45;4b5a&#45;a68f&#45;8bbcda7fd0b8 -->
<g id="edge4" class="edge">
<title>435e5b77&#45;8184&#45;431b&#45;b4ee&#45;ad2b129ff4a0&#45;&gt;0c7edd02&#45;c691&#45;4b5a&#45;a68f&#45;8bbcda7fd0b8</title>
<path fill="none" stroke="black" d="M1023.99,-315.46C1023.99,-305.18 1023.99,-291.11 1023.99,-278.91"/>
<polygon fill="black" stroke="black" points="1027.49,-279.05 1023.99,-269.05 1020.49,-279.05 1027.49,-279.05"/>
</g>
<!-- 8e10774c&#45;2949&#45;4238&#45;b0ae&#45;76903befd690 -->
<g id="node6" class="node">
<title>8e10774c&#45;2949&#45;4238&#45;b0ae&#45;76903befd690</title>
<polygon fill="#b0ffff" stroke="black" points="743.74,-191.52 708.24,-191.52 708.24,-161.02 743.74,-161.02 743.74,-191.52"/>
<text text-anchor="middle" x="725.99" y="-168.52" font-family="Times New Roman,serif" font-size="20.00"> ? </text>
</g>
<!-- 0c7edd02&#45;c691&#45;4b5a&#45;a68f&#45;8bbcda7fd0b8&#45;&gt;8e10774c&#45;2949&#45;4238&#45;b0ae&#45;76903befd690 -->
<g id="edge5" class="edge">
<title>0c7edd02&#45;c691&#45;4b5a&#45;a68f&#45;8bbcda7fd0b8&#45;&gt;8e10774c&#45;2949&#45;4238&#45;b0ae&#45;76903befd690</title>
<path fill="none" stroke="black" d="M1007.01,-236.09C1003.83,-233.87 1000.43,-231.81 996.99,-230.27 914.57,-193.26 806.63,-182.02 755.41,-178.66"/>
<polygon fill="black" stroke="black" points="755.65,-175.17 745.46,-178.07 755.23,-182.16 755.65,-175.17"/>
</g>
<!-- b5af78f8&#45;21d9&#45;4a93&#45;a9b0&#45;2d7d0183afd8 -->
<g id="node14" class="node">
<title>b5af78f8&#45;21d9&#45;4a93&#45;a9b0&#45;2d7d0183afd8</title>
<polygon fill="#ff8080" stroke="black" points="1063.11,-191.52 1026.86,-191.52 1026.86,-161.02 1063.11,-161.02 1063.11,-191.52"/>
<text text-anchor="middle" x="1044.99" y="-168.52" font-family="Times New Roman,serif" font-size="20.00">→</text>
</g>
<!-- 0c7edd02&#45;c691&#45;4b5a&#45;a68f&#45;8bbcda7fd0b8&#45;&gt;b5af78f8&#45;21d9&#45;4a93&#45;a9b0&#45;2d7d0183afd8 -->
<g id="edge13" class="edge">
<title>0c7edd02&#45;c691&#45;4b5a&#45;a68f&#45;8bbcda7fd0b8&#45;&gt;b5af78f8&#45;21d9&#45;4a93&#45;a9b0&#45;2d7d0183afd8</title>
<path fill="none" stroke="black" d="M1028.14,-236.3C1030.87,-226.73 1034.52,-213.94 1037.72,-202.71"/>
<polygon fill="black" stroke="black" points="1041.05,-203.8 1040.43,-193.23 1034.32,-201.88 1041.05,-203.8"/>
</g>
<!-- 818e41dc&#45;d076&#45;4407&#45;ac5d&#45;806a5d873899 -->
<g id="node7" class="node">
<title>818e41dc&#45;d076&#45;4407&#45;ac5d&#45;806a5d873899</title>
<polygon fill="#ff8080" stroke="black" points="354.11,-115.95 317.86,-115.95 317.86,-85.45 354.11,-85.45 354.11,-115.95"/>
<text text-anchor="middle" x="335.99" y="-92.95" font-family="Times New Roman,serif" font-size="20.00">→</text>
</g>
<!-- 8e10774c&#45;2949&#45;4238&#45;b0ae&#45;76903befd690&#45;&gt;818e41dc&#45;d076&#45;4407&#45;ac5d&#45;806a5d873899 -->
<g id="edge6" class="edge">
<title>8e10774c&#45;2949&#45;4238&#45;b0ae&#45;76903befd690&#45;&gt;818e41dc&#45;d076&#45;4407&#45;ac5d&#45;806a5d873899</title>
<path fill="none" stroke="black" d="M707.96,-171.87C646.1,-160.2 442.09,-121.71 365.44,-107.26"/>
<polygon fill="black" stroke="black" points="366.24,-103.84 355.76,-105.43 364.94,-110.72 366.24,-103.84"/>
</g>
<!-- d74ae981&#45;b2ab&#45;48f1&#45;b92b&#45;05e8e6fe640e -->
<g id="node10" class="node">
<title>d74ae981&#45;b2ab&#45;48f1&#45;b92b&#45;05e8e6fe640e</title>
<polygon fill="#ff8080" stroke="black" points="744.11,-115.95 707.86,-115.95 707.86,-85.45 744.11,-85.45 744.11,-115.95"/>
<text text-anchor="middle" x="725.99" y="-92.95" font-family="Times New Roman,serif" font-size="20.00">→</text>
</g>
<!-- 8e10774c&#45;2949&#45;4238&#45;b0ae&#45;76903befd690&#45;&gt;d74ae981&#45;b2ab&#45;48f1&#45;b92b&#45;05e8e6fe640e -->
<g id="edge9" class="edge">
<title>8e10774c&#45;2949&#45;4238&#45;b0ae&#45;76903befd690&#45;&gt;d74ae981&#45;b2ab&#45;48f1&#45;b92b&#45;05e8e6fe640e</title>
<path fill="none" stroke="black" d="M725.99,-160.73C725.99,-151.26 725.99,-138.64 725.99,-127.49"/>
<polygon fill="black" stroke="black" points="729.49,-127.72 725.99,-117.72 722.49,-127.72 729.49,-127.72"/>
</g>
<!-- e5a653fd&#45;4c28&#45;4c04&#45;942d&#45;1c44baecdfd9 -->
<g id="node8" class="node">
<title>e5a653fd&#45;4c28&#45;4c04&#45;942d&#45;1c44baecdfd9</title>
<ellipse fill="#ffff80" stroke="black" cx="127.99" cy="-21.57" rx="127.99" ry="21.57"/>
<text text-anchor="middle" x="127.99" y="-13.82" font-family="Times New Roman,serif" font-size="20.00">IsHoldingKnife(self)</text>
</g>
<!-- 818e41dc&#45;d076&#45;4407&#45;ac5d&#45;806a5d873899&#45;&gt;e5a653fd&#45;4c28&#45;4c04&#45;942d&#45;1c44baecdfd9 -->
<g id="edge7" class="edge">
<title>818e41dc&#45;d076&#45;4407&#45;ac5d&#45;806a5d873899&#45;&gt;e5a653fd&#45;4c28&#45;4c04&#45;942d&#45;1c44baecdfd9</title>
<path fill="none" stroke="black" d="M317.53,-92.86C289.24,-82.36 233.85,-61.83 190.22,-45.65"/>
<polygon fill="black" stroke="black" points="191.71,-42.46 181.11,-42.27 189.27,-49.03 191.71,-42.46"/>
</g>
<!-- f02d471f&#45;7028&#45;4c06&#45;988e&#45;0fe73c6e542d -->
<g id="node9" class="node">
<title>f02d471f&#45;7028&#45;4c06&#45;988e&#45;0fe73c6e542d</title>
<polygon fill="lightgreen" stroke="black" points="397.61,-39.57 274.36,-39.57 274.36,-3.57 397.61,-3.57 397.61,-39.57"/>
<text text-anchor="middle" x="335.99" y="-13.82" font-family="Times New Roman,serif" font-size="20.00">Cut(pancake)</text>
</g>
<!-- 818e41dc&#45;d076&#45;4407&#45;ac5d&#45;806a5d873899&#45;&gt;f02d471f&#45;7028&#45;4c06&#45;988e&#45;0fe73c6e542d -->
<g id="edge8" class="edge">
<title>818e41dc&#45;d076&#45;4407&#45;ac5d&#45;806a5d873899&#45;&gt;f02d471f&#45;7028&#45;4c06&#45;988e&#45;0fe73c6e542d</title>
<path fill="none" stroke="black" d="M335.99,-85.19C335.99,-75.67 335.99,-62.89 335.99,-51.36"/>
<polygon fill="black" stroke="black" points="339.49,-51.49 335.99,-41.49 332.49,-51.49 339.49,-51.49"/>
</g>
<!-- 15755306&#45;a7be&#45;4294&#45;9fee&#45;10bb7e27f145 -->
<g id="node11" class="node">
<title>15755306&#45;a7be&#45;4294&#45;9fee&#45;10bb7e27f145</title>
<ellipse fill="#ffff80" stroke="black" cx="566.99" cy="-21.57" rx="151.85" ry="21.57"/>
<text text-anchor="middle" x="566.99" y="-13.82" font-family="Times New Roman,serif" font-size="20.00">IsNear(self,kitchenknife)</text>
</g>
<!-- d74ae981&#45;b2ab&#45;48f1&#45;b92b&#45;05e8e6fe640e&#45;&gt;15755306&#45;a7be&#45;4294&#45;9fee&#45;10bb7e27f145 -->
<g id="edge10" class="edge">
<title>d74ae981&#45;b2ab&#45;48f1&#45;b92b&#45;05e8e6fe640e&#45;&gt;15755306&#45;a7be&#45;4294&#45;9fee&#45;10bb7e27f145</title>
<path fill="none" stroke="black" d="M707.44,-90.7C685.8,-80.2 649.1,-62.4 618.65,-47.63"/>
<polygon fill="black" stroke="black" points="620.48,-44.63 609.95,-43.41 617.42,-50.92 620.48,-44.63"/>
</g>
<!-- 073949f5&#45;bea2&#45;4c20&#45;97f4&#45;8f6918646ac4 -->
<g id="node12" class="node">
<title>073949f5&#45;bea2&#45;4c20&#45;97f4&#45;8f6918646ac4</title>
<ellipse fill="#ffff80" stroke="black" cx="885.99" cy="-21.57" rx="149.2" ry="21.57"/>
<text text-anchor="middle" x="885.99" y="-13.82" font-family="Times New Roman,serif" font-size="20.00">IsRightHandEmpty(self)</text>
</g>
<!-- d74ae981&#45;b2ab&#45;48f1&#45;b92b&#45;05e8e6fe640e&#45;&gt;073949f5&#45;bea2&#45;4c20&#45;97f4&#45;8f6918646ac4 -->
<g id="edge11" class="edge">
<title>d74ae981&#45;b2ab&#45;48f1&#45;b92b&#45;05e8e6fe640e&#45;&gt;073949f5&#45;bea2&#45;4c20&#45;97f4&#45;8f6918646ac4</title>
<path fill="none" stroke="black" d="M743.86,-85.12C746.82,-82.98 749.93,-80.91 752.99,-79.13 774.33,-66.73 798.92,-55.5 821.1,-46.38"/>
<polygon fill="black" stroke="black" points="822.4,-49.63 830.37,-42.64 819.78,-43.14 822.4,-49.63"/>
</g>
<!-- 653bcc27&#45;29aa&#45;4435&#45;92ec&#45;17789a03b97d -->
<g id="node13" class="node">
<title>653bcc27&#45;29aa&#45;4435&#45;92ec&#45;17789a03b97d</title>
<polygon fill="lightgreen" stroke="black" points="1264.49,-39.57 1053.49,-39.57 1053.49,-3.57 1264.49,-3.57 1264.49,-39.57"/>
<text text-anchor="middle" x="1158.99" y="-13.82" font-family="Times New Roman,serif" font-size="20.00">RightGrab(kitchenknife)</text>
</g>
<!-- d74ae981&#45;b2ab&#45;48f1&#45;b92b&#45;05e8e6fe640e&#45;&gt;653bcc27&#45;29aa&#45;4435&#45;92ec&#45;17789a03b97d -->
<g id="edge12" class="edge">
<title>d74ae981&#45;b2ab&#45;48f1&#45;b92b&#45;05e8e6fe640e&#45;&gt;653bcc27&#45;29aa&#45;4435&#45;92ec&#45;17789a03b97d</title>
<path fill="none" stroke="black" d="M742.58,-84.96C745.85,-82.68 749.38,-80.6 752.99,-79.13 873.67,-29.95 915.13,-62.61 1043.99,-43.13 1046.79,-42.71 1049.64,-42.27 1052.51,-41.82"/>
<polygon fill="black" stroke="black" points="1052.86,-45.31 1062.17,-40.26 1051.74,-38.4 1052.86,-45.31"/>
</g>
<!-- 39e3a5b4&#45;11c4&#45;4f73&#45;b769&#45;f2ce9145ce2c -->
<g id="node15" class="node">
<title>39e3a5b4&#45;11c4&#45;4f73&#45;b769&#45;f2ce9145ce2c</title>
<ellipse fill="#ffff80" stroke="black" cx="910.99" cy="-100.7" rx="149.2" ry="21.57"/>
<text text-anchor="middle" x="910.99" y="-92.95" font-family="Times New Roman,serif" font-size="20.00">IsRightHandEmpty(self)</text>
</g>
<!-- b5af78f8&#45;21d9&#45;4a93&#45;a9b0&#45;2d7d0183afd8&#45;&gt;39e3a5b4&#45;11c4&#45;4f73&#45;b769&#45;f2ce9145ce2c -->
<g id="edge14" class="edge">
<title>b5af78f8&#45;21d9&#45;4a93&#45;a9b0&#45;2d7d0183afd8&#45;&gt;39e3a5b4&#45;11c4&#45;4f73&#45;b769&#45;f2ce9145ce2c</title>
<path fill="none" stroke="black" d="M1026.64,-165.19C1009.01,-155.52 981.64,-140.49 957.96,-127.49"/>
<polygon fill="black" stroke="black" points="959.84,-124.53 949.39,-122.79 956.48,-130.67 959.84,-124.53"/>
</g>
<!-- 11dfada1&#45;e61e&#45;490b&#45;b180&#45;2082cd0009d0 -->
<g id="node16" class="node">
<title>11dfada1&#45;e61e&#45;490b&#45;b180&#45;2082cd0009d0</title>
<ellipse fill="#ffff80" stroke="black" cx="1178.99" cy="-100.7" rx="100.41" ry="21.57"/>
<text text-anchor="middle" x="1178.99" y="-92.95" font-family="Times New Roman,serif" font-size="20.00">IsStanding(self)</text>
</g>
<!-- b5af78f8&#45;21d9&#45;4a93&#45;a9b0&#45;2d7d0183afd8&#45;&gt;11dfada1&#45;e61e&#45;490b&#45;b180&#45;2082cd0009d0 -->
<g id="edge15" class="edge">
<title>b5af78f8&#45;21d9&#45;4a93&#45;a9b0&#45;2d7d0183afd8&#45;&gt;11dfada1&#45;e61e&#45;490b&#45;b180&#45;2082cd0009d0</title>
<path fill="none" stroke="black" d="M1063.34,-165.19C1081.27,-155.34 1109.31,-139.96 1133.28,-126.79"/>
<polygon fill="black" stroke="black" points="1134.85,-129.92 1141.94,-122.04 1131.49,-123.79 1134.85,-129.92"/>
</g>
<!-- eb920004&#45;c9f8&#45;4156&#45;a93e&#45;841982b79035 -->
<g id="node17" class="node">
<title>eb920004&#45;c9f8&#45;4156&#45;a93e&#45;841982b79035</title>
<polygon fill="lightgreen" stroke="black" points="1466.49,-118.7 1297.49,-118.7 1297.49,-82.7 1466.49,-82.7 1466.49,-118.7"/>
<text text-anchor="middle" x="1381.99" y="-92.95" font-family="Times New Roman,serif" font-size="20.00">Walk(kitchenknife)</text>
</g>
<!-- b5af78f8&#45;21d9&#45;4a93&#45;a9b0&#45;2d7d0183afd8&#45;&gt;eb920004&#45;c9f8&#45;4156&#45;a93e&#45;841982b79035 -->
<g id="edge16" class="edge">
<title>b5af78f8&#45;21d9&#45;4a93&#45;a9b0&#45;2d7d0183afd8&#45;&gt;eb920004&#45;c9f8&#45;4156&#45;a93e&#45;841982b79035</title>
<path fill="none" stroke="black" d="M1063.58,-171.22C1104.27,-162.35 1204.25,-140.56 1287.99,-122.27 1289,-122.04 1290.03,-121.82 1291.06,-121.6"/>
<polygon fill="black" stroke="black" points="1291.74,-125.03 1300.76,-119.47 1290.25,-118.19 1291.74,-125.03"/>
</g>
<!-- 7308e41b&#45;e4a5&#45;4c8e&#45;91e9&#45;5428ffcae8ee -->
<g id="node19" class="node">
<title>7308e41b&#45;e4a5&#45;4c8e&#45;91e9&#45;5428ffcae8ee</title>
<ellipse fill="#ffff80" stroke="black" cx="1201.99" cy="-251.83" rx="141.77" ry="21.57"/>
<text text-anchor="middle" x="1201.99" y="-244.08" font-family="Times New Roman,serif" font-size="20.00">IsLeftHandEmpty(self)</text>
</g>
<!-- d9a6172d&#45;509d&#45;472d&#45;9ea6&#45;1bab1b2e2406&#45;&gt;7308e41b&#45;e4a5&#45;4c8e&#45;91e9&#45;5428ffcae8ee -->
<g id="edge18" class="edge">
<title>d9a6172d&#45;509d&#45;472d&#45;9ea6&#45;1bab1b2e2406&#45;&gt;7308e41b&#45;e4a5&#45;4c8e&#45;91e9&#45;5428ffcae8ee</title>
<path fill="none" stroke="black" d="M1492.58,-325.37C1452.69,-315.41 1356.12,-291.31 1285.21,-273.61"/>
<polygon fill="black" stroke="black" points="1286.08,-270.22 1275.53,-271.19 1284.38,-277.01 1286.08,-270.22"/>
</g>
<!-- 90123b25&#45;cfcc&#45;466e&#45;96bc&#45;706056b4c4c0 -->
<g id="node20" class="node">
<title>90123b25&#45;cfcc&#45;466e&#45;96bc&#45;706056b4c4c0</title>
<ellipse fill="#ffff80" stroke="black" cx="1510.99" cy="-251.83" rx="149.2" ry="21.57"/>
<text text-anchor="middle" x="1510.99" y="-244.08" font-family="Times New Roman,serif" font-size="20.00">IsRightHandEmpty(self)</text>
</g>
<!-- d9a6172d&#45;509d&#45;472d&#45;9ea6&#45;1bab1b2e2406&#45;&gt;90123b25&#45;cfcc&#45;466e&#45;96bc&#45;706056b4c4c0 -->
<g id="edge19" class="edge">
<title>d9a6172d&#45;509d&#45;472d&#45;9ea6&#45;1bab1b2e2406&#45;&gt;90123b25&#45;cfcc&#45;466e&#45;96bc&#45;706056b4c4c0</title>
<path fill="none" stroke="black" d="M1510.99,-315.46C1510.99,-306.9 1510.99,-295.7 1510.99,-285.15"/>
<polygon fill="black" stroke="black" points="1514.49,-285.2 1510.99,-275.2 1507.49,-285.2 1514.49,-285.2"/>
</g>
<!-- 09137119&#45;826d&#45;49df&#45;bdde&#45;ab607bda7ffb -->
<g id="node21" class="node">
<title>09137119&#45;826d&#45;49df&#45;bdde&#45;ab607bda7ffb</title>
<ellipse fill="#ffff80" stroke="black" cx="1778.99" cy="-251.83" rx="100.41" ry="21.57"/>
<text text-anchor="middle" x="1778.99" y="-244.08" font-family="Times New Roman,serif" font-size="20.00">IsStanding(self)</text>
</g>
<!-- d9a6172d&#45;509d&#45;472d&#45;9ea6&#45;1bab1b2e2406&#45;&gt;09137119&#45;826d&#45;49df&#45;bdde&#45;ab607bda7ffb -->
<g id="edge20" class="edge">
<title>d9a6172d&#45;509d&#45;472d&#45;9ea6&#45;1bab1b2e2406&#45;&gt;09137119&#45;826d&#45;49df&#45;bdde&#45;ab607bda7ffb</title>
<path fill="none" stroke="black" d="M1529.41,-324.67C1565.87,-314.17 1648.92,-290.27 1709.23,-272.91"/>
<polygon fill="black" stroke="black" points="1710.11,-276.3 1718.75,-270.17 1708.17,-269.57 1710.11,-276.3"/>
</g>
<!-- b5bf9c2a&#45;e78d&#45;4e47&#45;b88c&#45;0191c18db8ac -->
<g id="node22" class="node">
<title>b5bf9c2a&#45;e78d&#45;4e47&#45;b88c&#45;0191c18db8ac</title>
<polygon fill="#b0ffff" stroke="black" points="1932.74,-267.08 1897.24,-267.08 1897.24,-236.58 1932.74,-236.58 1932.74,-267.08"/>
<text text-anchor="middle" x="1914.99" y="-244.08" font-family="Times New Roman,serif" font-size="20.00"> ? </text>
</g>
<!-- d9a6172d&#45;509d&#45;472d&#45;9ea6&#45;1bab1b2e2406&#45;&gt;b5bf9c2a&#45;e78d&#45;4e47&#45;b88c&#45;0191c18db8ac -->
<g id="edge21" class="edge">
<title>d9a6172d&#45;509d&#45;472d&#45;9ea6&#45;1bab1b2e2406&#45;&gt;b5bf9c2a&#45;e78d&#45;4e47&#45;b88c&#45;0191c18db8ac</title>
<path fill="none" stroke="black" d="M1529.51,-330.37C1585.84,-330.96 1759.05,-327.9 1887.99,-273.4 1888.21,-273.31 1888.43,-273.21 1888.66,-273.11"/>
<polygon fill="black" stroke="black" points="1890.15,-276.29 1897.05,-268.26 1886.64,-270.23 1890.15,-276.29"/>
</g>
<!-- 71ac4436&#45;1973&#45;4be7&#45;ad98&#45;fcc4d62d7a87 -->
<g id="node23" class="node">
<title>71ac4436&#45;1973&#45;4be7&#45;ad98&#45;fcc4d62d7a87</title>
<polygon fill="#ff8080" stroke="black" points="1881.11,-191.52 1844.86,-191.52 1844.86,-161.02 1881.11,-161.02 1881.11,-191.52"/>
<text text-anchor="middle" x="1862.99" y="-168.52" font-family="Times New Roman,serif" font-size="20.00">→</text>
</g>
<!-- b5bf9c2a&#45;e78d&#45;4e47&#45;b88c&#45;0191c18db8ac&#45;&gt;71ac4436&#45;1973&#45;4be7&#45;ad98&#45;fcc4d62d7a87 -->
<g id="edge22" class="edge">
<title>b5bf9c2a&#45;e78d&#45;4e47&#45;b88c&#45;0191c18db8ac&#45;&gt;71ac4436&#45;1973&#45;4be7&#45;ad98&#45;fcc4d62d7a87</title>
<path fill="none" stroke="black" d="M1904.71,-236.3C1897.59,-226.22 1887.95,-212.58 1879.72,-200.95"/>
<polygon fill="black" stroke="black" points="1882.74,-199.15 1874.11,-193.01 1877.03,-203.19 1882.74,-199.15"/>
</g>
<!-- 6b40b871&#45;2f15&#45;4164&#45;9c5e&#45;f28e649a9a50 -->
<g id="node26" class="node">
<title>6b40b871&#45;2f15&#45;4164&#45;9c5e&#45;f28e649a9a50</title>
<polygon fill="lightgreen" stroke="black" points="2034.99,-194.27 1898.99,-194.27 1898.99,-158.27 2034.99,-158.27 2034.99,-194.27"/>
<text text-anchor="middle" x="1966.99" y="-168.52" font-family="Times New Roman,serif" font-size="20.00">Walk(pancake)</text>
</g>
<!-- b5bf9c2a&#45;e78d&#45;4e47&#45;b88c&#45;0191c18db8ac&#45;&gt;6b40b871&#45;2f15&#45;4164&#45;9c5e&#45;f28e649a9a50 -->
<g id="edge25" class="edge">
<title>b5bf9c2a&#45;e78d&#45;4e47&#45;b88c&#45;0191c18db8ac&#45;&gt;6b40b871&#45;2f15&#45;4164&#45;9c5e&#45;f28e649a9a50</title>
<path fill="none" stroke="black" d="M1925.26,-236.3C1931.81,-227.04 1940.49,-214.76 1948.23,-203.8"/>
<polygon fill="black" stroke="black" points="1950.93,-206.04 1953.85,-195.85 1945.22,-202 1950.93,-206.04"/>
</g>
<!-- 9328013d&#45;12c7&#45;4a19&#45;b158&#45;b5f5879f05cb -->
<g id="node24" class="node">
<title>9328013d&#45;12c7&#45;4a19&#45;b158&#45;b5f5879f05cb</title>
<ellipse fill="#ffff80" stroke="black" cx="1820.99" cy="-100.7" rx="128.52" ry="21.57"/>
<text text-anchor="middle" x="1820.99" y="-92.95" font-family="Times New Roman,serif" font-size="20.00">IsNear(self,pancake)</text>
</g>
<!-- 71ac4436&#45;1973&#45;4be7&#45;ad98&#45;fcc4d62d7a87&#45;&gt;9328013d&#45;12c7&#45;4a19&#45;b158&#45;b5f5879f05cb -->
<g id="edge23" class="edge">
<title>71ac4436&#45;1973&#45;4be7&#45;ad98&#45;fcc4d62d7a87&#45;&gt;9328013d&#45;12c7&#45;4a19&#45;b158&#45;b5f5879f05cb</title>
<path fill="none" stroke="black" d="M1854.69,-160.73C1850.08,-152.65 1844.15,-142.28 1838.56,-132.49"/>
<polygon fill="black" stroke="black" points="1841.67,-130.88 1833.68,-123.93 1835.59,-134.35 1841.67,-130.88"/>
</g>
<!-- 52461491&#45;1bae&#45;423b&#45;addc&#45;53247bc0aed9 -->
<g id="node25" class="node">
<title>52461491&#45;1bae&#45;423b&#45;addc&#45;53247bc0aed9</title>
<polygon fill="lightgreen" stroke="black" points="2134.74,-118.7 1967.24,-118.7 1967.24,-82.7 2134.74,-82.7 2134.74,-118.7"/>
<text text-anchor="middle" x="2050.99" y="-92.95" font-family="Times New Roman,serif" font-size="20.00">LeftGrab(pancake)</text>
</g>
<!-- 71ac4436&#45;1973&#45;4be7&#45;ad98&#45;fcc4d62d7a87&#45;&gt;52461491&#45;1bae&#45;423b&#45;addc&#45;53247bc0aed9 -->
<g id="edge24" class="edge">
<title>71ac4436&#45;1973&#45;4be7&#45;ad98&#45;fcc4d62d7a87&#45;&gt;52461491&#45;1bae&#45;423b&#45;addc&#45;53247bc0aed9</title>
<path fill="none" stroke="black" d="M1881.56,-162.82C1884.33,-161.19 1887.19,-159.62 1889.99,-158.27 1918.73,-144.39 1951.79,-132.17 1980.45,-122.68"/>
<polygon fill="black" stroke="black" points="1981.34,-126.07 1989.76,-119.64 1979.17,-119.41 1981.34,-126.07"/>
</g>
</g>
</svg>
