<?xml version="1.0" encoding="UTF-8" standalone="no"?>
<!DOCTYPE svg PUBLIC "-//W3C//DTD SVG 1.1//EN"
 "http://www.w3.org/Graphics/SVG/1.1/DTD/svg11.dtd">
<!-- Generated by graphviz version 12.1.0 (20240811.2233)
 -->
<!-- Title: pastafarianism Pages: 1 -->
<svg width="1236pt" height="348pt"
 viewBox="0.00 0.00 1236.05 347.90" xmlns="http://www.w3.org/2000/svg" xmlns:xlink="http://www.w3.org/1999/xlink">
<g id="graph0" class="graph" transform="scale(1 1) rotate(0) translate(4 343.9)">
<title>pastafarianism</title>
<polygon fill="white" stroke="none" points="-4,4 -4,-343.9 1232.05,-343.9 1232.05,4 -4,4"/>
<!-- 18518535&#45;1697&#45;4727&#45;a10c&#45;14d0f59866d4 -->
<g id="node1" class="node">
<title>18518535&#45;1697&#45;4727&#45;a10c&#45;14d0f59866d4</title>
<polygon fill="#b0ffff" stroke="black" points="508.68,-339.9 473.18,-339.9 473.18,-309.4 508.68,-309.4 508.68,-339.9"/>
<text text-anchor="middle" x="490.93" y="-316.9" font-family="Times New Roman,serif" font-size="20.00"> ? </text>
</g>
<!-- c82cff1d&#45;4090&#45;41bb&#45;b145&#45;fd86c3432d64 -->
<g id="node2" class="node">
<title>c82cff1d&#45;4090&#45;41bb&#45;b145&#45;fd86c3432d64</title>
<ellipse fill="#ffff80" stroke="black" cx="346.93" cy="-251.83" rx="108.36" ry="21.57"/>
<text text-anchor="middle" x="346.93" y="-244.08" font-family="Times New Roman,serif" font-size="20.00">IsClean(window)</text>
</g>
<!-- 18518535&#45;1697&#45;4727&#45;a10c&#45;14d0f59866d4&#45;&gt;c82cff1d&#45;4090&#45;41bb&#45;b145&#45;fd86c3432d64 -->
<g id="edge1" class="edge">
<title>18518535&#45;1697&#45;4727&#45;a10c&#45;14d0f59866d4&#45;&gt;c82cff1d&#45;4090&#45;41bb&#45;b145&#45;fd86c3432d64</title>
<path fill="none" stroke="black" d="M472.69,-314.68C453.65,-305.32 422.95,-290.22 396.65,-277.29"/>
<polygon fill="black" stroke="black" points="398.32,-274.21 387.81,-272.94 395.24,-280.49 398.32,-274.21"/>
</g>
<!-- 34991444&#45;e504&#45;4ac9&#45;873a&#45;4afa89ae7e89 -->
<g id="node3" class="node">
<title>34991444&#45;e504&#45;4ac9&#45;873a&#45;4afa89ae7e89</title>
<polygon fill="#ff8080" stroke="black" points="509.05,-267.08 472.8,-267.08 472.8,-236.58 509.05,-236.58 509.05,-267.08"/>
<text text-anchor="middle" x="490.93" y="-244.08" font-family="Times New Roman,serif" font-size="20.00">→</text>
</g>
<!-- 18518535&#45;1697&#45;4727&#45;a10c&#45;14d0f59866d4&#45;&gt;34991444&#45;e504&#45;4ac9&#45;873a&#45;4afa89ae7e89 -->
<g id="edge2" class="edge">
<title>18518535&#45;1697&#45;4727&#45;a10c&#45;14d0f59866d4&#45;&gt;34991444&#45;e504&#45;4ac9&#45;873a&#45;4afa89ae7e89</title>
<path fill="none" stroke="black" d="M490.93,-308.98C490.93,-300.24 490.93,-288.91 490.93,-278.71"/>
<polygon fill="black" stroke="black" points="494.43,-279 490.93,-269 487.43,-279 494.43,-279"/>
</g>
<!-- 192d5976&#45;a882&#45;408d&#45;9f1d&#45;fce08c511084 -->
<g id="node12" class="node">
<title>192d5976&#45;a882&#45;408d&#45;9f1d&#45;fce08c511084</title>
<polygon fill="#ff8080" stroke="black" points="828.05,-267.08 791.8,-267.08 791.8,-236.58 828.05,-236.58 828.05,-267.08"/>
<text text-anchor="middle" x="809.93" y="-244.08" font-family="Times New Roman,serif" font-size="20.00">→</text>
</g>
<!-- 18518535&#45;1697&#45;4727&#45;a10c&#45;14d0f59866d4&#45;&gt;192d5976&#45;a882&#45;408d&#45;9f1d&#45;fce08c511084 -->
<g id="edge11" class="edge">
<title>18518535&#45;1697&#45;4727&#45;a10c&#45;14d0f59866d4&#45;&gt;192d5976&#45;a882&#45;408d&#45;9f1d&#45;fce08c511084</title>
<path fill="none" stroke="black" d="M508.99,-319.64C561.72,-307.93 715.81,-273.73 780.64,-259.33"/>
<polygon fill="black" stroke="black" points="781.18,-262.8 790.19,-257.22 779.67,-255.97 781.18,-262.8"/>
</g>
<!-- e1850570&#45;e681&#45;4d7e&#45;bd5a&#45;b21c65f85511 -->
<g id="node4" class="node">
<title>e1850570&#45;e681&#45;4d7e&#45;bd5a&#45;b21c65f85511</title>
<ellipse fill="#ffff80" stroke="black" cx="283.93" cy="-172.7" rx="171.47" ry="21.57"/>
<text text-anchor="middle" x="283.93" y="-164.95" font-family="Times New Roman,serif" font-size="20.00">IsHoldingCleaningTool(self)</text>
</g>
<!-- 34991444&#45;e504&#45;4ac9&#45;873a&#45;4afa89ae7e89&#45;&gt;e1850570&#45;e681&#45;4d7e&#45;bd5a&#45;b21c65f85511 -->
<g id="edge3" class="edge">
<title>34991444&#45;e504&#45;4ac9&#45;873a&#45;4afa89ae7e89&#45;&gt;e1850570&#45;e681&#45;4d7e&#45;bd5a&#45;b21c65f85511</title>
<path fill="none" stroke="black" d="M473.5,-236.2C470.43,-234.02 467.17,-231.95 463.93,-230.27 435.95,-215.78 403.58,-204.19 374.07,-195.37"/>
<polygon fill="black" stroke="black" points="375.38,-192.11 364.8,-192.67 373.42,-198.83 375.38,-192.11"/>
</g>
<!-- 7111f03b&#45;62a8&#45;4cdb&#45;bd1a&#45;29cb4ad663ea -->
<g id="node5" class="node">
<title>7111f03b&#45;62a8&#45;4cdb&#45;bd1a&#45;29cb4ad663ea</title>
<polygon fill="#b0ffff" stroke="black" points="508.68,-187.95 473.18,-187.95 473.18,-157.45 508.68,-157.45 508.68,-187.95"/>
<text text-anchor="middle" x="490.93" y="-164.95" font-family="Times New Roman,serif" font-size="20.00"> ? </text>
</g>
<!-- 34991444&#45;e504&#45;4ac9&#45;873a&#45;4afa89ae7e89&#45;&gt;7111f03b&#45;62a8&#45;4cdb&#45;bd1a&#45;29cb4ad663ea -->
<g id="edge4" class="edge">
<title>34991444&#45;e504&#45;4ac9&#45;873a&#45;4afa89ae7e89&#45;&gt;7111f03b&#45;62a8&#45;4cdb&#45;bd1a&#45;29cb4ad663ea</title>
<path fill="none" stroke="black" d="M490.93,-236.33C490.93,-226.05 490.93,-211.98 490.93,-199.77"/>
<polygon fill="black" stroke="black" points="494.43,-199.92 490.93,-189.92 487.43,-199.92 494.43,-199.92"/>
</g>
<!-- d51a23ae&#45;877e&#45;41d8&#45;b7d2&#45;a7cd4e50a1c3 -->
<g id="node6" class="node">
<title>d51a23ae&#45;877e&#45;41d8&#45;b7d2&#45;a7cd4e50a1c3</title>
<polygon fill="#ff8080" stroke="black" points="357.05,-112.38 320.8,-112.38 320.8,-81.88 357.05,-81.88 357.05,-112.38"/>
<text text-anchor="middle" x="338.93" y="-89.38" font-family="Times New Roman,serif" font-size="20.00">→</text>
</g>
<!-- 7111f03b&#45;62a8&#45;4cdb&#45;bd1a&#45;29cb4ad663ea&#45;&gt;d51a23ae&#45;877e&#45;41d8&#45;b7d2&#45;a7cd4e50a1c3 -->
<g id="edge5" class="edge">
<title>7111f03b&#45;62a8&#45;4cdb&#45;bd1a&#45;29cb4ad663ea&#45;&gt;d51a23ae&#45;877e&#45;41d8&#45;b7d2&#45;a7cd4e50a1c3</title>
<path fill="none" stroke="black" d="M473.06,-157.11C470.09,-154.98 466.98,-152.91 463.93,-151.13 432.67,-132.99 394.02,-117.57 368.04,-108.12"/>
<polygon fill="black" stroke="black" points="369.43,-104.9 358.83,-104.83 367.07,-111.49 369.43,-104.9"/>
</g>
<!-- dc15c4c6&#45;7fff&#45;499e&#45;a5f5&#45;20288143ebb8 -->
<g id="node9" class="node">
<title>dc15c4c6&#45;7fff&#45;499e&#45;a5f5&#45;20288143ebb8</title>
<polygon fill="#ff8080" stroke="black" points="543.05,-112.38 506.8,-112.38 506.8,-81.88 543.05,-81.88 543.05,-112.38"/>
<text text-anchor="middle" x="524.93" y="-89.38" font-family="Times New Roman,serif" font-size="20.00">→</text>
</g>
<!-- 7111f03b&#45;62a8&#45;4cdb&#45;bd1a&#45;29cb4ad663ea&#45;&gt;dc15c4c6&#45;7fff&#45;499e&#45;a5f5&#45;20288143ebb8 -->
<g id="edge8" class="edge">
<title>7111f03b&#45;62a8&#45;4cdb&#45;bd1a&#45;29cb4ad663ea&#45;&gt;dc15c4c6&#45;7fff&#45;499e&#45;a5f5&#45;20288143ebb8</title>
<path fill="none" stroke="black" d="M497.64,-157.17C502.16,-147.39 508.23,-134.26 513.5,-122.87"/>
<polygon fill="black" stroke="black" points="516.57,-124.56 517.59,-114.01 510.21,-121.62 516.57,-124.56"/>
</g>
<!-- a276d106&#45;38c5&#45;4999&#45;92ee&#45;f04a533cf868 -->
<g id="node7" class="node">
<title>a276d106&#45;38c5&#45;4999&#45;92ee&#45;f04a533cf868</title>
<ellipse fill="#ffff80" stroke="black" cx="126.93" cy="-21.57" rx="126.93" ry="21.57"/>
<text text-anchor="middle" x="126.93" y="-13.82" font-family="Times New Roman,serif" font-size="20.00">IsNear(self,window)</text>
</g>
<!-- d51a23ae&#45;877e&#45;41d8&#45;b7d2&#45;a7cd4e50a1c3&#45;&gt;a276d106&#45;38c5&#45;4999&#45;92ee&#45;f04a533cf868 -->
<g id="edge6" class="edge">
<title>d51a23ae&#45;877e&#45;41d8&#45;b7d2&#45;a7cd4e50a1c3&#45;&gt;a276d106&#45;38c5&#45;4999&#45;92ee&#45;f04a533cf868</title>
<path fill="none" stroke="black" d="M320.48,-89.73C292.1,-79.88 236.33,-60.53 191.92,-45.12"/>
<polygon fill="black" stroke="black" points="193.22,-41.87 182.62,-41.89 190.92,-48.48 193.22,-41.87"/>
</g>
<!-- 98b0255b&#45;fbe5&#45;4fd5&#45;802f&#45;81c79205e8ed -->
<g id="node8" class="node">
<title>98b0255b&#45;fbe5&#45;4fd5&#45;802f&#45;81c79205e8ed</title>
<polygon fill="lightgreen" stroke="black" points="406.18,-39.57 271.68,-39.57 271.68,-3.57 406.18,-3.57 406.18,-39.57"/>
<text text-anchor="middle" x="338.93" y="-13.82" font-family="Times New Roman,serif" font-size="20.00">Wipe(window)</text>
</g>
<!-- d51a23ae&#45;877e&#45;41d8&#45;b7d2&#45;a7cd4e50a1c3&#45;&gt;98b0255b&#45;fbe5&#45;4fd5&#45;802f&#45;81c79205e8ed -->
<g id="edge7" class="edge">
<title>d51a23ae&#45;877e&#45;41d8&#45;b7d2&#45;a7cd4e50a1c3&#45;&gt;98b0255b&#45;fbe5&#45;4fd5&#45;802f&#45;81c79205e8ed</title>
<path fill="none" stroke="black" d="M338.93,-81.6C338.93,-72.9 338.93,-61.54 338.93,-51.11"/>
<polygon fill="black" stroke="black" points="342.43,-51.43 338.93,-41.43 335.43,-51.43 342.43,-51.43"/>
</g>
<!-- 168132f0&#45;2a23&#45;45d9&#45;9861&#45;51a925937505 -->
<g id="node10" class="node">
<title>168132f0&#45;2a23&#45;45d9&#45;9861&#45;51a925937505</title>
<ellipse fill="#ffff80" stroke="black" cx="524.93" cy="-21.57" rx="100.41" ry="21.57"/>
<text text-anchor="middle" x="524.93" y="-13.82" font-family="Times New Roman,serif" font-size="20.00">IsStanding(self)</text>
</g>
<!-- dc15c4c6&#45;7fff&#45;499e&#45;a5f5&#45;20288143ebb8&#45;&gt;168132f0&#45;2a23&#45;45d9&#45;9861&#45;51a925937505 -->
<g id="edge9" class="edge">
<title>dc15c4c6&#45;7fff&#45;499e&#45;a5f5&#45;20288143ebb8&#45;&gt;168132f0&#45;2a23&#45;45d9&#45;9861&#45;51a925937505</title>
<path fill="none" stroke="black" d="M524.93,-81.6C524.93,-73.94 524.93,-64.23 524.93,-54.9"/>
<polygon fill="black" stroke="black" points="528.43,-54.99 524.93,-44.99 521.43,-54.99 528.43,-54.99"/>
</g>
<!-- 37d66864&#45;cbd9&#45;4e2b&#45;bfa0&#45;8f53acb23475 -->
<g id="node11" class="node">
<title>37d66864&#45;cbd9&#45;4e2b&#45;bfa0&#45;8f53acb23475</title>
<polygon fill="lightgreen" stroke="black" points="776.8,-39.57 643.05,-39.57 643.05,-3.57 776.8,-3.57 776.8,-39.57"/>
<text text-anchor="middle" x="709.93" y="-13.82" font-family="Times New Roman,serif" font-size="20.00">Walk(window)</text>
</g>
<!-- dc15c4c6&#45;7fff&#45;499e&#45;a5f5&#45;20288143ebb8&#45;&gt;37d66864&#45;cbd9&#45;4e2b&#45;bfa0&#45;8f53acb23475 -->
<g id="edge10" class="edge">
<title>dc15c4c6&#45;7fff&#45;499e&#45;a5f5&#45;20288143ebb8&#45;&gt;37d66864&#45;cbd9&#45;4e2b&#45;bfa0&#45;8f53acb23475</title>
<path fill="none" stroke="black" d="M543.34,-88.81C569.32,-78.48 617.81,-59.2 655.79,-44.09"/>
<polygon fill="black" stroke="black" points="656.8,-47.46 664.8,-40.51 654.21,-40.96 656.8,-47.46"/>
</g>
<!-- 5ce114a9&#45;ab9e&#45;41e8&#45;bf58&#45;514fb3153689 -->
<g id="node13" class="node">
<title>5ce114a9&#45;ab9e&#45;41e8&#45;bf58&#45;514fb3153689</title>
<ellipse fill="#ffff80" stroke="black" cx="675.93" cy="-172.7" rx="149.2" ry="21.57"/>
<text text-anchor="middle" x="675.93" y="-164.95" font-family="Times New Roman,serif" font-size="20.00">IsRightHandEmpty(self)</text>
</g>
<!-- 192d5976&#45;a882&#45;408d&#45;9f1d&#45;fce08c511084&#45;&gt;5ce114a9&#45;ab9e&#45;41e8&#45;bf58&#45;514fb3153689 -->
<g id="edge12" class="edge">
<title>192d5976&#45;a882&#45;408d&#45;9f1d&#45;fce08c511084&#45;&gt;5ce114a9&#45;ab9e&#45;41e8&#45;bf58&#45;514fb3153689</title>
<path fill="none" stroke="black" d="M791.57,-240.27C773.49,-229.86 745.16,-213.55 721.06,-199.68"/>
<polygon fill="black" stroke="black" points="723.1,-196.82 712.69,-194.86 719.61,-202.89 723.1,-196.82"/>
</g>
<!-- 48d770cc&#45;738d&#45;4c5c&#45;916d&#45;99ed73d0b82c -->
<g id="node14" class="node">
<title>48d770cc&#45;738d&#45;4c5c&#45;916d&#45;99ed73d0b82c</title>
<ellipse fill="#ffff80" stroke="black" cx="943.93" cy="-172.7" rx="100.41" ry="21.57"/>
<text text-anchor="middle" x="943.93" y="-164.95" font-family="Times New Roman,serif" font-size="20.00">IsStanding(self)</text>
</g>
<!-- 192d5976&#45;a882&#45;408d&#45;9f1d&#45;fce08c511084&#45;&gt;48d770cc&#45;738d&#45;4c5c&#45;916d&#45;99ed73d0b82c -->
<g id="edge13" class="edge">
<title>192d5976&#45;a882&#45;408d&#45;9f1d&#45;fce08c511084&#45;&gt;48d770cc&#45;738d&#45;4c5c&#45;916d&#45;99ed73d0b82c</title>
<path fill="none" stroke="black" d="M828.28,-240.27C846.67,-229.68 875.68,-212.98 900.05,-198.96"/>
<polygon fill="black" stroke="black" points="901.58,-202.11 908.5,-194.09 898.09,-196.05 901.58,-202.11"/>
</g>
<!-- b267d7fe&#45;b253&#45;4f01&#45;966f&#45;3686dfa53954 -->
<g id="node15" class="node">
<title>b267d7fe&#45;b253&#45;4f01&#45;966f&#45;3686dfa53954</title>
<polygon fill="#b0ffff" stroke="black" points="1097.68,-187.95 1062.18,-187.95 1062.18,-157.45 1097.68,-157.45 1097.68,-187.95"/>
<text text-anchor="middle" x="1079.93" y="-164.95" font-family="Times New Roman,serif" font-size="20.00"> ? </text>
</g>
<!-- 192d5976&#45;a882&#45;408d&#45;9f1d&#45;fce08c511084&#45;&gt;b267d7fe&#45;b253&#45;4f01&#45;966f&#45;3686dfa53954 -->
<g id="edge14" class="edge">
<title>192d5976&#45;a882&#45;408d&#45;9f1d&#45;fce08c511084&#45;&gt;b267d7fe&#45;b253&#45;4f01&#45;966f&#45;3686dfa53954</title>
<path fill="none" stroke="black" d="M828.47,-249.19C870.32,-244.93 974.54,-231.15 1052.93,-194.27 1053.03,-194.22 1053.14,-194.17 1053.25,-194.12"/>
<polygon fill="black" stroke="black" points="1054.82,-197.25 1061.6,-189.12 1051.22,-191.25 1054.82,-197.25"/>
</g>
<!-- 506844a7&#45;ec29&#45;4a3b&#45;b7d1&#45;9c5ada1b6b5b -->
<g id="node16" class="node">
<title>506844a7&#45;ec29&#45;4a3b&#45;b7d1&#45;9c5ada1b6b5b</title>
<polygon fill="#ff8080" stroke="black" points="1056.05,-112.38 1019.8,-112.38 1019.8,-81.88 1056.05,-81.88 1056.05,-112.38"/>
<text text-anchor="middle" x="1037.93" y="-89.38" font-family="Times New Roman,serif" font-size="20.00">→</text>
</g>
<!-- b267d7fe&#45;b253&#45;4f01&#45;966f&#45;3686dfa53954&#45;&gt;506844a7&#45;ec29&#45;4a3b&#45;b7d1&#45;9c5ada1b6b5b -->
<g id="edge15" class="edge">
<title>b267d7fe&#45;b253&#45;4f01&#45;966f&#45;3686dfa53954&#45;&gt;506844a7&#45;ec29&#45;4a3b&#45;b7d1&#45;9c5ada1b6b5b</title>
<path fill="none" stroke="black" d="M1071.63,-157.17C1065.99,-147.29 1058.4,-133.99 1051.84,-122.51"/>
<polygon fill="black" stroke="black" points="1054.95,-120.9 1046.96,-113.95 1048.88,-124.37 1054.95,-120.9"/>
</g>
<!-- 35f8fb5d&#45;a771&#45;4743&#45;bdad&#45;0f4b9366dc9e -->
<g id="node19" class="node">
<title>35f8fb5d&#45;a771&#45;4743&#45;bdad&#45;0f4b9366dc9e</title>
<polygon fill="lightgreen" stroke="black" points="1170.05,-115.13 1073.8,-115.13 1073.8,-79.13 1170.05,-79.13 1170.05,-115.13"/>
<text text-anchor="middle" x="1121.93" y="-89.38" font-family="Times New Roman,serif" font-size="20.00">Walk(rag)</text>
</g>
<!-- b267d7fe&#45;b253&#45;4f01&#45;966f&#45;3686dfa53954&#45;&gt;35f8fb5d&#45;a771&#45;4743&#45;bdad&#45;0f4b9366dc9e -->
<g id="edge18" class="edge">
<title>b267d7fe&#45;b253&#45;4f01&#45;966f&#45;3686dfa53954&#45;&gt;35f8fb5d&#45;a771&#45;4743&#45;bdad&#45;0f4b9366dc9e</title>
<path fill="none" stroke="black" d="M1088.22,-157.17C1093.4,-148.09 1100.24,-136.12 1106.4,-125.33"/>
<polygon fill="black" stroke="black" points="1109.35,-127.22 1111.27,-116.8 1103.27,-123.75 1109.35,-127.22"/>
</g>
<!-- 015c342a&#45;f337&#45;441b&#45;934d&#45;9f00dfb43684 -->
<g id="node17" class="node">
<title>015c342a&#45;f337&#45;441b&#45;934d&#45;9f00dfb43684</title>
<ellipse fill="#ffff80" stroke="black" cx="970.93" cy="-21.57" rx="100.41" ry="21.57"/>
<text text-anchor="middle" x="970.93" y="-13.82" font-family="Times New Roman,serif" font-size="20.00">IsNear(self,rag)</text>
</g>
<!-- 506844a7&#45;ec29&#45;4a3b&#45;b7d1&#45;9c5ada1b6b5b&#45;&gt;015c342a&#45;f337&#45;441b&#45;934d&#45;9f00dfb43684 -->
<g id="edge16" class="edge">
<title>506844a7&#45;ec29&#45;4a3b&#45;b7d1&#45;9c5ada1b6b5b&#45;&gt;015c342a&#45;f337&#45;441b&#45;934d&#45;9f00dfb43684</title>
<path fill="none" stroke="black" d="M1024.69,-81.6C1016.88,-73.03 1006.73,-61.88 997.34,-51.57"/>
<polygon fill="black" stroke="black" points="1000.06,-49.35 990.73,-44.32 994.88,-54.07 1000.06,-49.35"/>
</g>
<!-- bf646a2d&#45;d242&#45;4240&#45;95c7&#45;3604dbe754e4 -->
<g id="node18" class="node">
<title>bf646a2d&#45;d242&#45;4240&#45;95c7&#45;3604dbe754e4</title>
<polygon fill="lightgreen" stroke="black" points="1228.05,-39.57 1089.8,-39.57 1089.8,-3.57 1228.05,-3.57 1228.05,-39.57"/>
<text text-anchor="middle" x="1158.93" y="-13.82" font-family="Times New Roman,serif" font-size="20.00">RightGrab(rag)</text>
</g>
<!-- 506844a7&#45;ec29&#45;4a3b&#45;b7d1&#45;9c5ada1b6b5b&#45;&gt;bf646a2d&#45;d242&#45;4240&#45;95c7&#45;3604dbe754e4 -->
<g id="edge17" class="edge">
<title>506844a7&#45;ec29&#45;4a3b&#45;b7d1&#45;9c5ada1b6b5b&#45;&gt;bf646a2d&#45;d242&#45;4240&#45;95c7&#45;3604dbe754e4</title>
<path fill="none" stroke="black" d="M1056.49,-84.38C1059.31,-82.61 1062.19,-80.82 1064.93,-79.13 1082.96,-68.03 1103.06,-55.9 1120.03,-45.74"/>
<polygon fill="black" stroke="black" points="1121.53,-48.91 1128.32,-40.77 1117.94,-42.91 1121.53,-48.91"/>
</g>
</g>
</svg>
