<?xml version="1.0" encoding="UTF-8" standalone="no"?>
<!DOCTYPE svg PUBLIC "-//W3C//DTD SVG 1.1//EN"
 "http://www.w3.org/Graphics/SVG/1.1/DTD/svg11.dtd">
<!-- Generated by graphviz version 12.1.0 (20240811.2233)
 -->
<!-- Title: pastafarianism Pages: 1 -->
<svg width="2564pt" height="713pt"
 viewBox="0.00 0.00 2564.47 712.80" xmlns="http://www.w3.org/2000/svg" xmlns:xlink="http://www.w3.org/1999/xlink">
<g id="graph0" class="graph" transform="scale(1 1) rotate(0) translate(4 708.8)">
<title>pastafarianism</title>
<polygon fill="white" stroke="none" points="-4,4 -4,-708.8 2560.47,-708.8 2560.47,4 -4,4"/>
<!-- 555926d9&#45;a2a4&#45;4d2a&#45;aee8&#45;5161def14dbe -->
<g id="node1" class="node">
<title>555926d9&#45;a2a4&#45;4d2a&#45;aee8&#45;5161def14dbe</title>
<polygon fill="#b0ffff" stroke="black" points="1233.22,-704.8 1197.72,-704.8 1197.72,-674.3 1233.22,-674.3 1233.22,-704.8"/>
<text text-anchor="middle" x="1215.47" y="-681.8" font-family="Times New Roman,serif" font-size="20.00"> ? </text>
</g>
<!-- bf981024&#45;21cd&#45;468b&#45;aa56&#45;5179030c3ab1 -->
<g id="node2" class="node">
<title>bf981024&#45;21cd&#45;468b&#45;aa56&#45;5179030c3ab1</title>
<polygon fill="#ff8080" stroke="black" points="947.6,-638.3 911.35,-638.3 911.35,-607.8 947.6,-607.8 947.6,-638.3"/>
<text text-anchor="middle" x="929.47" y="-615.3" font-family="Times New Roman,serif" font-size="20.00">→</text>
</g>
<!-- 555926d9&#45;a2a4&#45;4d2a&#45;aee8&#45;5161def14dbe&#45;&gt;bf981024&#45;21cd&#45;468b&#45;aa56&#45;5179030c3ab1 -->
<g id="edge1" class="edge">
<title>555926d9&#45;a2a4&#45;4d2a&#45;aee8&#45;5161def14dbe&#45;&gt;bf981024&#45;21cd&#45;468b&#45;aa56&#45;5179030c3ab1</title>
<path fill="none" stroke="black" d="M1197.58,-684.52C1149.76,-673.73 1018.58,-644.15 959.28,-630.77"/>
<polygon fill="black" stroke="black" points="960.1,-627.37 949.57,-628.58 958.56,-634.2 960.1,-627.37"/>
</g>
<!-- ea0e1b17&#45;a5d7&#45;41d9&#45;b805&#45;ef9286994f17 -->
<g id="node6" class="node">
<title>ea0e1b17&#45;a5d7&#45;41d9&#45;b805&#45;ef9286994f17</title>
<polygon fill="#ff8080" stroke="black" points="1656.6,-638.3 1620.35,-638.3 1620.35,-607.8 1656.6,-607.8 1656.6,-638.3"/>
<text text-anchor="middle" x="1638.47" y="-615.3" font-family="Times New Roman,serif" font-size="20.00">→</text>
</g>
<!-- 555926d9&#45;a2a4&#45;4d2a&#45;aee8&#45;5161def14dbe&#45;&gt;ea0e1b17&#45;a5d7&#45;41d9&#45;b805&#45;ef9286994f17 -->
<g id="edge5" class="edge">
<title>555926d9&#45;a2a4&#45;4d2a&#45;aee8&#45;5161def14dbe&#45;&gt;ea0e1b17&#45;a5d7&#45;41d9&#45;b805&#45;ef9286994f17</title>
<path fill="none" stroke="black" d="M1233.65,-685.78C1299.6,-675.72 1526.7,-641.09 1608.67,-628.6"/>
<polygon fill="black" stroke="black" points="1609.03,-632.08 1618.39,-627.11 1607.98,-625.16 1609.03,-632.08"/>
</g>
<!-- 28aeabf9&#45;f77c&#45;4ed4&#45;b0c4&#45;d01b1e1b5043 -->
<g id="node3" class="node">
<title>28aeabf9&#45;f77c&#45;4ed4&#45;b0c4&#45;d01b1e1b5043</title>
<ellipse fill="#ffff80" stroke="black" cx="476.47" cy="-550.23" rx="160.87" ry="21.57"/>
<text text-anchor="middle" x="476.47" y="-542.48" font-family="Times New Roman,serif" font-size="20.00">IsOn(wineglass,bookshelf)</text>
</g>
<!-- bf981024&#45;21cd&#45;468b&#45;aa56&#45;5179030c3ab1&#45;&gt;28aeabf9&#45;f77c&#45;4ed4&#45;b0c4&#45;d01b1e1b5043 -->
<g id="edge2" class="edge">
<title>bf981024&#45;21cd&#45;468b&#45;aa56&#45;5179030c3ab1&#45;&gt;28aeabf9&#45;f77c&#45;4ed4&#45;b0c4&#45;d01b1e1b5043</title>
<path fill="none" stroke="black" d="M910.87,-619.14C857.35,-610.78 699.8,-586.15 589.94,-568.97"/>
<polygon fill="black" stroke="black" points="590.71,-565.55 580.29,-567.46 589.63,-572.47 590.71,-565.55"/>
</g>
<!-- 2b71a61f&#45;d620&#45;48e5&#45;a5ba&#45;96cfc4ffb14f -->
<g id="node4" class="node">
<title>2b71a61f&#45;d620&#45;48e5&#45;a5ba&#45;96cfc4ffb14f</title>
<ellipse fill="#ffff80" stroke="black" cx="793.47" cy="-550.23" rx="138.59" ry="21.57"/>
<text text-anchor="middle" x="793.47" y="-542.48" font-family="Times New Roman,serif" font-size="20.00">IsSwitchedOff(candle)</text>
</g>
<!-- bf981024&#45;21cd&#45;468b&#45;aa56&#45;5179030c3ab1&#45;&gt;2b71a61f&#45;d620&#45;48e5&#45;a5ba&#45;96cfc4ffb14f -->
<g id="edge3" class="edge">
<title>bf981024&#45;21cd&#45;468b&#45;aa56&#45;5179030c3ab1&#45;&gt;2b71a61f&#45;d620&#45;48e5&#45;a5ba&#45;96cfc4ffb14f</title>
<path fill="none" stroke="black" d="M911.13,-612.5C893.49,-603.32 866.06,-589.03 842.11,-576.56"/>
<polygon fill="black" stroke="black" points="843.93,-573.56 833.45,-572.05 840.7,-579.77 843.93,-573.56"/>
</g>
<!-- 5ee43f2e&#45;ab43&#45;42de&#45;b05b&#45;16f96893711e -->
<g id="node5" class="node">
<title>5ee43f2e&#45;ab43&#45;42de&#45;b05b&#45;16f96893711e</title>
<ellipse fill="#ffff80" stroke="black" cx="1065.47" cy="-550.23" rx="115.26" ry="21.57"/>
<text text-anchor="middle" x="1065.47" y="-542.48" font-family="Times New Roman,serif" font-size="20.00">IsOpen(magazine)</text>
</g>
<!-- bf981024&#45;21cd&#45;468b&#45;aa56&#45;5179030c3ab1&#45;&gt;5ee43f2e&#45;ab43&#45;42de&#45;b05b&#45;16f96893711e -->
<g id="edge4" class="edge">
<title>bf981024&#45;21cd&#45;468b&#45;aa56&#45;5179030c3ab1&#45;&gt;5ee43f2e&#45;ab43&#45;42de&#45;b05b&#45;16f96893711e</title>
<path fill="none" stroke="black" d="M947.81,-612.5C965.58,-603.25 993.28,-588.82 1017.35,-576.29"/>
<polygon fill="black" stroke="black" points="1018.8,-579.48 1026.05,-571.76 1015.57,-573.27 1018.8,-579.48"/>
</g>
<!-- 654b9aea&#45;b311&#45;4313&#45;bb1e&#45;3621c50e19b3 -->
<g id="node7" class="node">
<title>654b9aea&#45;b311&#45;4313&#45;bb1e&#45;3621c50e19b3</title>
<ellipse fill="#ffff80" stroke="black" cx="1340.47" cy="-550.23" rx="141.77" ry="21.57"/>
<text text-anchor="middle" x="1340.47" y="-542.48" font-family="Times New Roman,serif" font-size="20.00">IsLeftHandEmpty(self)</text>
</g>
<!-- ea0e1b17&#45;a5d7&#45;41d9&#45;b805&#45;ef9286994f17&#45;&gt;654b9aea&#45;b311&#45;4313&#45;bb1e&#45;3621c50e19b3 -->
<g id="edge6" class="edge">
<title>ea0e1b17&#45;a5d7&#45;41d9&#45;b805&#45;ef9286994f17&#45;&gt;654b9aea&#45;b311&#45;4313&#45;bb1e&#45;3621c50e19b3</title>
<path fill="none" stroke="black" d="M1620.28,-617.73C1582.57,-608.77 1493.78,-587.67 1426.25,-571.62"/>
<polygon fill="black" stroke="black" points="1427.2,-568.25 1416.66,-569.34 1425.58,-575.06 1427.2,-568.25"/>
</g>
<!-- 1a1962c9&#45;44ec&#45;412a&#45;8f33&#45;e46fab2c2ff1 -->
<g id="node8" class="node">
<title>1a1962c9&#45;44ec&#45;412a&#45;8f33&#45;e46fab2c2ff1</title>
<ellipse fill="#ffff80" stroke="black" cx="1638.47" cy="-550.23" rx="138.59" ry="21.57"/>
<text text-anchor="middle" x="1638.47" y="-542.48" font-family="Times New Roman,serif" font-size="20.00">IsSwitchedOff(candle)</text>
</g>
<!-- ea0e1b17&#45;a5d7&#45;41d9&#45;b805&#45;ef9286994f17&#45;&gt;1a1962c9&#45;44ec&#45;412a&#45;8f33&#45;e46fab2c2ff1 -->
<g id="edge7" class="edge">
<title>ea0e1b17&#45;a5d7&#45;41d9&#45;b805&#45;ef9286994f17&#45;&gt;1a1962c9&#45;44ec&#45;412a&#45;8f33&#45;e46fab2c2ff1</title>
<path fill="none" stroke="black" d="M1638.47,-607.38C1638.47,-600.44 1638.47,-591.86 1638.47,-583.51"/>
<polygon fill="black" stroke="black" points="1641.97,-583.58 1638.47,-573.58 1634.97,-583.58 1641.97,-583.58"/>
</g>
<!-- af51c866&#45;8e70&#45;434e&#45;b1b3&#45;be9705637187 -->
<g id="node9" class="node">
<title>af51c866&#45;8e70&#45;434e&#45;b1b3&#45;be9705637187</title>
<ellipse fill="#ffff80" stroke="black" cx="1911.47" cy="-550.23" rx="116.85" ry="21.57"/>
<text text-anchor="middle" x="1911.47" y="-542.48" font-family="Times New Roman,serif" font-size="20.00">IsClose(magazine)</text>
</g>
<!-- ea0e1b17&#45;a5d7&#45;41d9&#45;b805&#45;ef9286994f17&#45;&gt;af51c866&#45;8e70&#45;434e&#45;b1b3&#45;be9705637187 -->
<g id="edge8" class="edge">
<title>ea0e1b17&#45;a5d7&#45;41d9&#45;b805&#45;ef9286994f17&#45;&gt;af51c866&#45;8e70&#45;434e&#45;b1b3&#45;be9705637187</title>
<path fill="none" stroke="black" d="M1656.81,-617.29C1692.56,-608.02 1773.42,-587.04 1834.51,-571.2"/>
<polygon fill="black" stroke="black" points="1835.02,-574.68 1843.82,-568.78 1833.26,-567.91 1835.02,-574.68"/>
</g>
<!-- febe9f45&#45;a6e5&#45;417f&#45;b861&#45;1b4bb1aa7ff8 -->
<g id="node10" class="node">
<title>febe9f45&#45;a6e5&#45;417f&#45;b861&#45;1b4bb1aa7ff8</title>
<polygon fill="#b0ffff" stroke="black" points="2082.22,-565.48 2046.72,-565.48 2046.72,-534.98 2082.22,-534.98 2082.22,-565.48"/>
<text text-anchor="middle" x="2064.47" y="-542.48" font-family="Times New Roman,serif" font-size="20.00"> ? </text>
</g>
<!-- ea0e1b17&#45;a5d7&#45;41d9&#45;b805&#45;ef9286994f17&#45;&gt;febe9f45&#45;a6e5&#45;417f&#45;b861&#45;1b4bb1aa7ff8 -->
<g id="edge9" class="edge">
<title>ea0e1b17&#45;a5d7&#45;41d9&#45;b805&#45;ef9286994f17&#45;&gt;febe9f45&#45;a6e5&#45;417f&#45;b861&#45;1b4bb1aa7ff8</title>
<path fill="none" stroke="black" d="M1656.63,-621.02C1725.02,-616.94 1966.71,-600.73 2037.47,-571.8 2037.7,-571.71 2037.92,-571.61 2038.15,-571.52"/>
<polygon fill="black" stroke="black" points="2039.61,-574.71 2046.56,-566.72 2036.14,-568.63 2039.61,-574.71"/>
</g>
<!-- 05750854&#45;fd6e&#45;49f4&#45;a63a&#45;fa9ca00fc525 -->
<g id="node11" class="node">
<title>05750854&#45;fd6e&#45;49f4&#45;a63a&#45;fa9ca00fc525</title>
<polygon fill="#b0ffff" stroke="black" points="1855.22,-492.67 1819.72,-492.67 1819.72,-462.17 1855.22,-462.17 1855.22,-492.67"/>
<text text-anchor="middle" x="1837.47" y="-469.67" font-family="Times New Roman,serif" font-size="20.00"> ? </text>
</g>
<!-- febe9f45&#45;a6e5&#45;417f&#45;b861&#45;1b4bb1aa7ff8&#45;&gt;05750854&#45;fd6e&#45;49f4&#45;a63a&#45;fa9ca00fc525 -->
<g id="edge10" class="edge">
<title>febe9f45&#45;a6e5&#45;417f&#45;b861&#45;1b4bb1aa7ff8&#45;&gt;05750854&#45;fd6e&#45;49f4&#45;a63a&#45;fa9ca00fc525</title>
<path fill="none" stroke="black" d="M2047.42,-534.64C2044.26,-532.41 2040.87,-530.3 2037.47,-528.67 1980.61,-501.3 1907.23,-487.8 1867.04,-482.04"/>
<polygon fill="black" stroke="black" points="1867.57,-478.58 1857.19,-480.7 1866.63,-485.52 1867.57,-478.58"/>
</g>
<!-- b13363e2&#45;b2fb&#45;4590&#45;a06e&#45;5152a81d4ce9 -->
<g id="node37" class="node">
<title>b13363e2&#45;b2fb&#45;4590&#45;a06e&#45;5152a81d4ce9</title>
<polygon fill="#ff8080" stroke="black" points="2174.6,-492.67 2138.35,-492.67 2138.35,-462.17 2174.6,-462.17 2174.6,-492.67"/>
<text text-anchor="middle" x="2156.47" y="-469.67" font-family="Times New Roman,serif" font-size="20.00">→</text>
</g>
<!-- febe9f45&#45;a6e5&#45;417f&#45;b861&#45;1b4bb1aa7ff8&#45;&gt;b13363e2&#45;b2fb&#45;4590&#45;a06e&#45;5152a81d4ce9 -->
<g id="edge36" class="edge">
<title>febe9f45&#45;a6e5&#45;417f&#45;b861&#45;1b4bb1aa7ff8&#45;&gt;b13363e2&#45;b2fb&#45;4590&#45;a06e&#45;5152a81d4ce9</title>
<path fill="none" stroke="black" d="M2082.65,-535.24C2095.92,-525.03 2114.14,-511.01 2129.15,-499.45"/>
<polygon fill="black" stroke="black" points="2131.03,-502.42 2136.82,-493.55 2126.76,-496.87 2131.03,-502.42"/>
</g>
<!-- 4f3c0433&#45;7079&#45;46a5&#45;ba7c&#45;b266adb88757 -->
<g id="node12" class="node">
<title>4f3c0433&#45;7079&#45;46a5&#45;ba7c&#45;b266adb88757</title>
<polygon fill="#b0ffff" stroke="black" points="1378.22,-419.85 1342.72,-419.85 1342.72,-389.35 1378.22,-389.35 1378.22,-419.85"/>
<text text-anchor="middle" x="1360.47" y="-396.85" font-family="Times New Roman,serif" font-size="20.00"> ? </text>
</g>
<!-- 05750854&#45;fd6e&#45;49f4&#45;a63a&#45;fa9ca00fc525&#45;&gt;4f3c0433&#45;7079&#45;46a5&#45;ba7c&#45;b266adb88757 -->
<g id="edge11" class="edge">
<title>05750854&#45;fd6e&#45;49f4&#45;a63a&#45;fa9ca00fc525&#45;&gt;4f3c0433&#45;7079&#45;46a5&#45;ba7c&#45;b266adb88757</title>
<path fill="none" stroke="black" d="M1819.36,-473.73C1747.12,-463 1479.24,-423.23 1389.78,-409.95"/>
<polygon fill="black" stroke="black" points="1390.51,-406.52 1380.1,-408.52 1389.48,-413.45 1390.51,-406.52"/>
</g>
<!-- 8f38e8a3&#45;5503&#45;4b62&#45;b13c&#45;dec969aa7433 -->
<g id="node32" class="node">
<title>8f38e8a3&#45;5503&#45;4b62&#45;b13c&#45;dec969aa7433</title>
<polygon fill="#ff8080" stroke="black" points="1855.6,-419.85 1819.35,-419.85 1819.35,-389.35 1855.6,-389.35 1855.6,-419.85"/>
<text text-anchor="middle" x="1837.47" y="-396.85" font-family="Times New Roman,serif" font-size="20.00">→</text>
</g>
<!-- 05750854&#45;fd6e&#45;49f4&#45;a63a&#45;fa9ca00fc525&#45;&gt;8f38e8a3&#45;5503&#45;4b62&#45;b13c&#45;dec969aa7433 -->
<g id="edge31" class="edge">
<title>05750854&#45;fd6e&#45;49f4&#45;a63a&#45;fa9ca00fc525&#45;&gt;8f38e8a3&#45;5503&#45;4b62&#45;b13c&#45;dec969aa7433</title>
<path fill="none" stroke="black" d="M1837.47,-461.74C1837.47,-453.01 1837.47,-441.67 1837.47,-431.48"/>
<polygon fill="black" stroke="black" points="1840.97,-431.77 1837.47,-421.77 1833.97,-431.77 1840.97,-431.77"/>
</g>
<!-- ab31fde8&#45;6413&#45;44ac&#45;91e8&#45;cd2916244b57 -->
<g id="node13" class="node">
<title>ab31fde8&#45;6413&#45;44ac&#45;91e8&#45;cd2916244b57</title>
<polygon fill="#b0ffff" stroke="black" points="1005.22,-340.72 969.72,-340.72 969.72,-310.22 1005.22,-310.22 1005.22,-340.72"/>
<text text-anchor="middle" x="987.47" y="-317.72" font-family="Times New Roman,serif" font-size="20.00"> ? </text>
</g>
<!-- 4f3c0433&#45;7079&#45;46a5&#45;ba7c&#45;b266adb88757&#45;&gt;ab31fde8&#45;6413&#45;44ac&#45;91e8&#45;cd2916244b57 -->
<g id="edge12" class="edge">
<title>4f3c0433&#45;7079&#45;46a5&#45;ba7c&#45;b266adb88757&#45;&gt;ab31fde8&#45;6413&#45;44ac&#45;91e8&#45;cd2916244b57</title>
<path fill="none" stroke="black" d="M1342.23,-399.83C1282.24,-387.42 1090.69,-347.81 1016.87,-332.55"/>
<polygon fill="black" stroke="black" points="1017.66,-329.14 1007.16,-330.54 1016.25,-335.99 1017.66,-329.14"/>
</g>
<!-- ecc18560&#45;6e0c&#45;4955&#45;abf7&#45;b54915c701d1 -->
<g id="node28" class="node">
<title>ecc18560&#45;6e0c&#45;4955&#45;abf7&#45;b54915c701d1</title>
<polygon fill="#ff8080" stroke="black" points="1378.6,-340.72 1342.35,-340.72 1342.35,-310.22 1378.6,-310.22 1378.6,-340.72"/>
<text text-anchor="middle" x="1360.47" y="-317.72" font-family="Times New Roman,serif" font-size="20.00">→</text>
</g>
<!-- 4f3c0433&#45;7079&#45;46a5&#45;ba7c&#45;b266adb88757&#45;&gt;ecc18560&#45;6e0c&#45;4955&#45;abf7&#45;b54915c701d1 -->
<g id="edge27" class="edge">
<title>4f3c0433&#45;7079&#45;46a5&#45;ba7c&#45;b266adb88757&#45;&gt;ecc18560&#45;6e0c&#45;4955&#45;abf7&#45;b54915c701d1</title>
<path fill="none" stroke="black" d="M1360.47,-389.09C1360.47,-378.82 1360.47,-364.74 1360.47,-352.54"/>
<polygon fill="black" stroke="black" points="1363.97,-352.69 1360.47,-342.69 1356.97,-352.69 1363.97,-352.69"/>
</g>
<!-- 8b06c7b2&#45;7300&#45;4944&#45;a543&#45;6159cf5b5fb8 -->
<g id="node14" class="node">
<title>8b06c7b2&#45;7300&#45;4944&#45;a543&#45;6159cf5b5fb8</title>
<polygon fill="#ff8080" stroke="black" points="480.6,-261.58 444.35,-261.58 444.35,-231.08 480.6,-231.08 480.6,-261.58"/>
<text text-anchor="middle" x="462.47" y="-238.58" font-family="Times New Roman,serif" font-size="20.00">→</text>
</g>
<!-- ab31fde8&#45;6413&#45;44ac&#45;91e8&#45;cd2916244b57&#45;&gt;8b06c7b2&#45;7300&#45;4944&#45;a543&#45;6159cf5b5fb8 -->
<g id="edge13" class="edge">
<title>ab31fde8&#45;6413&#45;44ac&#45;91e8&#45;cd2916244b57&#45;&gt;8b06c7b2&#45;7300&#45;4944&#45;a543&#45;6159cf5b5fb8</title>
<path fill="none" stroke="black" d="M969.4,-321.81C892.11,-310.46 588.9,-265.91 492.25,-251.71"/>
<polygon fill="black" stroke="black" points="492.91,-248.27 482.51,-250.28 491.89,-255.19 492.91,-248.27"/>
</g>
<!-- 54987e75&#45;d555&#45;4634&#45;8a66&#45;9238a9a57770 -->
<g id="node23" class="node">
<title>54987e75&#45;d555&#45;4634&#45;8a66&#45;9238a9a57770</title>
<polygon fill="#ff8080" stroke="black" points="1005.6,-261.58 969.35,-261.58 969.35,-231.08 1005.6,-231.08 1005.6,-261.58"/>
<text text-anchor="middle" x="987.47" y="-238.58" font-family="Times New Roman,serif" font-size="20.00">→</text>
</g>
<!-- ab31fde8&#45;6413&#45;44ac&#45;91e8&#45;cd2916244b57&#45;&gt;54987e75&#45;d555&#45;4634&#45;8a66&#45;9238a9a57770 -->
<g id="edge22" class="edge">
<title>ab31fde8&#45;6413&#45;44ac&#45;91e8&#45;cd2916244b57&#45;&gt;54987e75&#45;d555&#45;4634&#45;8a66&#45;9238a9a57770</title>
<path fill="none" stroke="black" d="M987.47,-309.96C987.47,-299.68 987.47,-285.61 987.47,-273.41"/>
<polygon fill="black" stroke="black" points="990.97,-273.55 987.47,-263.55 983.97,-273.55 990.97,-273.55"/>
</g>
<!-- c0fae193&#45;5df4&#45;4853&#45;989a&#45;e29e336aecf1 -->
<g id="node15" class="node">
<title>c0fae193&#45;5df4&#45;4853&#45;989a&#45;e29e336aecf1</title>
<ellipse fill="#ffff80" stroke="black" cx="265.47" cy="-167.2" rx="160.87" ry="21.57"/>
<text text-anchor="middle" x="265.47" y="-159.45" font-family="Times New Roman,serif" font-size="20.00">IsOn(wineglass,bookshelf)</text>
</g>
<!-- 8b06c7b2&#45;7300&#45;4944&#45;a543&#45;6159cf5b5fb8&#45;&gt;c0fae193&#45;5df4&#45;4853&#45;989a&#45;e29e336aecf1 -->
<g id="edge14" class="edge">
<title>8b06c7b2&#45;7300&#45;4944&#45;a543&#45;6159cf5b5fb8&#45;&gt;c0fae193&#45;5df4&#45;4853&#45;989a&#45;e29e336aecf1</title>
<path fill="none" stroke="black" d="M443.94,-238.08C417.38,-227.68 367.26,-208.06 326.88,-192.25"/>
<polygon fill="black" stroke="black" points="328.31,-189.05 317.72,-188.66 325.76,-195.56 328.31,-189.05"/>
</g>
<!-- c6dbc79a&#45;b8f5&#45;4b9e&#45;99f2&#45;511bb993dba8 -->
<g id="node16" class="node">
<title>c6dbc79a&#45;b8f5&#45;4b9e&#45;99f2&#45;511bb993dba8</title>
<polygon fill="#b0ffff" stroke="black" points="480.22,-182.45 444.72,-182.45 444.72,-151.95 480.22,-151.95 480.22,-182.45"/>
<text text-anchor="middle" x="462.47" y="-159.45" font-family="Times New Roman,serif" font-size="20.00"> ? </text>
</g>
<!-- 8b06c7b2&#45;7300&#45;4944&#45;a543&#45;6159cf5b5fb8&#45;&gt;c6dbc79a&#45;b8f5&#45;4b9e&#45;99f2&#45;511bb993dba8 -->
<g id="edge15" class="edge">
<title>8b06c7b2&#45;7300&#45;4944&#45;a543&#45;6159cf5b5fb8&#45;&gt;c6dbc79a&#45;b8f5&#45;4b9e&#45;99f2&#45;511bb993dba8</title>
<path fill="none" stroke="black" d="M462.47,-230.83C462.47,-220.55 462.47,-206.48 462.47,-194.27"/>
<polygon fill="black" stroke="black" points="465.97,-194.42 462.47,-184.42 458.97,-194.42 465.97,-194.42"/>
</g>
<!-- ed34efb2&#45;683a&#45;4d30&#45;9a73&#45;5a19af164f3f -->
<g id="node17" class="node">
<title>ed34efb2&#45;683a&#45;4d30&#45;9a73&#45;5a19af164f3f</title>
<polygon fill="#ff8080" stroke="black" points="383.6,-109.63 347.35,-109.63 347.35,-79.13 383.6,-79.13 383.6,-109.63"/>
<text text-anchor="middle" x="365.47" y="-86.63" font-family="Times New Roman,serif" font-size="20.00">→</text>
</g>
<!-- c6dbc79a&#45;b8f5&#45;4b9e&#45;99f2&#45;511bb993dba8&#45;&gt;ed34efb2&#45;683a&#45;4d30&#45;9a73&#45;5a19af164f3f -->
<g id="edge16" class="edge">
<title>c6dbc79a&#45;b8f5&#45;4b9e&#45;99f2&#45;511bb993dba8&#45;&gt;ed34efb2&#45;683a&#45;4d30&#45;9a73&#45;5a19af164f3f</title>
<path fill="none" stroke="black" d="M444.22,-152.19C441.31,-149.98 438.31,-147.74 435.47,-145.63 421.67,-135.43 406.18,-124.27 393.28,-115.07"/>
<polygon fill="black" stroke="black" points="395.41,-112.29 385.23,-109.34 391.35,-117.99 395.41,-112.29"/>
</g>
<!-- 7e25d0d0&#45;f7a6&#45;4e84&#45;830b&#45;b574a6836cce -->
<g id="node20" class="node">
<title>7e25d0d0&#45;f7a6&#45;4e84&#45;830b&#45;b574a6836cce</title>
<polygon fill="#ff8080" stroke="black" points="576.6,-109.63 540.35,-109.63 540.35,-79.13 576.6,-79.13 576.6,-109.63"/>
<text text-anchor="middle" x="558.47" y="-86.63" font-family="Times New Roman,serif" font-size="20.00">→</text>
</g>
<!-- c6dbc79a&#45;b8f5&#45;4b9e&#45;99f2&#45;511bb993dba8&#45;&gt;7e25d0d0&#45;f7a6&#45;4e84&#45;830b&#45;b574a6836cce -->
<g id="edge19" class="edge">
<title>c6dbc79a&#45;b8f5&#45;4b9e&#45;99f2&#45;511bb993dba8&#45;&gt;7e25d0d0&#45;f7a6&#45;4e84&#45;830b&#45;b574a6836cce</title>
<path fill="none" stroke="black" d="M480.44,-152.43C483.45,-150.15 486.54,-147.82 489.47,-145.63 503.01,-135.55 518.17,-124.48 530.82,-115.31"/>
<polygon fill="black" stroke="black" points="532.67,-118.3 538.72,-109.6 528.56,-112.63 532.67,-118.3"/>
</g>
<!-- 4069091b&#45;f77c&#45;4df0&#45;aab0&#45;f5a84bf5542d -->
<g id="node18" class="node">
<title>4069091b&#45;f77c&#45;4df0&#45;aab0&#45;f5a84bf5542d</title>
<ellipse fill="#ffff80" stroke="black" cx="136.47" cy="-21.57" rx="136.47" ry="21.57"/>
<text text-anchor="middle" x="136.47" y="-13.82" font-family="Times New Roman,serif" font-size="20.00">IsNear(self,magazine)</text>
</g>
<!-- ed34efb2&#45;683a&#45;4d30&#45;9a73&#45;5a19af164f3f&#45;&gt;4069091b&#45;f77c&#45;4df0&#45;aab0&#45;f5a84bf5542d -->
<g id="edge17" class="edge">
<title>ed34efb2&#45;683a&#45;4d30&#45;9a73&#45;5a19af164f3f&#45;&gt;4069091b&#45;f77c&#45;4df0&#45;aab0&#45;f5a84bf5542d</title>
<path fill="none" stroke="black" d="M347.12,-87.71C317.22,-78.46 256.46,-59.67 207.84,-44.64"/>
<polygon fill="black" stroke="black" points="209.07,-41.36 198.49,-41.74 207.01,-48.04 209.07,-41.36"/>
</g>
<!-- 7526d61c&#45;2d34&#45;41f6&#45;87e0&#45;33b66d739e05 -->
<g id="node19" class="node">
<title>7526d61c&#45;2d34&#45;41f6&#45;87e0&#45;33b66d739e05</title>
<polygon fill="lightgreen" stroke="black" points="439.85,-39.57 291.1,-39.57 291.1,-3.57 439.85,-3.57 439.85,-39.57"/>
<text text-anchor="middle" x="365.47" y="-13.82" font-family="Times New Roman,serif" font-size="20.00">Open(magazine)</text>
</g>
<!-- ed34efb2&#45;683a&#45;4d30&#45;9a73&#45;5a19af164f3f&#45;&gt;7526d61c&#45;2d34&#45;41f6&#45;87e0&#45;33b66d739e05 -->
<g id="edge18" class="edge">
<title>ed34efb2&#45;683a&#45;4d30&#45;9a73&#45;5a19af164f3f&#45;&gt;7526d61c&#45;2d34&#45;41f6&#45;87e0&#45;33b66d739e05</title>
<path fill="none" stroke="black" d="M365.47,-78.71C365.47,-70.79 365.47,-60.74 365.47,-51.33"/>
<polygon fill="black" stroke="black" points="368.97,-51.48 365.47,-41.48 361.97,-51.48 368.97,-51.48"/>
</g>
<!-- 7953641c&#45;3bab&#45;4f5f&#45;8420&#45;c3f021418439 -->
<g id="node21" class="node">
<title>7953641c&#45;3bab&#45;4f5f&#45;8420&#45;c3f021418439</title>
<ellipse fill="#ffff80" stroke="black" cx="558.47" cy="-21.57" rx="100.41" ry="21.57"/>
<text text-anchor="middle" x="558.47" y="-13.82" font-family="Times New Roman,serif" font-size="20.00">IsStanding(self)</text>
</g>
<!-- 7e25d0d0&#45;f7a6&#45;4e84&#45;830b&#45;b574a6836cce&#45;&gt;7953641c&#45;3bab&#45;4f5f&#45;8420&#45;c3f021418439 -->
<g id="edge20" class="edge">
<title>7e25d0d0&#45;f7a6&#45;4e84&#45;830b&#45;b574a6836cce&#45;&gt;7953641c&#45;3bab&#45;4f5f&#45;8420&#45;c3f021418439</title>
<path fill="none" stroke="black" d="M558.47,-78.71C558.47,-71.77 558.47,-63.19 558.47,-54.85"/>
<polygon fill="black" stroke="black" points="561.97,-54.91 558.47,-44.91 554.97,-54.91 561.97,-54.91"/>
</g>
<!-- fed59ebb&#45;0cde&#45;4a11&#45;9a8d&#45;96a14940efab -->
<g id="node22" class="node">
<title>fed59ebb&#45;0cde&#45;4a11&#45;9a8d&#45;96a14940efab</title>
<polygon fill="lightgreen" stroke="black" points="824.1,-39.57 676.85,-39.57 676.85,-3.57 824.1,-3.57 824.1,-39.57"/>
<text text-anchor="middle" x="750.47" y="-13.82" font-family="Times New Roman,serif" font-size="20.00">Walk(magazine)</text>
</g>
<!-- 7e25d0d0&#45;f7a6&#45;4e84&#45;830b&#45;b574a6836cce&#45;&gt;fed59ebb&#45;0cde&#45;4a11&#45;9a8d&#45;96a14940efab -->
<g id="edge21" class="edge">
<title>7e25d0d0&#45;f7a6&#45;4e84&#45;830b&#45;b574a6836cce&#45;&gt;fed59ebb&#45;0cde&#45;4a11&#45;9a8d&#45;96a14940efab</title>
<path fill="none" stroke="black" d="M576.88,-86.59C603.28,-76.86 653.04,-58.5 692.55,-43.93"/>
<polygon fill="black" stroke="black" points="693.54,-47.3 701.71,-40.55 691.11,-40.73 693.54,-47.3"/>
</g>
<!-- 006520d9&#45;777f&#45;469d&#45;8ca0&#45;f4b5004a0651 -->
<g id="node24" class="node">
<title>006520d9&#45;777f&#45;469d&#45;8ca0&#45;f4b5004a0651</title>
<ellipse fill="#ffff80" stroke="black" cx="683.47" cy="-167.2" rx="185.26" ry="21.57"/>
<text text-anchor="middle" x="683.47" y="-159.45" font-family="Times New Roman,serif" font-size="20.00">IsRightHolding(self,wineglass)</text>
</g>
<!-- 54987e75&#45;d555&#45;4634&#45;8a66&#45;9238a9a57770&#45;&gt;006520d9&#45;777f&#45;469d&#45;8ca0&#45;f4b5004a0651 -->
<g id="edge23" class="edge">
<title>54987e75&#45;d555&#45;4634&#45;8a66&#45;9238a9a57770&#45;&gt;006520d9&#45;777f&#45;469d&#45;8ca0&#45;f4b5004a0651</title>
<path fill="none" stroke="black" d="M968.91,-240.62C930.18,-230.8 838.63,-207.57 769.57,-190.05"/>
<polygon fill="black" stroke="black" points="770.72,-186.73 760.16,-187.66 768.99,-193.51 770.72,-186.73"/>
</g>
<!-- 10aff3c2&#45;1fc0&#45;466d&#45;a103&#45;b60dc7fefe0a -->
<g id="node25" class="node">
<title>10aff3c2&#45;1fc0&#45;466d&#45;a103&#45;b60dc7fefe0a</title>
<ellipse fill="#ffff80" stroke="black" cx="987.47" cy="-167.2" rx="100.41" ry="21.57"/>
<text text-anchor="middle" x="987.47" y="-159.45" font-family="Times New Roman,serif" font-size="20.00">IsStanding(self)</text>
</g>
<!-- 54987e75&#45;d555&#45;4634&#45;8a66&#45;9238a9a57770&#45;&gt;10aff3c2&#45;1fc0&#45;466d&#45;a103&#45;b60dc7fefe0a -->
<g id="edge24" class="edge">
<title>54987e75&#45;d555&#45;4634&#45;8a66&#45;9238a9a57770&#45;&gt;10aff3c2&#45;1fc0&#45;466d&#45;a103&#45;b60dc7fefe0a</title>
<path fill="none" stroke="black" d="M987.47,-230.83C987.47,-222.26 987.47,-211.07 987.47,-200.52"/>
<polygon fill="black" stroke="black" points="990.97,-200.56 987.47,-190.56 983.97,-200.56 990.97,-200.56"/>
</g>
<!-- 07f75f7e&#45;0128&#45;48ed&#45;8253&#45;ae3dac1980b2 -->
<g id="node26" class="node">
<title>07f75f7e&#45;0128&#45;48ed&#45;8253&#45;ae3dac1980b2</title>
<ellipse fill="#ffff80" stroke="black" cx="1242.47" cy="-167.2" rx="137" ry="21.57"/>
<text text-anchor="middle" x="1242.47" y="-159.45" font-family="Times New Roman,serif" font-size="20.00">IsNear(self,bookshelf)</text>
</g>
<!-- 54987e75&#45;d555&#45;4634&#45;8a66&#45;9238a9a57770&#45;&gt;07f75f7e&#45;0128&#45;48ed&#45;8253&#45;ae3dac1980b2 -->
<g id="edge25" class="edge">
<title>54987e75&#45;d555&#45;4634&#45;8a66&#45;9238a9a57770&#45;&gt;07f75f7e&#45;0128&#45;48ed&#45;8253&#45;ae3dac1980b2</title>
<path fill="none" stroke="black" d="M1004.51,-230.73C1007.68,-228.5 1011.07,-226.4 1014.47,-224.77 1052.12,-206.71 1096.13,-194.05 1135.38,-185.36"/>
<polygon fill="black" stroke="black" points="1136.06,-188.79 1145.1,-183.27 1134.59,-181.95 1136.06,-188.79"/>
</g>
<!-- 000fae8c&#45;a89c&#45;4b64&#45;a231&#45;a6c71821f965 -->
<g id="node27" class="node">
<title>000fae8c&#45;a89c&#45;4b64&#45;a231&#45;a6c71821f965</title>
<polygon fill="lightgreen" stroke="black" points="1656.97,-185.2 1397.97,-185.2 1397.97,-149.2 1656.97,-149.2 1656.97,-185.2"/>
<text text-anchor="middle" x="1527.47" y="-159.45" font-family="Times New Roman,serif" font-size="20.00">RightPut(wineglass,bookshelf)</text>
</g>
<!-- 54987e75&#45;d555&#45;4634&#45;8a66&#45;9238a9a57770&#45;&gt;000fae8c&#45;a89c&#45;4b64&#45;a231&#45;a6c71821f965 -->
<g id="edge26" class="edge">
<title>54987e75&#45;d555&#45;4634&#45;8a66&#45;9238a9a57770&#45;&gt;000fae8c&#45;a89c&#45;4b64&#45;a231&#45;a6c71821f965</title>
<path fill="none" stroke="black" d="M1003.73,-230.71C1007.09,-228.37 1010.74,-226.23 1014.47,-224.77 1169.95,-163.84 1222.71,-208.99 1388.47,-188.77 1392.78,-188.24 1397.15,-187.69 1401.57,-187.12"/>
<polygon fill="black" stroke="black" points="1401.66,-190.64 1411.12,-185.86 1400.75,-183.7 1401.66,-190.64"/>
</g>
<!-- 5ed72f33&#45;dd66&#45;43f6&#45;9300&#45;ebd34391ab66 -->
<g id="node29" class="node">
<title>5ed72f33&#45;dd66&#45;43f6&#45;9300&#45;ebd34391ab66</title>
<ellipse fill="#ffff80" stroke="black" cx="1208.47" cy="-246.33" rx="185.26" ry="21.57"/>
<text text-anchor="middle" x="1208.47" y="-238.58" font-family="Times New Roman,serif" font-size="20.00">IsRightHolding(self,wineglass)</text>
</g>
<!-- ecc18560&#45;6e0c&#45;4955&#45;abf7&#45;b54915c701d1&#45;&gt;5ed72f33&#45;dd66&#45;43f6&#45;9300&#45;ebd34391ab66 -->
<g id="edge28" class="edge">
<title>ecc18560&#45;6e0c&#45;4955&#45;abf7&#45;b54915c701d1&#45;&gt;5ed72f33&#45;dd66&#45;43f6&#45;9300&#45;ebd34391ab66</title>
<path fill="none" stroke="black" d="M1342.14,-315.16C1321.67,-304.78 1287.68,-287.53 1259.09,-273.02"/>
<polygon fill="black" stroke="black" points="1260.69,-269.91 1250.19,-268.5 1257.52,-276.15 1260.69,-269.91"/>
</g>
<!-- 07e9c83f&#45;5a62&#45;43ce&#45;8e9e&#45;ea450bc1ab5c -->
<g id="node30" class="node">
<title>07e9c83f&#45;5a62&#45;43ce&#45;8e9e&#45;ea450bc1ab5c</title>
<ellipse fill="#ffff80" stroke="black" cx="1512.47" cy="-246.33" rx="100.41" ry="21.57"/>
<text text-anchor="middle" x="1512.47" y="-238.58" font-family="Times New Roman,serif" font-size="20.00">IsStanding(self)</text>
</g>
<!-- ecc18560&#45;6e0c&#45;4955&#45;abf7&#45;b54915c701d1&#45;&gt;07e9c83f&#45;5a62&#45;43ce&#45;8e9e&#45;ea450bc1ab5c -->
<g id="edge29" class="edge">
<title>ecc18560&#45;6e0c&#45;4955&#45;abf7&#45;b54915c701d1&#45;&gt;07e9c83f&#45;5a62&#45;43ce&#45;8e9e&#45;ea450bc1ab5c</title>
<path fill="none" stroke="black" d="M1378.67,-309.73C1381.55,-307.67 1384.54,-305.65 1387.47,-303.9 1408.65,-291.26 1433.15,-279.59 1454.82,-270.18"/>
<polygon fill="black" stroke="black" points="1455.99,-273.48 1463.81,-266.33 1453.24,-267.04 1455.99,-273.48"/>
</g>
<!-- 785b5594&#45;78c3&#45;471e&#45;b31a&#45;82d46d17add6 -->
<g id="node31" class="node">
<title>785b5594&#45;78c3&#45;471e&#45;b31a&#45;82d46d17add6</title>
<polygon fill="lightgreen" stroke="black" points="1778.47,-264.33 1630.47,-264.33 1630.47,-228.33 1778.47,-228.33 1778.47,-264.33"/>
<text text-anchor="middle" x="1704.47" y="-238.58" font-family="Times New Roman,serif" font-size="20.00">Walk(bookshelf)</text>
</g>
<!-- ecc18560&#45;6e0c&#45;4955&#45;abf7&#45;b54915c701d1&#45;&gt;785b5594&#45;78c3&#45;471e&#45;b31a&#45;82d46d17add6 -->
<g id="edge30" class="edge">
<title>ecc18560&#45;6e0c&#45;4955&#45;abf7&#45;b54915c701d1&#45;&gt;785b5594&#45;78c3&#45;471e&#45;b31a&#45;82d46d17add6</title>
<path fill="none" stroke="black" d="M1377.1,-309.81C1380.36,-307.53 1383.89,-305.42 1387.47,-303.9 1484.31,-262.75 1518.3,-288.58 1621.47,-267.9 1622.67,-267.66 1623.88,-267.41 1625.1,-267.16"/>
<polygon fill="black" stroke="black" points="1625.67,-270.62 1634.71,-265.09 1624.2,-263.78 1625.67,-270.62"/>
</g>
<!-- f2dbd6da&#45;27f2&#45;4b7e&#45;84b9&#45;cfceba05c6b7 -->
<g id="node33" class="node">
<title>f2dbd6da&#45;27f2&#45;4b7e&#45;84b9&#45;cfceba05c6b7</title>
<ellipse fill="#ffff80" stroke="black" cx="1533.47" cy="-325.47" rx="137" ry="21.57"/>
<text text-anchor="middle" x="1533.47" y="-317.72" font-family="Times New Roman,serif" font-size="20.00">IsNear(self,wineglass)</text>
</g>
<!-- 8f38e8a3&#45;5503&#45;4b62&#45;b13c&#45;dec969aa7433&#45;&gt;f2dbd6da&#45;27f2&#45;4b7e&#45;84b9&#45;cfceba05c6b7 -->
<g id="edge32" class="edge">
<title>8f38e8a3&#45;5503&#45;4b62&#45;b13c&#45;dec969aa7433&#45;&gt;f2dbd6da&#45;27f2&#45;4b7e&#45;84b9&#45;cfceba05c6b7</title>
<path fill="none" stroke="black" d="M1818.91,-398.89C1779.33,-388.85 1684.55,-364.8 1615.02,-347.16"/>
<polygon fill="black" stroke="black" points="1616.12,-343.83 1605.56,-344.76 1614.39,-350.61 1616.12,-343.83"/>
</g>
<!-- dafe19c3&#45;3f06&#45;47a0&#45;9e83&#45;654c53976fe5 -->
<g id="node34" class="node">
<title>dafe19c3&#45;3f06&#45;47a0&#45;9e83&#45;654c53976fe5</title>
<ellipse fill="#ffff80" stroke="black" cx="1837.47" cy="-325.47" rx="149.2" ry="21.57"/>
<text text-anchor="middle" x="1837.47" y="-317.72" font-family="Times New Roman,serif" font-size="20.00">IsRightHandEmpty(self)</text>
</g>
<!-- 8f38e8a3&#45;5503&#45;4b62&#45;b13c&#45;dec969aa7433&#45;&gt;dafe19c3&#45;3f06&#45;47a0&#45;9e83&#45;654c53976fe5 -->
<g id="edge33" class="edge">
<title>8f38e8a3&#45;5503&#45;4b62&#45;b13c&#45;dec969aa7433&#45;&gt;dafe19c3&#45;3f06&#45;47a0&#45;9e83&#45;654c53976fe5</title>
<path fill="none" stroke="black" d="M1837.47,-389.09C1837.47,-380.53 1837.47,-369.34 1837.47,-358.78"/>
<polygon fill="black" stroke="black" points="1840.97,-358.83 1837.47,-348.83 1833.97,-358.83 1840.97,-358.83"/>
</g>
<!-- f161241f&#45;e427&#45;4623&#45;9c6f&#45;4b2749888f18 -->
<g id="node35" class="node">
<title>f161241f&#45;e427&#45;4623&#45;9c6f&#45;4b2749888f18</title>
<ellipse fill="#ffff80" stroke="black" cx="2105.47" cy="-325.47" rx="100.41" ry="21.57"/>
<text text-anchor="middle" x="2105.47" y="-317.72" font-family="Times New Roman,serif" font-size="20.00">IsStanding(self)</text>
</g>
<!-- 8f38e8a3&#45;5503&#45;4b62&#45;b13c&#45;dec969aa7433&#45;&gt;f161241f&#45;e427&#45;4623&#45;9c6f&#45;4b2749888f18 -->
<g id="edge34" class="edge">
<title>8f38e8a3&#45;5503&#45;4b62&#45;b13c&#45;dec969aa7433&#45;&gt;f161241f&#45;e427&#45;4623&#45;9c6f&#45;4b2749888f18</title>
<path fill="none" stroke="black" d="M1854.5,-388.96C1857.67,-386.73 1861.06,-384.64 1864.47,-383.03 1891.95,-370.07 1962.59,-354.17 2020.33,-342.54"/>
<polygon fill="black" stroke="black" points="2020.71,-346.03 2029.84,-340.64 2019.34,-339.16 2020.71,-346.03"/>
</g>
<!-- 20425bf1&#45;81e3&#45;458d&#45;8d1c&#45;2b09466ba806 -->
<g id="node36" class="node">
<title>20425bf1&#45;81e3&#45;458d&#45;8d1c&#45;2b09466ba806</title>
<polygon fill="lightgreen" stroke="black" points="2413.47,-343.47 2223.47,-343.47 2223.47,-307.47 2413.47,-307.47 2413.47,-343.47"/>
<text text-anchor="middle" x="2318.47" y="-317.72" font-family="Times New Roman,serif" font-size="20.00">RightGrab(wineglass)</text>
</g>
<!-- 8f38e8a3&#45;5503&#45;4b62&#45;b13c&#45;dec969aa7433&#45;&gt;20425bf1&#45;81e3&#45;458d&#45;8d1c&#45;2b09466ba806 -->
<g id="edge35" class="edge">
<title>8f38e8a3&#45;5503&#45;4b62&#45;b13c&#45;dec969aa7433&#45;&gt;20425bf1&#45;81e3&#45;458d&#45;8d1c&#45;2b09466ba806</title>
<path fill="none" stroke="black" d="M1853.74,-389C1857.09,-386.65 1860.75,-384.51 1864.47,-383.03 2009.88,-325.51 2059.82,-370.23 2214.47,-347.03 2216.99,-346.66 2219.53,-346.26 2222.1,-345.85"/>
<polygon fill="black" stroke="black" points="2222.67,-349.3 2231.96,-344.2 2221.52,-342.4 2222.67,-349.3"/>
</g>
<!-- 1e52b801&#45;ce13&#45;4954&#45;a61a&#45;068b9eeef8d1 -->
<g id="node38" class="node">
<title>1e52b801&#45;ce13&#45;4954&#45;a61a&#45;068b9eeef8d1</title>
<ellipse fill="#ffff80" stroke="black" cx="2022.47" cy="-404.6" rx="149.2" ry="21.57"/>
<text text-anchor="middle" x="2022.47" y="-396.85" font-family="Times New Roman,serif" font-size="20.00">IsRightHandEmpty(self)</text>
</g>
<!-- b13363e2&#45;b2fb&#45;4590&#45;a06e&#45;5152a81d4ce9&#45;&gt;1e52b801&#45;ce13&#45;4954&#45;a61a&#45;068b9eeef8d1 -->
<g id="edge37" class="edge">
<title>b13363e2&#45;b2fb&#45;4590&#45;a06e&#45;5152a81d4ce9&#45;&gt;1e52b801&#45;ce13&#45;4954&#45;a61a&#45;068b9eeef8d1</title>
<path fill="none" stroke="black" d="M2138.12,-466.72C2120.89,-457.61 2094.34,-443.58 2071.02,-431.26"/>
<polygon fill="black" stroke="black" points="2072.74,-428.21 2062.26,-426.63 2069.47,-434.4 2072.74,-428.21"/>
</g>
<!-- 073dc975&#45;d001&#45;43a9&#45;99d0&#45;ac4577a7825c -->
<g id="node39" class="node">
<title>073dc975&#45;d001&#45;43a9&#45;99d0&#45;ac4577a7825c</title>
<ellipse fill="#ffff80" stroke="black" cx="2290.47" cy="-404.6" rx="100.41" ry="21.57"/>
<text text-anchor="middle" x="2290.47" y="-396.85" font-family="Times New Roman,serif" font-size="20.00">IsStanding(self)</text>
</g>
<!-- b13363e2&#45;b2fb&#45;4590&#45;a06e&#45;5152a81d4ce9&#45;&gt;073dc975&#45;d001&#45;43a9&#45;99d0&#45;ac4577a7825c -->
<g id="edge38" class="edge">
<title>b13363e2&#45;b2fb&#45;4590&#45;a06e&#45;5152a81d4ce9&#45;&gt;073dc975&#45;d001&#45;43a9&#45;99d0&#45;ac4577a7825c</title>
<path fill="none" stroke="black" d="M2174.82,-466.72C2192.51,-457.37 2220.01,-442.84 2243.76,-430.29"/>
<polygon fill="black" stroke="black" points="2245.12,-433.53 2252.32,-425.76 2241.85,-427.34 2245.12,-433.53"/>
</g>
<!-- 2b8af95a&#45;75f5&#45;44c3&#45;87ba&#45;06ac0aa458c1 -->
<g id="node40" class="node">
<title>2b8af95a&#45;75f5&#45;44c3&#45;87ba&#45;06ac0aa458c1</title>
<polygon fill="lightgreen" stroke="black" points="2556.47,-422.6 2408.47,-422.6 2408.47,-386.6 2556.47,-386.6 2556.47,-422.6"/>
<text text-anchor="middle" x="2482.47" y="-396.85" font-family="Times New Roman,serif" font-size="20.00">Walk(wineglass)</text>
</g>
<!-- b13363e2&#45;b2fb&#45;4590&#45;a06e&#45;5152a81d4ce9&#45;&gt;2b8af95a&#45;75f5&#45;44c3&#45;87ba&#45;06ac0aa458c1 -->
<g id="edge39" class="edge">
<title>b13363e2&#45;b2fb&#45;4590&#45;a06e&#45;5152a81d4ce9&#45;&gt;2b8af95a&#45;75f5&#45;44c3&#45;87ba&#45;06ac0aa458c1</title>
<path fill="none" stroke="black" d="M2174.81,-472.88C2215.41,-464.99 2315.87,-445.16 2399.47,-426.17 2400.29,-425.98 2401.1,-425.8 2401.93,-425.61"/>
<polygon fill="black" stroke="black" points="2402.36,-429.1 2411.3,-423.42 2400.77,-422.28 2402.36,-429.1"/>
</g>
</g>
</svg>
