<?xml version="1.0" encoding="UTF-8" standalone="no"?>
<!DOCTYPE svg PUBLIC "-//W3C//DTD SVG 1.1//EN"
 "http://www.w3.org/Graphics/SVG/1.1/DTD/svg11.dtd">
<!-- Generated by graphviz version 12.1.0 (20240811.2233)
 -->
<!-- Title: pastafarianism Pages: 1 -->
<svg width="2065pt" height="427pt"
 viewBox="0.00 0.00 2065.49 427.03" xmlns="http://www.w3.org/2000/svg" xmlns:xlink="http://www.w3.org/1999/xlink">
<g id="graph0" class="graph" transform="scale(1 1) rotate(0) translate(4 423.03)">
<title>pastafarianism</title>
<polygon fill="white" stroke="none" points="-4,4 -4,-423.03 2061.49,-423.03 2061.49,4 -4,4"/>
<!-- 668a8159&#45;0eb6&#45;4fb9&#45;b06b&#45;b004e6b097a7 -->
<g id="node1" class="node">
<title>668a8159&#45;0eb6&#45;4fb9&#45;b06b&#45;b004e6b097a7</title>
<polygon fill="#b0ffff" stroke="black" points="1011.74,-419.03 976.24,-419.03 976.24,-388.53 1011.74,-388.53 1011.74,-419.03"/>
<text text-anchor="middle" x="993.99" y="-396.03" font-family="Times New Roman,serif" font-size="20.00"> ? </text>
</g>
<!-- 44f690e7&#45;1ad0&#45;4456&#45;b0e3&#45;1eb90c068e39 -->
<g id="node2" class="node">
<title>44f690e7&#45;1ad0&#45;4456&#45;b0e3&#45;1eb90c068e39</title>
<ellipse fill="#ffff80" stroke="black" cx="876.99" cy="-330.97" rx="81.32" ry="21.57"/>
<text text-anchor="middle" x="876.99" y="-323.22" font-family="Times New Roman,serif" font-size="20.00">IsCut(apple)</text>
</g>
<!-- 668a8159&#45;0eb6&#45;4fb9&#45;b06b&#45;b004e6b097a7&#45;&gt;44f690e7&#45;1ad0&#45;4456&#45;b0e3&#45;1eb90c068e39 -->
<g id="edge1" class="edge">
<title>668a8159&#45;0eb6&#45;4fb9&#45;b06b&#45;b004e6b097a7&#45;&gt;44f690e7&#45;1ad0&#45;4456&#45;b0e3&#45;1eb90c068e39</title>
<path fill="none" stroke="black" d="M975.96,-391.87C960.61,-382.58 937.96,-368.87 918.2,-356.91"/>
<polygon fill="black" stroke="black" points="920.14,-354 909.77,-351.81 916.52,-359.99 920.14,-354"/>
</g>
<!-- bc9aa92d&#45;e635&#45;4781&#45;8969&#45;883451294b4c -->
<g id="node3" class="node">
<title>bc9aa92d&#45;e635&#45;4781&#45;8969&#45;883451294b4c</title>
<polygon fill="#ff8080" stroke="black" points="1012.11,-346.22 975.86,-346.22 975.86,-315.72 1012.11,-315.72 1012.11,-346.22"/>
<text text-anchor="middle" x="993.99" y="-323.22" font-family="Times New Roman,serif" font-size="20.00">→</text>
</g>
<!-- 668a8159&#45;0eb6&#45;4fb9&#45;b06b&#45;b004e6b097a7&#45;&gt;bc9aa92d&#45;e635&#45;4781&#45;8969&#45;883451294b4c -->
<g id="edge2" class="edge">
<title>668a8159&#45;0eb6&#45;4fb9&#45;b06b&#45;b004e6b097a7&#45;&gt;bc9aa92d&#45;e635&#45;4781&#45;8969&#45;883451294b4c</title>
<path fill="none" stroke="black" d="M993.99,-388.11C993.99,-379.38 993.99,-368.04 993.99,-357.84"/>
<polygon fill="black" stroke="black" points="997.49,-358.14 993.99,-348.14 990.49,-358.14 997.49,-358.14"/>
</g>
<!-- cb6fdc28&#45;f9da&#45;43bb&#45;8cce&#45;a72d3de4fe50 -->
<g id="node18" class="node">
<title>cb6fdc28&#45;f9da&#45;43bb&#45;8cce&#45;a72d3de4fe50</title>
<polygon fill="#ff8080" stroke="black" points="1499.11,-346.22 1462.86,-346.22 1462.86,-315.72 1499.11,-315.72 1499.11,-346.22"/>
<text text-anchor="middle" x="1480.99" y="-323.22" font-family="Times New Roman,serif" font-size="20.00">→</text>
</g>
<!-- 668a8159&#45;0eb6&#45;4fb9&#45;b06b&#45;b004e6b097a7&#45;&gt;cb6fdc28&#45;f9da&#45;43bb&#45;8cce&#45;a72d3de4fe50 -->
<g id="edge17" class="edge">
<title>668a8159&#45;0eb6&#45;4fb9&#45;b06b&#45;b004e6b097a7&#45;&gt;cb6fdc28&#45;f9da&#45;43bb&#45;8cce&#45;a72d3de4fe50</title>
<path fill="none" stroke="black" d="M1012.19,-400.14C1085.56,-389.47 1360.04,-349.55 1451.29,-336.29"/>
<polygon fill="black" stroke="black" points="1451.54,-339.79 1460.93,-334.88 1450.53,-332.86 1451.54,-339.79"/>
</g>
<!-- 5adffc79&#45;d9c7&#45;4bde&#45;9b4a&#45;aaaaced07f18 -->
<g id="node4" class="node">
<title>5adffc79&#45;d9c7&#45;4bde&#45;9b4a&#45;aaaaced07f18</title>
<ellipse fill="#ffff80" stroke="black" cx="804.99" cy="-251.83" rx="153.44" ry="21.57"/>
<text text-anchor="middle" x="804.99" y="-244.08" font-family="Times New Roman,serif" font-size="20.00">IsLeftHolding(self,apple)</text>
</g>
<!-- bc9aa92d&#45;e635&#45;4781&#45;8969&#45;883451294b4c&#45;&gt;5adffc79&#45;d9c7&#45;4bde&#45;9b4a&#45;aaaaced07f18 -->
<g id="edge3" class="edge">
<title>bc9aa92d&#45;e635&#45;4781&#45;8969&#45;883451294b4c&#45;&gt;5adffc79&#45;d9c7&#45;4bde&#45;9b4a&#45;aaaaced07f18</title>
<path fill="none" stroke="black" d="M976.51,-315.42C973.45,-313.23 970.2,-311.13 966.99,-309.4 941.16,-295.51 911.24,-283.94 884.2,-274.96"/>
<polygon fill="black" stroke="black" points="885.63,-271.74 875.04,-271.98 883.47,-278.4 885.63,-271.74"/>
</g>
<!-- 7bd94f8d&#45;f84c&#45;4928&#45;9cfa&#45;34de80164116 -->
<g id="node5" class="node">
<title>7bd94f8d&#45;f84c&#45;4928&#45;9cfa&#45;34de80164116</title>
<polygon fill="#b0ffff" stroke="black" points="1011.74,-267.08 976.24,-267.08 976.24,-236.58 1011.74,-236.58 1011.74,-267.08"/>
<text text-anchor="middle" x="993.99" y="-244.08" font-family="Times New Roman,serif" font-size="20.00"> ? </text>
</g>
<!-- bc9aa92d&#45;e635&#45;4781&#45;8969&#45;883451294b4c&#45;&gt;7bd94f8d&#45;f84c&#45;4928&#45;9cfa&#45;34de80164116 -->
<g id="edge4" class="edge">
<title>bc9aa92d&#45;e635&#45;4781&#45;8969&#45;883451294b4c&#45;&gt;7bd94f8d&#45;f84c&#45;4928&#45;9cfa&#45;34de80164116</title>
<path fill="none" stroke="black" d="M993.99,-315.46C993.99,-305.18 993.99,-291.11 993.99,-278.91"/>
<polygon fill="black" stroke="black" points="997.49,-279.05 993.99,-269.05 990.49,-279.05 997.49,-279.05"/>
</g>
<!-- 48d06e14&#45;9d0e&#45;4d4a&#45;81af&#45;a57ead67c505 -->
<g id="node6" class="node">
<title>48d06e14&#45;9d0e&#45;4d4a&#45;81af&#45;a57ead67c505</title>
<polygon fill="#b0ffff" stroke="black" points="720.74,-191.52 685.24,-191.52 685.24,-161.02 720.74,-161.02 720.74,-191.52"/>
<text text-anchor="middle" x="702.99" y="-168.52" font-family="Times New Roman,serif" font-size="20.00"> ? </text>
</g>
<!-- 7bd94f8d&#45;f84c&#45;4928&#45;9cfa&#45;34de80164116&#45;&gt;48d06e14&#45;9d0e&#45;4d4a&#45;81af&#45;a57ead67c505 -->
<g id="edge5" class="edge">
<title>7bd94f8d&#45;f84c&#45;4928&#45;9cfa&#45;34de80164116&#45;&gt;48d06e14&#45;9d0e&#45;4d4a&#45;81af&#45;a57ead67c505</title>
<path fill="none" stroke="black" d="M977,-236.1C973.83,-233.88 970.42,-231.82 966.99,-230.27 887.1,-194.16 782.58,-182.51 732.39,-178.86"/>
<polygon fill="black" stroke="black" points="732.85,-175.39 722.64,-178.22 732.38,-182.37 732.85,-175.39"/>
</g>
<!-- 682a91bc&#45;37d4&#45;4c62&#45;a60e&#45;2dd2b43ab43f -->
<g id="node14" class="node">
<title>682a91bc&#45;37d4&#45;4c62&#45;a60e&#45;2dd2b43ab43f</title>
<polygon fill="#ff8080" stroke="black" points="1040.11,-191.52 1003.86,-191.52 1003.86,-161.02 1040.11,-161.02 1040.11,-191.52"/>
<text text-anchor="middle" x="1021.99" y="-168.52" font-family="Times New Roman,serif" font-size="20.00">→</text>
</g>
<!-- 7bd94f8d&#45;f84c&#45;4928&#45;9cfa&#45;34de80164116&#45;&gt;682a91bc&#45;37d4&#45;4c62&#45;a60e&#45;2dd2b43ab43f -->
<g id="edge13" class="edge">
<title>7bd94f8d&#45;f84c&#45;4928&#45;9cfa&#45;34de80164116&#45;&gt;682a91bc&#45;37d4&#45;4c62&#45;a60e&#45;2dd2b43ab43f</title>
<path fill="none" stroke="black" d="M999.52,-236.3C1003.2,-226.63 1008.13,-213.67 1012.44,-202.35"/>
<polygon fill="black" stroke="black" points="1015.64,-203.78 1015.93,-193.19 1009.1,-201.29 1015.64,-203.78"/>
</g>
<!-- d61f27ba&#45;94a0&#45;4dbb&#45;8d53&#45;dfb786d9144e -->
<g id="node7" class="node">
<title>d61f27ba&#45;94a0&#45;4dbb&#45;8d53&#45;dfb786d9144e</title>
<polygon fill="#ff8080" stroke="black" points="342.11,-115.95 305.86,-115.95 305.86,-85.45 342.11,-85.45 342.11,-115.95"/>
<text text-anchor="middle" x="323.99" y="-92.95" font-family="Times New Roman,serif" font-size="20.00">→</text>
</g>
<!-- 48d06e14&#45;9d0e&#45;4d4a&#45;81af&#45;a57ead67c505&#45;&gt;d61f27ba&#45;94a0&#45;4dbb&#45;8d53&#45;dfb786d9144e -->
<g id="edge6" class="edge">
<title>48d06e14&#45;9d0e&#45;4d4a&#45;81af&#45;a57ead67c505&#45;&gt;d61f27ba&#45;94a0&#45;4dbb&#45;8d53&#45;dfb786d9144e</title>
<path fill="none" stroke="black" d="M684.96,-171.77C624.5,-160.03 428.49,-121.99 353.52,-107.43"/>
<polygon fill="black" stroke="black" points="354.54,-104.06 344.05,-105.6 353.2,-110.94 354.54,-104.06"/>
</g>
<!-- 1acb2fc9&#45;b3ce&#45;4820&#45;9500&#45;8ce45f7997ae -->
<g id="node10" class="node">
<title>1acb2fc9&#45;b3ce&#45;4820&#45;9500&#45;8ce45f7997ae</title>
<polygon fill="#ff8080" stroke="black" points="721.11,-115.95 684.86,-115.95 684.86,-85.45 721.11,-85.45 721.11,-115.95"/>
<text text-anchor="middle" x="702.99" y="-92.95" font-family="Times New Roman,serif" font-size="20.00">→</text>
</g>
<!-- 48d06e14&#45;9d0e&#45;4d4a&#45;81af&#45;a57ead67c505&#45;&gt;1acb2fc9&#45;b3ce&#45;4820&#45;9500&#45;8ce45f7997ae -->
<g id="edge9" class="edge">
<title>48d06e14&#45;9d0e&#45;4d4a&#45;81af&#45;a57ead67c505&#45;&gt;1acb2fc9&#45;b3ce&#45;4820&#45;9500&#45;8ce45f7997ae</title>
<path fill="none" stroke="black" d="M702.99,-160.73C702.99,-151.26 702.99,-138.64 702.99,-127.49"/>
<polygon fill="black" stroke="black" points="706.49,-127.72 702.99,-117.72 699.49,-127.72 706.49,-127.72"/>
</g>
<!-- 8ce9cb35&#45;9fe9&#45;4eee&#45;a23a&#45;25b916f2cacb -->
<g id="node8" class="node">
<title>8ce9cb35&#45;9fe9&#45;4eee&#45;a23a&#45;25b916f2cacb</title>
<ellipse fill="#ffff80" stroke="black" cx="127.99" cy="-21.57" rx="127.99" ry="21.57"/>
<text text-anchor="middle" x="127.99" y="-13.82" font-family="Times New Roman,serif" font-size="20.00">IsHoldingKnife(self)</text>
</g>
<!-- d61f27ba&#45;94a0&#45;4dbb&#45;8d53&#45;dfb786d9144e&#45;&gt;8ce9cb35&#45;9fe9&#45;4eee&#45;a23a&#45;25b916f2cacb -->
<g id="edge7" class="edge">
<title>d61f27ba&#45;94a0&#45;4dbb&#45;8d53&#45;dfb786d9144e&#45;&gt;8ce9cb35&#45;9fe9&#45;4eee&#45;a23a&#45;25b916f2cacb</title>
<path fill="none" stroke="black" d="M305.55,-92.44C278.78,-81.91 227.94,-61.9 187.49,-45.99"/>
<polygon fill="black" stroke="black" points="188.92,-42.79 178.33,-42.38 186.36,-49.3 188.92,-42.79"/>
</g>
<!-- 48dcd2f7&#45;f764&#45;4a44&#45;809c&#45;103ae0f5fb37 -->
<g id="node9" class="node">
<title>48dcd2f7&#45;f764&#45;4a44&#45;809c&#45;103ae0f5fb37</title>
<polygon fill="lightgreen" stroke="black" points="374.36,-39.57 273.61,-39.57 273.61,-3.57 374.36,-3.57 374.36,-39.57"/>
<text text-anchor="middle" x="323.99" y="-13.82" font-family="Times New Roman,serif" font-size="20.00">Cut(apple)</text>
</g>
<!-- d61f27ba&#45;94a0&#45;4dbb&#45;8d53&#45;dfb786d9144e&#45;&gt;48dcd2f7&#45;f764&#45;4a44&#45;809c&#45;103ae0f5fb37 -->
<g id="edge8" class="edge">
<title>d61f27ba&#45;94a0&#45;4dbb&#45;8d53&#45;dfb786d9144e&#45;&gt;48dcd2f7&#45;f764&#45;4a44&#45;809c&#45;103ae0f5fb37</title>
<path fill="none" stroke="black" d="M323.99,-85.19C323.99,-75.67 323.99,-62.89 323.99,-51.36"/>
<polygon fill="black" stroke="black" points="327.49,-51.49 323.99,-41.49 320.49,-51.49 327.49,-51.49"/>
</g>
<!-- 3cc4e523&#45;e5ec&#45;42d9&#45;b870&#45;68bc40092045 -->
<g id="node11" class="node">
<title>3cc4e523&#45;e5ec&#45;42d9&#45;b870&#45;68bc40092045</title>
<ellipse fill="#ffff80" stroke="black" cx="543.99" cy="-21.57" rx="151.85" ry="21.57"/>
<text text-anchor="middle" x="543.99" y="-13.82" font-family="Times New Roman,serif" font-size="20.00">IsNear(self,kitchenknife)</text>
</g>
<!-- 1acb2fc9&#45;b3ce&#45;4820&#45;9500&#45;8ce45f7997ae&#45;&gt;3cc4e523&#45;e5ec&#45;42d9&#45;b870&#45;68bc40092045 -->
<g id="edge10" class="edge">
<title>1acb2fc9&#45;b3ce&#45;4820&#45;9500&#45;8ce45f7997ae&#45;&gt;3cc4e523&#45;e5ec&#45;42d9&#45;b870&#45;68bc40092045</title>
<path fill="none" stroke="black" d="M684.44,-90.7C662.8,-80.2 626.1,-62.4 595.65,-47.63"/>
<polygon fill="black" stroke="black" points="597.48,-44.63 586.95,-43.41 594.42,-50.92 597.48,-44.63"/>
</g>
<!-- b3dae1cd&#45;524d&#45;4495&#45;bf11&#45;ecc4030f7879 -->
<g id="node12" class="node">
<title>b3dae1cd&#45;524d&#45;4495&#45;bf11&#45;ecc4030f7879</title>
<ellipse fill="#ffff80" stroke="black" cx="862.99" cy="-21.57" rx="149.2" ry="21.57"/>
<text text-anchor="middle" x="862.99" y="-13.82" font-family="Times New Roman,serif" font-size="20.00">IsRightHandEmpty(self)</text>
</g>
<!-- 1acb2fc9&#45;b3ce&#45;4820&#45;9500&#45;8ce45f7997ae&#45;&gt;b3dae1cd&#45;524d&#45;4495&#45;bf11&#45;ecc4030f7879 -->
<g id="edge11" class="edge">
<title>1acb2fc9&#45;b3ce&#45;4820&#45;9500&#45;8ce45f7997ae&#45;&gt;b3dae1cd&#45;524d&#45;4495&#45;bf11&#45;ecc4030f7879</title>
<path fill="none" stroke="black" d="M720.86,-85.12C723.82,-82.98 726.93,-80.91 729.99,-79.13 751.33,-66.73 775.92,-55.5 798.1,-46.38"/>
<polygon fill="black" stroke="black" points="799.4,-49.63 807.37,-42.64 796.78,-43.14 799.4,-49.63"/>
</g>
<!-- 05a20945&#45;3934&#45;4e64&#45;968b&#45;aa4b179dcc92 -->
<g id="node13" class="node">
<title>05a20945&#45;3934&#45;4e64&#45;968b&#45;aa4b179dcc92</title>
<polygon fill="lightgreen" stroke="black" points="1241.49,-39.57 1030.49,-39.57 1030.49,-3.57 1241.49,-3.57 1241.49,-39.57"/>
<text text-anchor="middle" x="1135.99" y="-13.82" font-family="Times New Roman,serif" font-size="20.00">RightGrab(kitchenknife)</text>
</g>
<!-- 1acb2fc9&#45;b3ce&#45;4820&#45;9500&#45;8ce45f7997ae&#45;&gt;05a20945&#45;3934&#45;4e64&#45;968b&#45;aa4b179dcc92 -->
<g id="edge12" class="edge">
<title>1acb2fc9&#45;b3ce&#45;4820&#45;9500&#45;8ce45f7997ae&#45;&gt;05a20945&#45;3934&#45;4e64&#45;968b&#45;aa4b179dcc92</title>
<path fill="none" stroke="black" d="M719.58,-84.96C722.85,-82.68 726.38,-80.6 729.99,-79.13 850.67,-29.95 892.13,-62.61 1020.99,-43.13 1023.79,-42.71 1026.64,-42.27 1029.51,-41.82"/>
<polygon fill="black" stroke="black" points="1029.86,-45.31 1039.17,-40.26 1028.74,-38.4 1029.86,-45.31"/>
</g>
<!-- a70f138f&#45;13af&#45;46cc&#45;b678&#45;3ec65bcc2ff2 -->
<g id="node15" class="node">
<title>a70f138f&#45;13af&#45;46cc&#45;b678&#45;3ec65bcc2ff2</title>
<ellipse fill="#ffff80" stroke="black" cx="887.99" cy="-100.7" rx="149.2" ry="21.57"/>
<text text-anchor="middle" x="887.99" y="-92.95" font-family="Times New Roman,serif" font-size="20.00">IsRightHandEmpty(self)</text>
</g>
<!-- 682a91bc&#45;37d4&#45;4c62&#45;a60e&#45;2dd2b43ab43f&#45;&gt;a70f138f&#45;13af&#45;46cc&#45;b678&#45;3ec65bcc2ff2 -->
<g id="edge14" class="edge">
<title>682a91bc&#45;37d4&#45;4c62&#45;a60e&#45;2dd2b43ab43f&#45;&gt;a70f138f&#45;13af&#45;46cc&#45;b678&#45;3ec65bcc2ff2</title>
<path fill="none" stroke="black" d="M1003.64,-165.19C986.01,-155.52 958.64,-140.49 934.96,-127.49"/>
<polygon fill="black" stroke="black" points="936.84,-124.53 926.39,-122.79 933.48,-130.67 936.84,-124.53"/>
</g>
<!-- 1d0cc87c&#45;aad7&#45;4838&#45;aed5&#45;fb7e15ce4d70 -->
<g id="node16" class="node">
<title>1d0cc87c&#45;aad7&#45;4838&#45;aed5&#45;fb7e15ce4d70</title>
<ellipse fill="#ffff80" stroke="black" cx="1155.99" cy="-100.7" rx="100.41" ry="21.57"/>
<text text-anchor="middle" x="1155.99" y="-92.95" font-family="Times New Roman,serif" font-size="20.00">IsStanding(self)</text>
</g>
<!-- 682a91bc&#45;37d4&#45;4c62&#45;a60e&#45;2dd2b43ab43f&#45;&gt;1d0cc87c&#45;aad7&#45;4838&#45;aed5&#45;fb7e15ce4d70 -->
<g id="edge15" class="edge">
<title>682a91bc&#45;37d4&#45;4c62&#45;a60e&#45;2dd2b43ab43f&#45;&gt;1d0cc87c&#45;aad7&#45;4838&#45;aed5&#45;fb7e15ce4d70</title>
<path fill="none" stroke="black" d="M1040.34,-165.19C1058.27,-155.34 1086.31,-139.96 1110.28,-126.79"/>
<polygon fill="black" stroke="black" points="1111.85,-129.92 1118.94,-122.04 1108.49,-123.79 1111.85,-129.92"/>
</g>
<!-- 8ab63254&#45;8d27&#45;4270&#45;9396&#45;a61c8a46bb09 -->
<g id="node17" class="node">
<title>8ab63254&#45;8d27&#45;4270&#45;9396&#45;a61c8a46bb09</title>
<polygon fill="lightgreen" stroke="black" points="1443.49,-118.7 1274.49,-118.7 1274.49,-82.7 1443.49,-82.7 1443.49,-118.7"/>
<text text-anchor="middle" x="1358.99" y="-92.95" font-family="Times New Roman,serif" font-size="20.00">Walk(kitchenknife)</text>
</g>
<!-- 682a91bc&#45;37d4&#45;4c62&#45;a60e&#45;2dd2b43ab43f&#45;&gt;8ab63254&#45;8d27&#45;4270&#45;9396&#45;a61c8a46bb09 -->
<g id="edge16" class="edge">
<title>682a91bc&#45;37d4&#45;4c62&#45;a60e&#45;2dd2b43ab43f&#45;&gt;8ab63254&#45;8d27&#45;4270&#45;9396&#45;a61c8a46bb09</title>
<path fill="none" stroke="black" d="M1040.58,-171.22C1081.27,-162.35 1181.25,-140.56 1264.99,-122.27 1266,-122.04 1267.03,-121.82 1268.06,-121.6"/>
<polygon fill="black" stroke="black" points="1268.74,-125.03 1277.76,-119.47 1267.25,-118.19 1268.74,-125.03"/>
</g>
<!-- 8bfd517d&#45;2f04&#45;43b3&#45;ad2d&#45;bb830e1532a2 -->
<g id="node19" class="node">
<title>8bfd517d&#45;2f04&#45;43b3&#45;ad2d&#45;bb830e1532a2</title>
<ellipse fill="#ffff80" stroke="black" cx="1171.99" cy="-251.83" rx="141.77" ry="21.57"/>
<text text-anchor="middle" x="1171.99" y="-244.08" font-family="Times New Roman,serif" font-size="20.00">IsLeftHandEmpty(self)</text>
</g>
<!-- cb6fdc28&#45;f9da&#45;43bb&#45;8cce&#45;a72d3de4fe50&#45;&gt;8bfd517d&#45;2f04&#45;43b3&#45;ad2d&#45;bb830e1532a2 -->
<g id="edge18" class="edge">
<title>cb6fdc28&#45;f9da&#45;43bb&#45;8cce&#45;a72d3de4fe50&#45;&gt;8bfd517d&#45;2f04&#45;43b3&#45;ad2d&#45;bb830e1532a2</title>
<path fill="none" stroke="black" d="M1462.58,-325.37C1422.69,-315.41 1326.12,-291.31 1255.21,-273.61"/>
<polygon fill="black" stroke="black" points="1256.08,-270.22 1245.53,-271.19 1254.38,-277.01 1256.08,-270.22"/>
</g>
<!-- 518359d7&#45;b40c&#45;4499&#45;a1e0&#45;f93bd83e1cbf -->
<g id="node20" class="node">
<title>518359d7&#45;b40c&#45;4499&#45;a1e0&#45;f93bd83e1cbf</title>
<ellipse fill="#ffff80" stroke="black" cx="1480.99" cy="-251.83" rx="149.2" ry="21.57"/>
<text text-anchor="middle" x="1480.99" y="-244.08" font-family="Times New Roman,serif" font-size="20.00">IsRightHandEmpty(self)</text>
</g>
<!-- cb6fdc28&#45;f9da&#45;43bb&#45;8cce&#45;a72d3de4fe50&#45;&gt;518359d7&#45;b40c&#45;4499&#45;a1e0&#45;f93bd83e1cbf -->
<g id="edge19" class="edge">
<title>cb6fdc28&#45;f9da&#45;43bb&#45;8cce&#45;a72d3de4fe50&#45;&gt;518359d7&#45;b40c&#45;4499&#45;a1e0&#45;f93bd83e1cbf</title>
<path fill="none" stroke="black" d="M1480.99,-315.46C1480.99,-306.9 1480.99,-295.7 1480.99,-285.15"/>
<polygon fill="black" stroke="black" points="1484.49,-285.2 1480.99,-275.2 1477.49,-285.2 1484.49,-285.2"/>
</g>
<!-- dfb49a29&#45;7fea&#45;4309&#45;a168&#45;6bd204c6352b -->
<g id="node21" class="node">
<title>dfb49a29&#45;7fea&#45;4309&#45;a168&#45;6bd204c6352b</title>
<ellipse fill="#ffff80" stroke="black" cx="1748.99" cy="-251.83" rx="100.41" ry="21.57"/>
<text text-anchor="middle" x="1748.99" y="-244.08" font-family="Times New Roman,serif" font-size="20.00">IsStanding(self)</text>
</g>
<!-- cb6fdc28&#45;f9da&#45;43bb&#45;8cce&#45;a72d3de4fe50&#45;&gt;dfb49a29&#45;7fea&#45;4309&#45;a168&#45;6bd204c6352b -->
<g id="edge20" class="edge">
<title>cb6fdc28&#45;f9da&#45;43bb&#45;8cce&#45;a72d3de4fe50&#45;&gt;dfb49a29&#45;7fea&#45;4309&#45;a168&#45;6bd204c6352b</title>
<path fill="none" stroke="black" d="M1499.41,-324.67C1535.87,-314.17 1618.92,-290.27 1679.23,-272.91"/>
<polygon fill="black" stroke="black" points="1680.11,-276.3 1688.75,-270.17 1678.17,-269.57 1680.11,-276.3"/>
</g>
<!-- 79c2a2b7&#45;267d&#45;4c6d&#45;948c&#45;eca2384ffca0 -->
<g id="node22" class="node">
<title>79c2a2b7&#45;267d&#45;4c6d&#45;948c&#45;eca2384ffca0</title>
<polygon fill="#b0ffff" stroke="black" points="1902.74,-267.08 1867.24,-267.08 1867.24,-236.58 1902.74,-236.58 1902.74,-267.08"/>
<text text-anchor="middle" x="1884.99" y="-244.08" font-family="Times New Roman,serif" font-size="20.00"> ? </text>
</g>
<!-- cb6fdc28&#45;f9da&#45;43bb&#45;8cce&#45;a72d3de4fe50&#45;&gt;79c2a2b7&#45;267d&#45;4c6d&#45;948c&#45;eca2384ffca0 -->
<g id="edge21" class="edge">
<title>cb6fdc28&#45;f9da&#45;43bb&#45;8cce&#45;a72d3de4fe50&#45;&gt;79c2a2b7&#45;267d&#45;4c6d&#45;948c&#45;eca2384ffca0</title>
<path fill="none" stroke="black" d="M1499.51,-330.37C1555.84,-330.96 1729.05,-327.9 1857.99,-273.4 1858.21,-273.31 1858.43,-273.21 1858.66,-273.11"/>
<polygon fill="black" stroke="black" points="1860.15,-276.29 1867.05,-268.26 1856.64,-270.23 1860.15,-276.29"/>
</g>
<!-- c796b6e1&#45;ade7&#45;4253&#45;a432&#45;1eeca91469f2 -->
<g id="node23" class="node">
<title>c796b6e1&#45;ade7&#45;4253&#45;a432&#45;1eeca91469f2</title>
<polygon fill="#ff8080" stroke="black" points="1856.11,-191.52 1819.86,-191.52 1819.86,-161.02 1856.11,-161.02 1856.11,-191.52"/>
<text text-anchor="middle" x="1837.99" y="-168.52" font-family="Times New Roman,serif" font-size="20.00">→</text>
</g>
<!-- 79c2a2b7&#45;267d&#45;4c6d&#45;948c&#45;eca2384ffca0&#45;&gt;c796b6e1&#45;ade7&#45;4253&#45;a432&#45;1eeca91469f2 -->
<g id="edge22" class="edge">
<title>79c2a2b7&#45;267d&#45;4c6d&#45;948c&#45;eca2384ffca0&#45;&gt;c796b6e1&#45;ade7&#45;4253&#45;a432&#45;1eeca91469f2</title>
<path fill="none" stroke="black" d="M1875.7,-236.3C1869.33,-226.32 1860.72,-212.85 1853.34,-201.3"/>
<polygon fill="black" stroke="black" points="1856.4,-199.59 1848.07,-193.05 1850.5,-203.36 1856.4,-199.59"/>
</g>
<!-- f01d90bc&#45;df94&#45;4eb0&#45;abdf&#45;a0ab4ef81e26 -->
<g id="node26" class="node">
<title>f01d90bc&#45;df94&#45;4eb0&#45;abdf&#45;a0ab4ef81e26</title>
<polygon fill="lightgreen" stroke="black" points="1987.74,-194.27 1874.24,-194.27 1874.24,-158.27 1987.74,-158.27 1987.74,-194.27"/>
<text text-anchor="middle" x="1930.99" y="-168.52" font-family="Times New Roman,serif" font-size="20.00">Walk(apple)</text>
</g>
<!-- 79c2a2b7&#45;267d&#45;4c6d&#45;948c&#45;eca2384ffca0&#45;&gt;f01d90bc&#45;df94&#45;4eb0&#45;abdf&#45;a0ab4ef81e26 -->
<g id="edge25" class="edge">
<title>79c2a2b7&#45;267d&#45;4c6d&#45;948c&#45;eca2384ffca0&#45;&gt;f01d90bc&#45;df94&#45;4eb0&#45;abdf&#45;a0ab4ef81e26</title>
<path fill="none" stroke="black" d="M1894.07,-236.3C1899.81,-227.13 1907.39,-215.01 1914.19,-204.13"/>
<polygon fill="black" stroke="black" points="1917,-206.24 1919.33,-195.9 1911.07,-202.52 1917,-206.24"/>
</g>
<!-- dbdb6538&#45;ff06&#45;45f0&#45;bd48&#45;4ac58edb0aee -->
<g id="node24" class="node">
<title>dbdb6538&#45;ff06&#45;45f0&#45;bd48&#45;4ac58edb0aee</title>
<ellipse fill="#ffff80" stroke="black" cx="1781.99" cy="-100.7" rx="112.61" ry="21.57"/>
<text text-anchor="middle" x="1781.99" y="-92.95" font-family="Times New Roman,serif" font-size="20.00">IsNear(self,apple)</text>
</g>
<!-- c796b6e1&#45;ade7&#45;4253&#45;a432&#45;1eeca91469f2&#45;&gt;dbdb6538&#45;ff06&#45;45f0&#45;bd48&#45;4ac58edb0aee -->
<g id="edge23" class="edge">
<title>c796b6e1&#45;ade7&#45;4253&#45;a432&#45;1eeca91469f2&#45;&gt;dbdb6538&#45;ff06&#45;45f0&#45;bd48&#45;4ac58edb0aee</title>
<path fill="none" stroke="black" d="M1826.92,-160.73C1820.53,-152.33 1812.25,-141.45 1804.54,-131.33"/>
<polygon fill="black" stroke="black" points="1807.45,-129.37 1798.61,-123.54 1801.88,-133.61 1807.45,-129.37"/>
</g>
<!-- acf8a62f&#45;dcc1&#45;46bf&#45;b8ee&#45;7597965b0c27 -->
<g id="node25" class="node">
<title>acf8a62f&#45;dcc1&#45;46bf&#45;b8ee&#45;7597965b0c27</title>
<polygon fill="lightgreen" stroke="black" points="2057.49,-118.7 1912.49,-118.7 1912.49,-82.7 2057.49,-82.7 2057.49,-118.7"/>
<text text-anchor="middle" x="1984.99" y="-92.95" font-family="Times New Roman,serif" font-size="20.00">LeftGrab(apple)</text>
</g>
<!-- c796b6e1&#45;ade7&#45;4253&#45;a432&#45;1eeca91469f2&#45;&gt;acf8a62f&#45;dcc1&#45;46bf&#45;b8ee&#45;7597965b0c27 -->
<g id="edge24" class="edge">
<title>c796b6e1&#45;ade7&#45;4253&#45;a432&#45;1eeca91469f2&#45;&gt;acf8a62f&#45;dcc1&#45;46bf&#45;b8ee&#45;7597965b0c27</title>
<path fill="none" stroke="black" d="M1856.4,-163.26C1859.24,-161.53 1862.17,-159.81 1864.99,-158.27 1887.38,-146 1912.88,-133.75 1934.6,-123.8"/>
<polygon fill="black" stroke="black" points="1935.89,-127.06 1943.55,-119.74 1933,-120.68 1935.89,-127.06"/>
</g>
</g>
</svg>
