<?xml version="1.0" encoding="UTF-8" standalone="no"?>
<!DOCTYPE svg PUBLIC "-//W3C//DTD SVG 1.1//EN"
 "http://www.w3.org/Graphics/SVG/1.1/DTD/svg11.dtd">
<!-- Generated by graphviz version 12.1.0 (20240811.2233)
 -->
<!-- Title: pastafarianism Pages: 1 -->
<svg width="385pt" height="197pt"
 viewBox="0.00 0.00 385.42 196.77" xmlns="http://www.w3.org/2000/svg" xmlns:xlink="http://www.w3.org/1999/xlink">
<g id="graph0" class="graph" transform="scale(1 1) rotate(0) translate(4 192.77)">
<title>pastafarianism</title>
<polygon fill="white" stroke="none" points="-4,4 -4,-192.77 381.42,-192.77 381.42,4 -4,4"/>
<!-- b6f45d90&#45;291a&#45;4608&#45;b3cf&#45;0f8609bc516a -->
<g id="node1" class="node">
<title>b6f45d90&#45;291a&#45;4608&#45;b3cf&#45;0f8609bc516a</title>
<polygon fill="#b0ffff" stroke="black" points="176.8,-188.77 141.3,-188.77 141.3,-158.27 176.8,-158.27 176.8,-188.77"/>
<text text-anchor="middle" x="159.05" y="-165.77" font-family="Times New Roman,serif" font-size="20.00"> ? </text>
</g>
<!-- c97c5875&#45;27ca&#45;4837&#45;89de&#45;8a5d68c2ce22 -->
<g id="node2" class="node">
<title>c97c5875&#45;27ca&#45;4837&#45;89de&#45;8a5d68c2ce22</title>
<ellipse fill="#ffff80" stroke="black" cx="94.05" cy="-100.7" rx="94.05" ry="21.57"/>
<text text-anchor="middle" x="94.05" y="-92.95" font-family="Times New Roman,serif" font-size="20.00">IsClean(Floor)</text>
</g>
<!-- b6f45d90&#45;291a&#45;4608&#45;b3cf&#45;0f8609bc516a&#45;&gt;c97c5875&#45;27ca&#45;4837&#45;89de&#45;8a5d68c2ce22 -->
<g id="edge1" class="edge">
<title>b6f45d90&#45;291a&#45;4608&#45;b3cf&#45;0f8609bc516a&#45;&gt;c97c5875&#45;27ca&#45;4837&#45;89de&#45;8a5d68c2ce22</title>
<path fill="none" stroke="black" d="M145.58,-157.84C138.35,-149.97 129.17,-139.97 120.58,-130.61"/>
<polygon fill="black" stroke="black" points="123.28,-128.38 113.94,-123.38 118.13,-133.11 123.28,-128.38"/>
</g>
<!-- 7d9ff1b6&#45;0253&#45;43fa&#45;aca4&#45;2731f6f4470a -->
<g id="node3" class="node">
<title>7d9ff1b6&#45;0253&#45;43fa&#45;aca4&#45;2731f6f4470a</title>
<polygon fill="#ff8080" stroke="black" points="242.17,-115.95 205.92,-115.95 205.92,-85.45 242.17,-85.45 242.17,-115.95"/>
<text text-anchor="middle" x="224.05" y="-92.95" font-family="Times New Roman,serif" font-size="20.00">→</text>
</g>
<!-- b6f45d90&#45;291a&#45;4608&#45;b3cf&#45;0f8609bc516a&#45;&gt;7d9ff1b6&#45;0253&#45;43fa&#45;aca4&#45;2731f6f4470a -->
<g id="edge2" class="edge">
<title>b6f45d90&#45;291a&#45;4608&#45;b3cf&#45;0f8609bc516a&#45;&gt;7d9ff1b6&#45;0253&#45;43fa&#45;aca4&#45;2731f6f4470a</title>
<path fill="none" stroke="black" d="M172.51,-157.84C181.32,-148.25 192.99,-135.53 203.01,-124.62"/>
<polygon fill="black" stroke="black" points="205.39,-127.2 209.57,-117.47 200.23,-122.47 205.39,-127.2"/>
</g>
<!-- 1e4a2c2f&#45;dee1&#45;42e0&#45;98f9&#45;a0953628770d -->
<g id="node4" class="node">
<title>1e4a2c2f&#45;dee1&#45;42e0&#45;98f9&#45;a0953628770d</title>
<ellipse fill="#ffff80" stroke="black" cx="130.05" cy="-21.57" rx="111.02" ry="21.57"/>
<text text-anchor="middle" x="130.05" y="-13.82" font-family="Times New Roman,serif" font-size="20.00">Holding(Nothing)</text>
</g>
<!-- 7d9ff1b6&#45;0253&#45;43fa&#45;aca4&#45;2731f6f4470a&#45;&gt;1e4a2c2f&#45;dee1&#45;42e0&#45;98f9&#45;a0953628770d -->
<g id="edge3" class="edge">
<title>7d9ff1b6&#45;0253&#45;43fa&#45;aca4&#45;2731f6f4470a&#45;&gt;1e4a2c2f&#45;dee1&#45;42e0&#45;98f9&#45;a0953628770d</title>
<path fill="none" stroke="black" d="M206.36,-85.19C194.3,-75.29 177.94,-61.86 163.46,-49.98"/>
<polygon fill="black" stroke="black" points="165.86,-47.43 155.91,-43.79 161.42,-52.84 165.86,-47.43"/>
</g>
<!-- fae40cc3&#45;58c7&#45;4a74&#45;9652&#45;8160f388ee22 -->
<g id="node5" class="node">
<title>fae40cc3&#45;58c7&#45;4a74&#45;9652&#45;8160f388ee22</title>
<polygon fill="lightgreen" stroke="black" points="377.42,-39.57 258.67,-39.57 258.67,-3.57 377.42,-3.57 377.42,-39.57"/>
<text text-anchor="middle" x="318.05" y="-13.82" font-family="Times New Roman,serif" font-size="20.00">Clean(Floor)</text>
</g>
<!-- 7d9ff1b6&#45;0253&#45;43fa&#45;aca4&#45;2731f6f4470a&#45;&gt;fae40cc3&#45;58c7&#45;4a74&#45;9652&#45;8160f388ee22 -->
<g id="edge4" class="edge">
<title>7d9ff1b6&#45;0253&#45;43fa&#45;aca4&#45;2731f6f4470a&#45;&gt;fae40cc3&#45;58c7&#45;4a74&#45;9652&#45;8160f388ee22</title>
<path fill="none" stroke="black" d="M241.73,-85.19C254.8,-74.47 272.9,-59.61 288.2,-47.06"/>
<polygon fill="black" stroke="black" points="290.14,-49.99 295.65,-40.94 285.7,-44.58 290.14,-49.99"/>
</g>
</g>
</svg>
