<?xml version="1.0" encoding="UTF-8" standalone="no"?>
<!DOCTYPE svg PUBLIC "-//W3C//DTD SVG 1.1//EN"
 "http://www.w3.org/Graphics/SVG/1.1/DTD/svg11.dtd">
<!-- Generated by graphviz version 12.1.0 (20240811.2233)
 -->
<!-- Title: pastafarianism Pages: 1 -->
<svg width="481pt" height="197pt"
 viewBox="0.00 0.00 480.62 196.77" xmlns="http://www.w3.org/2000/svg" xmlns:xlink="http://www.w3.org/1999/xlink">
<g id="graph0" class="graph" transform="scale(1 1) rotate(0) translate(4 192.77)">
<title>pastafarianism</title>
<polygon fill="white" stroke="none" points="-4,4 -4,-192.77 476.62,-192.77 476.62,4 -4,4"/>
<!-- 7599bce3&#45;0e27&#45;4574&#45;a9f3&#45;61a03aaf38ee -->
<g id="node1" class="node">
<title>7599bce3&#45;0e27&#45;4574&#45;a9f3&#45;61a03aaf38ee</title>
<polygon fill="#b0ffff" stroke="black" points="218.37,-188.77 182.87,-188.77 182.87,-158.27 218.37,-158.27 218.37,-188.77"/>
<text text-anchor="middle" x="200.62" y="-165.77" font-family="Times New Roman,serif" font-size="20.00"> ? </text>
</g>
<!-- 5cff2cb7&#45;649f&#45;4461&#45;bab2&#45;09f29d15e038 -->
<g id="node2" class="node">
<title>5cff2cb7&#45;649f&#45;4461&#45;bab2&#45;09f29d15e038</title>
<ellipse fill="#ffff80" stroke="black" cx="121.62" cy="-100.7" rx="121.62" ry="21.57"/>
<text text-anchor="middle" x="121.62" y="-92.95" font-family="Times New Roman,serif" font-size="20.00">Activate(HallLight)</text>
</g>
<!-- 7599bce3&#45;0e27&#45;4574&#45;a9f3&#45;61a03aaf38ee&#45;&gt;5cff2cb7&#45;649f&#45;4461&#45;bab2&#45;09f29d15e038 -->
<g id="edge1" class="edge">
<title>7599bce3&#45;0e27&#45;4574&#45;a9f3&#45;61a03aaf38ee&#45;&gt;5cff2cb7&#45;649f&#45;4461&#45;bab2&#45;09f29d15e038</title>
<path fill="none" stroke="black" d="M184.25,-157.84C175.2,-149.72 163.63,-139.36 152.91,-129.75"/>
<polygon fill="black" stroke="black" points="155.47,-127.34 145.69,-123.27 150.8,-132.55 155.47,-127.34"/>
</g>
<!-- 66372c57&#45;813f&#45;4d9d&#45;b6c1&#45;ae69f524b01e -->
<g id="node3" class="node">
<title>66372c57&#45;813f&#45;4d9d&#45;b6c1&#45;ae69f524b01e</title>
<polygon fill="#ff8080" stroke="black" points="297.75,-115.95 261.5,-115.95 261.5,-85.45 297.75,-85.45 297.75,-115.95"/>
<text text-anchor="middle" x="279.62" y="-92.95" font-family="Times New Roman,serif" font-size="20.00">→</text>
</g>
<!-- 7599bce3&#45;0e27&#45;4574&#45;a9f3&#45;61a03aaf38ee&#45;&gt;66372c57&#45;813f&#45;4d9d&#45;b6c1&#45;ae69f524b01e -->
<g id="edge2" class="edge">
<title>7599bce3&#45;0e27&#45;4574&#45;a9f3&#45;61a03aaf38ee&#45;&gt;66372c57&#45;813f&#45;4d9d&#45;b6c1&#45;ae69f524b01e</title>
<path fill="none" stroke="black" d="M216.99,-157.84C227.9,-148.06 242.45,-135.02 254.77,-123.97"/>
<polygon fill="black" stroke="black" points="257.04,-126.65 262.15,-117.37 252.37,-121.43 257.04,-126.65"/>
</g>
<!-- 15399ac3&#45;d149&#45;45d1&#45;98e2&#45;4f885e3d53c3 -->
<g id="node4" class="node">
<title>15399ac3&#45;d149&#45;45d1&#45;98e2&#45;4f885e3d53c3</title>
<ellipse fill="#ffff80" stroke="black" cx="171.62" cy="-21.57" rx="111.02" ry="21.57"/>
<text text-anchor="middle" x="171.62" y="-13.82" font-family="Times New Roman,serif" font-size="20.00">Holding(Nothing)</text>
</g>
<!-- 66372c57&#45;813f&#45;4d9d&#45;b6c1&#45;ae69f524b01e&#45;&gt;15399ac3&#45;d149&#45;45d1&#45;98e2&#45;4f885e3d53c3 -->
<g id="edge3" class="edge">
<title>66372c57&#45;813f&#45;4d9d&#45;b6c1&#45;ae69f524b01e&#45;&gt;15399ac3&#45;d149&#45;45d1&#45;98e2&#45;4f885e3d53c3</title>
<path fill="none" stroke="black" d="M261.11,-85.44C258.28,-83.31 255.38,-81.15 252.62,-79.13 239.02,-69.21 223.94,-58.58 210.51,-49.24"/>
<polygon fill="black" stroke="black" points="212.53,-46.38 202.32,-43.56 208.54,-52.13 212.53,-46.38"/>
</g>
<!-- 354d52fc&#45;19a5&#45;4206&#45;b034&#45;f5ec56f046f6 -->
<g id="node5" class="node">
<title>354d52fc&#45;19a5&#45;4206&#45;b034&#45;f5ec56f046f6</title>
<polygon fill="lightgreen" stroke="black" points="472.62,-39.57 300.62,-39.57 300.62,-3.57 472.62,-3.57 472.62,-39.57"/>
<text text-anchor="middle" x="386.62" y="-13.82" font-family="Times New Roman,serif" font-size="20.00">Turn(HallLight,On)</text>
</g>
<!-- 66372c57&#45;813f&#45;4d9d&#45;b6c1&#45;ae69f524b01e&#45;&gt;354d52fc&#45;19a5&#45;4206&#45;b034&#45;f5ec56f046f6 -->
<g id="edge4" class="edge">
<title>66372c57&#45;813f&#45;4d9d&#45;b6c1&#45;ae69f524b01e&#45;&gt;354d52fc&#45;19a5&#45;4206&#45;b034&#45;f5ec56f046f6</title>
<path fill="none" stroke="black" d="M297.77,-86.62C313.01,-75.64 335.16,-59.67 353.53,-46.42"/>
<polygon fill="black" stroke="black" points="355.45,-49.36 361.51,-40.67 351.35,-43.68 355.45,-49.36"/>
</g>
</g>
</svg>
